G04 (created by PCBNEW (2013-june-11)-stable) date Mon 28 Apr 2014 08:26:40 PM PDT*
%MOIN*%
G04 Gerber Fmt 3.4, Leading zero omitted, Abs format*
%FSLAX34Y34*%
G01*
G70*
G90*
G04 APERTURE LIST*
%ADD10C,0.00590551*%
%ADD11C,0.0590551*%
%ADD12C,0.066*%
%ADD13R,0.14X0.14*%
%ADD14R,0.13X0.14*%
%ADD15C,0.035*%
%ADD16C,0.01*%
%ADD17C,0.001*%
G04 APERTURE END LIST*
G54D10*
G54D11*
X63300Y-66200D03*
X60100Y-66200D03*
G54D12*
X58800Y-74550D03*
X58800Y-73550D03*
X64600Y-74550D03*
X64600Y-73550D03*
G54D13*
X57200Y-75400D03*
G54D14*
X60900Y-75400D03*
G54D13*
X59100Y-76900D03*
X64100Y-76900D03*
G54D14*
X62300Y-75400D03*
G54D13*
X66000Y-75400D03*
G54D15*
X57000Y-69280D03*
X57000Y-68400D03*
X66200Y-68400D03*
X61750Y-73850D03*
X62200Y-69200D03*
X66200Y-71920D03*
X57000Y-71920D03*
X65200Y-72800D03*
X64300Y-72800D03*
X66200Y-72800D03*
X58000Y-72800D03*
X58900Y-72800D03*
X64300Y-67500D03*
X57000Y-72800D03*
X57000Y-71040D03*
X57000Y-70160D03*
X57000Y-67500D03*
X60100Y-67500D03*
X61100Y-67500D03*
X62300Y-67500D03*
X58900Y-67500D03*
X58000Y-67500D03*
X66200Y-69280D03*
X66200Y-67500D03*
X65200Y-67500D03*
X66200Y-71040D03*
X66200Y-70160D03*
X63300Y-67500D03*
X59400Y-68325D03*
X60900Y-73300D03*
X60700Y-72200D03*
X64000Y-68325D03*
X62200Y-72200D03*
X59900Y-72200D03*
X64200Y-72200D03*
X61300Y-72200D03*
G54D16*
X59400Y-67700D02*
X60100Y-67000D01*
X60100Y-67000D02*
X60100Y-66200D01*
X59400Y-68325D02*
X59400Y-67700D01*
X60900Y-73300D02*
X60900Y-73700D01*
X59500Y-74550D02*
X58800Y-74550D01*
X59850Y-74200D02*
X59500Y-74550D01*
X60400Y-74200D02*
X59850Y-74200D01*
X60900Y-73700D02*
X60400Y-74200D01*
X60900Y-72800D02*
X60900Y-73300D01*
X60700Y-72200D02*
X60700Y-72600D01*
X60700Y-72600D02*
X60900Y-72800D01*
X64000Y-67700D02*
X63300Y-67000D01*
X63300Y-67000D02*
X63300Y-66200D01*
X64000Y-68325D02*
X64000Y-67700D01*
X62200Y-73400D02*
X62200Y-73600D01*
X63150Y-74550D02*
X64600Y-74550D01*
X62200Y-73600D02*
X63150Y-74550D01*
X62200Y-73400D02*
X62200Y-72200D01*
X59900Y-72600D02*
X59900Y-73050D01*
X59900Y-72200D02*
X59900Y-72600D01*
X59650Y-73300D02*
X59400Y-73550D01*
X59400Y-73550D02*
X58800Y-73550D01*
X59900Y-73050D02*
X59650Y-73300D01*
X61600Y-72200D02*
X62100Y-71700D01*
X62100Y-71700D02*
X63700Y-71700D01*
X63700Y-71700D02*
X64200Y-72200D01*
X61600Y-72200D02*
X61300Y-72200D01*
X61300Y-72200D02*
X61300Y-73800D01*
X61300Y-73800D02*
X60600Y-74500D01*
X60600Y-74500D02*
X60200Y-74500D01*
X60200Y-74500D02*
X59100Y-75600D01*
X59100Y-75600D02*
X59100Y-76900D01*
G54D10*
G36*
X66795Y-77779D02*
X66786Y-77803D01*
X66633Y-77966D01*
X66429Y-78058D01*
X66199Y-78065D01*
X65855Y-78065D01*
X65855Y-76253D01*
X65855Y-75545D01*
X65855Y-75255D01*
X65855Y-74546D01*
X65803Y-74495D01*
X65259Y-74494D01*
X65184Y-74526D01*
X65145Y-74564D01*
X65145Y-73531D01*
X65110Y-73358D01*
X65036Y-73318D01*
X64831Y-73523D01*
X64831Y-73113D01*
X64791Y-73039D01*
X64581Y-73004D01*
X64408Y-73039D01*
X64368Y-73113D01*
X64600Y-73344D01*
X64831Y-73113D01*
X64831Y-73523D01*
X64805Y-73550D01*
X65036Y-73781D01*
X65110Y-73741D01*
X65145Y-73531D01*
X65145Y-74564D01*
X65126Y-74583D01*
X65095Y-74659D01*
X65094Y-74740D01*
X65095Y-75203D01*
X65146Y-75255D01*
X65855Y-75255D01*
X65855Y-75545D01*
X65146Y-75545D01*
X65095Y-75596D01*
X65094Y-76059D01*
X65095Y-76140D01*
X65126Y-76216D01*
X65184Y-76273D01*
X65259Y-76305D01*
X65803Y-76305D01*
X65855Y-76253D01*
X65855Y-78065D01*
X65035Y-78065D01*
X65035Y-74463D01*
X64968Y-74303D01*
X64846Y-74181D01*
X64831Y-74175D01*
X64831Y-73986D01*
X64600Y-73755D01*
X64394Y-73960D01*
X64394Y-73550D01*
X64163Y-73318D01*
X64089Y-73358D01*
X64054Y-73568D01*
X64089Y-73741D01*
X64163Y-73781D01*
X64394Y-73550D01*
X64394Y-73960D01*
X64368Y-73986D01*
X64408Y-74060D01*
X64618Y-74095D01*
X64791Y-74060D01*
X64831Y-73986D01*
X64831Y-74175D01*
X64686Y-74115D01*
X64513Y-74114D01*
X64353Y-74181D01*
X64231Y-74303D01*
X64193Y-74395D01*
X63214Y-74395D01*
X62355Y-73535D01*
X62355Y-73400D01*
X62355Y-72438D01*
X62358Y-72437D01*
X62437Y-72358D01*
X62479Y-72255D01*
X62480Y-72144D01*
X62437Y-72041D01*
X62358Y-71962D01*
X62255Y-71920D01*
X62144Y-71919D01*
X62067Y-71951D01*
X62164Y-71855D01*
X63635Y-71855D01*
X63921Y-72140D01*
X63920Y-72144D01*
X63919Y-72255D01*
X63962Y-72358D01*
X64041Y-72437D01*
X64144Y-72479D01*
X64255Y-72480D01*
X64358Y-72437D01*
X64437Y-72358D01*
X64479Y-72255D01*
X64480Y-72144D01*
X64437Y-72041D01*
X64358Y-71962D01*
X64255Y-71920D01*
X64144Y-71919D01*
X64140Y-71921D01*
X63809Y-71590D01*
X63759Y-71556D01*
X63700Y-71545D01*
X62100Y-71545D01*
X62040Y-71556D01*
X61990Y-71590D01*
X61538Y-72042D01*
X61537Y-72041D01*
X61458Y-71962D01*
X61355Y-71920D01*
X61244Y-71919D01*
X61141Y-71962D01*
X61062Y-72041D01*
X61020Y-72144D01*
X61019Y-72255D01*
X61062Y-72358D01*
X61141Y-72437D01*
X61145Y-72438D01*
X61145Y-73159D01*
X61137Y-73141D01*
X61058Y-73062D01*
X61055Y-73061D01*
X61055Y-72800D01*
X61043Y-72740D01*
X61043Y-72740D01*
X61009Y-72690D01*
X60855Y-72535D01*
X60855Y-72438D01*
X60858Y-72437D01*
X60937Y-72358D01*
X60979Y-72255D01*
X60980Y-72144D01*
X60937Y-72041D01*
X60858Y-71962D01*
X60755Y-71920D01*
X60644Y-71919D01*
X60541Y-71962D01*
X60462Y-72041D01*
X60420Y-72144D01*
X60419Y-72255D01*
X60462Y-72358D01*
X60541Y-72437D01*
X60545Y-72438D01*
X60545Y-72600D01*
X60556Y-72659D01*
X60590Y-72709D01*
X60745Y-72864D01*
X60745Y-73061D01*
X60741Y-73062D01*
X60662Y-73141D01*
X60620Y-73244D01*
X60619Y-73355D01*
X60662Y-73458D01*
X60741Y-73537D01*
X60745Y-73538D01*
X60745Y-73635D01*
X60335Y-74045D01*
X60180Y-74045D01*
X60180Y-72144D01*
X60137Y-72041D01*
X60058Y-71962D01*
X59955Y-71920D01*
X59844Y-71919D01*
X59741Y-71962D01*
X59662Y-72041D01*
X59620Y-72144D01*
X59619Y-72255D01*
X59662Y-72358D01*
X59741Y-72437D01*
X59745Y-72438D01*
X59745Y-72600D01*
X59745Y-72985D01*
X59540Y-73190D01*
X59335Y-73395D01*
X59206Y-73395D01*
X59168Y-73303D01*
X59046Y-73181D01*
X58886Y-73115D01*
X58713Y-73114D01*
X58553Y-73181D01*
X58431Y-73303D01*
X58365Y-73463D01*
X58364Y-73636D01*
X58431Y-73796D01*
X58553Y-73918D01*
X58713Y-73984D01*
X58886Y-73985D01*
X59046Y-73918D01*
X59168Y-73796D01*
X59206Y-73705D01*
X59400Y-73705D01*
X59459Y-73693D01*
X59459Y-73693D01*
X59509Y-73659D01*
X59759Y-73409D01*
X60009Y-73159D01*
X60043Y-73109D01*
X60043Y-73109D01*
X60055Y-73050D01*
X60055Y-72600D01*
X60055Y-72438D01*
X60058Y-72437D01*
X60137Y-72358D01*
X60179Y-72255D01*
X60180Y-72144D01*
X60180Y-74045D01*
X59850Y-74045D01*
X59790Y-74056D01*
X59740Y-74090D01*
X59740Y-74090D01*
X59740Y-74090D01*
X59435Y-74395D01*
X59206Y-74395D01*
X59168Y-74303D01*
X59046Y-74181D01*
X58886Y-74115D01*
X58713Y-74114D01*
X58553Y-74181D01*
X58431Y-74303D01*
X58365Y-74463D01*
X58364Y-74636D01*
X58431Y-74796D01*
X58553Y-74918D01*
X58713Y-74984D01*
X58886Y-74985D01*
X59046Y-74918D01*
X59168Y-74796D01*
X59206Y-74705D01*
X59500Y-74705D01*
X59559Y-74693D01*
X59559Y-74693D01*
X59609Y-74659D01*
X59914Y-74355D01*
X60149Y-74355D01*
X60140Y-74356D01*
X60090Y-74390D01*
X60090Y-74390D01*
X58990Y-75490D01*
X58956Y-75540D01*
X58945Y-75600D01*
X58945Y-76094D01*
X58379Y-76094D01*
X58340Y-76110D01*
X58311Y-76140D01*
X58295Y-76179D01*
X58294Y-76220D01*
X58294Y-77620D01*
X58310Y-77659D01*
X58340Y-77688D01*
X58379Y-77704D01*
X58420Y-77705D01*
X59820Y-77705D01*
X59859Y-77689D01*
X59888Y-77659D01*
X59904Y-77620D01*
X59905Y-77579D01*
X59905Y-76179D01*
X59889Y-76140D01*
X59859Y-76111D01*
X59820Y-76095D01*
X59779Y-76094D01*
X59255Y-76094D01*
X59255Y-75664D01*
X60144Y-74774D01*
X60144Y-76120D01*
X60160Y-76159D01*
X60190Y-76188D01*
X60229Y-76204D01*
X60270Y-76205D01*
X61471Y-76205D01*
X61476Y-76216D01*
X61534Y-76273D01*
X61609Y-76305D01*
X62103Y-76305D01*
X62155Y-76253D01*
X62155Y-75545D01*
X62147Y-75545D01*
X62147Y-75255D01*
X62155Y-75255D01*
X62155Y-74546D01*
X62103Y-74495D01*
X61609Y-74494D01*
X61534Y-74526D01*
X61476Y-74583D01*
X61471Y-74594D01*
X60724Y-74594D01*
X61409Y-73909D01*
X61409Y-73909D01*
X61409Y-73909D01*
X61443Y-73859D01*
X61443Y-73859D01*
X61452Y-73811D01*
X61455Y-73800D01*
X61454Y-73800D01*
X61455Y-73800D01*
X61455Y-72438D01*
X61458Y-72437D01*
X61537Y-72358D01*
X61538Y-72355D01*
X61600Y-72355D01*
X61659Y-72343D01*
X61659Y-72343D01*
X61709Y-72309D01*
X61951Y-72067D01*
X61920Y-72144D01*
X61919Y-72255D01*
X61962Y-72358D01*
X62041Y-72437D01*
X62045Y-72438D01*
X62045Y-73400D01*
X62045Y-73600D01*
X62056Y-73659D01*
X62090Y-73709D01*
X62875Y-74494D01*
X62496Y-74495D01*
X62445Y-74546D01*
X62445Y-75255D01*
X63103Y-75255D01*
X63155Y-75203D01*
X63155Y-74740D01*
X63155Y-74705D01*
X64193Y-74705D01*
X64231Y-74796D01*
X64353Y-74918D01*
X64513Y-74984D01*
X64686Y-74985D01*
X64846Y-74918D01*
X64968Y-74796D01*
X65034Y-74636D01*
X65035Y-74463D01*
X65035Y-78065D01*
X65005Y-78065D01*
X65005Y-77559D01*
X65005Y-76240D01*
X65004Y-76159D01*
X64973Y-76083D01*
X64915Y-76026D01*
X64840Y-75994D01*
X64296Y-75995D01*
X64245Y-76046D01*
X64245Y-76755D01*
X64953Y-76755D01*
X65005Y-76703D01*
X65005Y-76240D01*
X65005Y-77559D01*
X65005Y-77096D01*
X64953Y-77045D01*
X64245Y-77045D01*
X64245Y-77753D01*
X64296Y-77805D01*
X64840Y-77805D01*
X64915Y-77773D01*
X64973Y-77716D01*
X65004Y-77640D01*
X65005Y-77559D01*
X65005Y-78065D01*
X63955Y-78065D01*
X63955Y-77753D01*
X63955Y-77045D01*
X63955Y-76755D01*
X63955Y-76046D01*
X63903Y-75995D01*
X63359Y-75994D01*
X63284Y-76026D01*
X63226Y-76083D01*
X63195Y-76159D01*
X63194Y-76240D01*
X63195Y-76703D01*
X63246Y-76755D01*
X63955Y-76755D01*
X63955Y-77045D01*
X63246Y-77045D01*
X63195Y-77096D01*
X63194Y-77559D01*
X63195Y-77640D01*
X63226Y-77716D01*
X63284Y-77773D01*
X63359Y-77805D01*
X63903Y-77805D01*
X63955Y-77753D01*
X63955Y-78065D01*
X63155Y-78065D01*
X63155Y-76059D01*
X63155Y-75596D01*
X63103Y-75545D01*
X62445Y-75545D01*
X62445Y-76253D01*
X62496Y-76305D01*
X62990Y-76305D01*
X63065Y-76273D01*
X63123Y-76216D01*
X63154Y-76140D01*
X63155Y-76059D01*
X63155Y-78065D01*
X56902Y-78065D01*
X56684Y-78021D01*
X56500Y-77898D01*
X56405Y-77756D01*
X56405Y-76145D01*
X56410Y-76159D01*
X56440Y-76188D01*
X56479Y-76204D01*
X56520Y-76205D01*
X57920Y-76205D01*
X57959Y-76189D01*
X57988Y-76159D01*
X58004Y-76120D01*
X58005Y-76079D01*
X58005Y-74679D01*
X57989Y-74640D01*
X57959Y-74611D01*
X57920Y-74595D01*
X57879Y-74594D01*
X56479Y-74594D01*
X56440Y-74610D01*
X56411Y-74640D01*
X56405Y-74654D01*
X56405Y-67305D01*
X59575Y-67305D01*
X59290Y-67590D01*
X59256Y-67640D01*
X59245Y-67700D01*
X59245Y-68086D01*
X59241Y-68087D01*
X59162Y-68166D01*
X59120Y-68269D01*
X59119Y-68380D01*
X59162Y-68483D01*
X59241Y-68562D01*
X59344Y-68604D01*
X59455Y-68605D01*
X59558Y-68562D01*
X59637Y-68483D01*
X59679Y-68380D01*
X59680Y-68269D01*
X59637Y-68166D01*
X59558Y-68087D01*
X59555Y-68086D01*
X59555Y-67764D01*
X60014Y-67305D01*
X63385Y-67305D01*
X63845Y-67764D01*
X63845Y-68086D01*
X63841Y-68087D01*
X63762Y-68166D01*
X63720Y-68269D01*
X63719Y-68380D01*
X63762Y-68483D01*
X63841Y-68562D01*
X63944Y-68604D01*
X64055Y-68605D01*
X64158Y-68562D01*
X64237Y-68483D01*
X64279Y-68380D01*
X64280Y-68269D01*
X64237Y-68166D01*
X64158Y-68087D01*
X64155Y-68086D01*
X64155Y-67700D01*
X64154Y-67699D01*
X64155Y-67699D01*
X64152Y-67688D01*
X64143Y-67640D01*
X64143Y-67640D01*
X64109Y-67590D01*
X64109Y-67590D01*
X63824Y-67305D01*
X66795Y-67305D01*
X66795Y-74517D01*
X66740Y-74494D01*
X66196Y-74495D01*
X66145Y-74546D01*
X66145Y-75255D01*
X66152Y-75255D01*
X66152Y-75545D01*
X66145Y-75545D01*
X66145Y-76253D01*
X66196Y-76305D01*
X66740Y-76305D01*
X66795Y-76282D01*
X66795Y-77779D01*
X66795Y-77779D01*
G37*
G54D17*
X66795Y-77779D02*
X66786Y-77803D01*
X66633Y-77966D01*
X66429Y-78058D01*
X66199Y-78065D01*
X65855Y-78065D01*
X65855Y-76253D01*
X65855Y-75545D01*
X65855Y-75255D01*
X65855Y-74546D01*
X65803Y-74495D01*
X65259Y-74494D01*
X65184Y-74526D01*
X65145Y-74564D01*
X65145Y-73531D01*
X65110Y-73358D01*
X65036Y-73318D01*
X64831Y-73523D01*
X64831Y-73113D01*
X64791Y-73039D01*
X64581Y-73004D01*
X64408Y-73039D01*
X64368Y-73113D01*
X64600Y-73344D01*
X64831Y-73113D01*
X64831Y-73523D01*
X64805Y-73550D01*
X65036Y-73781D01*
X65110Y-73741D01*
X65145Y-73531D01*
X65145Y-74564D01*
X65126Y-74583D01*
X65095Y-74659D01*
X65094Y-74740D01*
X65095Y-75203D01*
X65146Y-75255D01*
X65855Y-75255D01*
X65855Y-75545D01*
X65146Y-75545D01*
X65095Y-75596D01*
X65094Y-76059D01*
X65095Y-76140D01*
X65126Y-76216D01*
X65184Y-76273D01*
X65259Y-76305D01*
X65803Y-76305D01*
X65855Y-76253D01*
X65855Y-78065D01*
X65035Y-78065D01*
X65035Y-74463D01*
X64968Y-74303D01*
X64846Y-74181D01*
X64831Y-74175D01*
X64831Y-73986D01*
X64600Y-73755D01*
X64394Y-73960D01*
X64394Y-73550D01*
X64163Y-73318D01*
X64089Y-73358D01*
X64054Y-73568D01*
X64089Y-73741D01*
X64163Y-73781D01*
X64394Y-73550D01*
X64394Y-73960D01*
X64368Y-73986D01*
X64408Y-74060D01*
X64618Y-74095D01*
X64791Y-74060D01*
X64831Y-73986D01*
X64831Y-74175D01*
X64686Y-74115D01*
X64513Y-74114D01*
X64353Y-74181D01*
X64231Y-74303D01*
X64193Y-74395D01*
X63214Y-74395D01*
X62355Y-73535D01*
X62355Y-73400D01*
X62355Y-72438D01*
X62358Y-72437D01*
X62437Y-72358D01*
X62479Y-72255D01*
X62480Y-72144D01*
X62437Y-72041D01*
X62358Y-71962D01*
X62255Y-71920D01*
X62144Y-71919D01*
X62067Y-71951D01*
X62164Y-71855D01*
X63635Y-71855D01*
X63921Y-72140D01*
X63920Y-72144D01*
X63919Y-72255D01*
X63962Y-72358D01*
X64041Y-72437D01*
X64144Y-72479D01*
X64255Y-72480D01*
X64358Y-72437D01*
X64437Y-72358D01*
X64479Y-72255D01*
X64480Y-72144D01*
X64437Y-72041D01*
X64358Y-71962D01*
X64255Y-71920D01*
X64144Y-71919D01*
X64140Y-71921D01*
X63809Y-71590D01*
X63759Y-71556D01*
X63700Y-71545D01*
X62100Y-71545D01*
X62040Y-71556D01*
X61990Y-71590D01*
X61538Y-72042D01*
X61537Y-72041D01*
X61458Y-71962D01*
X61355Y-71920D01*
X61244Y-71919D01*
X61141Y-71962D01*
X61062Y-72041D01*
X61020Y-72144D01*
X61019Y-72255D01*
X61062Y-72358D01*
X61141Y-72437D01*
X61145Y-72438D01*
X61145Y-73159D01*
X61137Y-73141D01*
X61058Y-73062D01*
X61055Y-73061D01*
X61055Y-72800D01*
X61043Y-72740D01*
X61043Y-72740D01*
X61009Y-72690D01*
X60855Y-72535D01*
X60855Y-72438D01*
X60858Y-72437D01*
X60937Y-72358D01*
X60979Y-72255D01*
X60980Y-72144D01*
X60937Y-72041D01*
X60858Y-71962D01*
X60755Y-71920D01*
X60644Y-71919D01*
X60541Y-71962D01*
X60462Y-72041D01*
X60420Y-72144D01*
X60419Y-72255D01*
X60462Y-72358D01*
X60541Y-72437D01*
X60545Y-72438D01*
X60545Y-72600D01*
X60556Y-72659D01*
X60590Y-72709D01*
X60745Y-72864D01*
X60745Y-73061D01*
X60741Y-73062D01*
X60662Y-73141D01*
X60620Y-73244D01*
X60619Y-73355D01*
X60662Y-73458D01*
X60741Y-73537D01*
X60745Y-73538D01*
X60745Y-73635D01*
X60335Y-74045D01*
X60180Y-74045D01*
X60180Y-72144D01*
X60137Y-72041D01*
X60058Y-71962D01*
X59955Y-71920D01*
X59844Y-71919D01*
X59741Y-71962D01*
X59662Y-72041D01*
X59620Y-72144D01*
X59619Y-72255D01*
X59662Y-72358D01*
X59741Y-72437D01*
X59745Y-72438D01*
X59745Y-72600D01*
X59745Y-72985D01*
X59540Y-73190D01*
X59335Y-73395D01*
X59206Y-73395D01*
X59168Y-73303D01*
X59046Y-73181D01*
X58886Y-73115D01*
X58713Y-73114D01*
X58553Y-73181D01*
X58431Y-73303D01*
X58365Y-73463D01*
X58364Y-73636D01*
X58431Y-73796D01*
X58553Y-73918D01*
X58713Y-73984D01*
X58886Y-73985D01*
X59046Y-73918D01*
X59168Y-73796D01*
X59206Y-73705D01*
X59400Y-73705D01*
X59459Y-73693D01*
X59459Y-73693D01*
X59509Y-73659D01*
X59759Y-73409D01*
X60009Y-73159D01*
X60043Y-73109D01*
X60043Y-73109D01*
X60055Y-73050D01*
X60055Y-72600D01*
X60055Y-72438D01*
X60058Y-72437D01*
X60137Y-72358D01*
X60179Y-72255D01*
X60180Y-72144D01*
X60180Y-74045D01*
X59850Y-74045D01*
X59790Y-74056D01*
X59740Y-74090D01*
X59740Y-74090D01*
X59740Y-74090D01*
X59435Y-74395D01*
X59206Y-74395D01*
X59168Y-74303D01*
X59046Y-74181D01*
X58886Y-74115D01*
X58713Y-74114D01*
X58553Y-74181D01*
X58431Y-74303D01*
X58365Y-74463D01*
X58364Y-74636D01*
X58431Y-74796D01*
X58553Y-74918D01*
X58713Y-74984D01*
X58886Y-74985D01*
X59046Y-74918D01*
X59168Y-74796D01*
X59206Y-74705D01*
X59500Y-74705D01*
X59559Y-74693D01*
X59559Y-74693D01*
X59609Y-74659D01*
X59914Y-74355D01*
X60149Y-74355D01*
X60140Y-74356D01*
X60090Y-74390D01*
X60090Y-74390D01*
X58990Y-75490D01*
X58956Y-75540D01*
X58945Y-75600D01*
X58945Y-76094D01*
X58379Y-76094D01*
X58340Y-76110D01*
X58311Y-76140D01*
X58295Y-76179D01*
X58294Y-76220D01*
X58294Y-77620D01*
X58310Y-77659D01*
X58340Y-77688D01*
X58379Y-77704D01*
X58420Y-77705D01*
X59820Y-77705D01*
X59859Y-77689D01*
X59888Y-77659D01*
X59904Y-77620D01*
X59905Y-77579D01*
X59905Y-76179D01*
X59889Y-76140D01*
X59859Y-76111D01*
X59820Y-76095D01*
X59779Y-76094D01*
X59255Y-76094D01*
X59255Y-75664D01*
X60144Y-74774D01*
X60144Y-76120D01*
X60160Y-76159D01*
X60190Y-76188D01*
X60229Y-76204D01*
X60270Y-76205D01*
X61471Y-76205D01*
X61476Y-76216D01*
X61534Y-76273D01*
X61609Y-76305D01*
X62103Y-76305D01*
X62155Y-76253D01*
X62155Y-75545D01*
X62147Y-75545D01*
X62147Y-75255D01*
X62155Y-75255D01*
X62155Y-74546D01*
X62103Y-74495D01*
X61609Y-74494D01*
X61534Y-74526D01*
X61476Y-74583D01*
X61471Y-74594D01*
X60724Y-74594D01*
X61409Y-73909D01*
X61409Y-73909D01*
X61409Y-73909D01*
X61443Y-73859D01*
X61443Y-73859D01*
X61452Y-73811D01*
X61455Y-73800D01*
X61454Y-73800D01*
X61455Y-73800D01*
X61455Y-72438D01*
X61458Y-72437D01*
X61537Y-72358D01*
X61538Y-72355D01*
X61600Y-72355D01*
X61659Y-72343D01*
X61659Y-72343D01*
X61709Y-72309D01*
X61951Y-72067D01*
X61920Y-72144D01*
X61919Y-72255D01*
X61962Y-72358D01*
X62041Y-72437D01*
X62045Y-72438D01*
X62045Y-73400D01*
X62045Y-73600D01*
X62056Y-73659D01*
X62090Y-73709D01*
X62875Y-74494D01*
X62496Y-74495D01*
X62445Y-74546D01*
X62445Y-75255D01*
X63103Y-75255D01*
X63155Y-75203D01*
X63155Y-74740D01*
X63155Y-74705D01*
X64193Y-74705D01*
X64231Y-74796D01*
X64353Y-74918D01*
X64513Y-74984D01*
X64686Y-74985D01*
X64846Y-74918D01*
X64968Y-74796D01*
X65034Y-74636D01*
X65035Y-74463D01*
X65035Y-78065D01*
X65005Y-78065D01*
X65005Y-77559D01*
X65005Y-76240D01*
X65004Y-76159D01*
X64973Y-76083D01*
X64915Y-76026D01*
X64840Y-75994D01*
X64296Y-75995D01*
X64245Y-76046D01*
X64245Y-76755D01*
X64953Y-76755D01*
X65005Y-76703D01*
X65005Y-76240D01*
X65005Y-77559D01*
X65005Y-77096D01*
X64953Y-77045D01*
X64245Y-77045D01*
X64245Y-77753D01*
X64296Y-77805D01*
X64840Y-77805D01*
X64915Y-77773D01*
X64973Y-77716D01*
X65004Y-77640D01*
X65005Y-77559D01*
X65005Y-78065D01*
X63955Y-78065D01*
X63955Y-77753D01*
X63955Y-77045D01*
X63955Y-76755D01*
X63955Y-76046D01*
X63903Y-75995D01*
X63359Y-75994D01*
X63284Y-76026D01*
X63226Y-76083D01*
X63195Y-76159D01*
X63194Y-76240D01*
X63195Y-76703D01*
X63246Y-76755D01*
X63955Y-76755D01*
X63955Y-77045D01*
X63246Y-77045D01*
X63195Y-77096D01*
X63194Y-77559D01*
X63195Y-77640D01*
X63226Y-77716D01*
X63284Y-77773D01*
X63359Y-77805D01*
X63903Y-77805D01*
X63955Y-77753D01*
X63955Y-78065D01*
X63155Y-78065D01*
X63155Y-76059D01*
X63155Y-75596D01*
X63103Y-75545D01*
X62445Y-75545D01*
X62445Y-76253D01*
X62496Y-76305D01*
X62990Y-76305D01*
X63065Y-76273D01*
X63123Y-76216D01*
X63154Y-76140D01*
X63155Y-76059D01*
X63155Y-78065D01*
X56902Y-78065D01*
X56684Y-78021D01*
X56500Y-77898D01*
X56405Y-77756D01*
X56405Y-76145D01*
X56410Y-76159D01*
X56440Y-76188D01*
X56479Y-76204D01*
X56520Y-76205D01*
X57920Y-76205D01*
X57959Y-76189D01*
X57988Y-76159D01*
X58004Y-76120D01*
X58005Y-76079D01*
X58005Y-74679D01*
X57989Y-74640D01*
X57959Y-74611D01*
X57920Y-74595D01*
X57879Y-74594D01*
X56479Y-74594D01*
X56440Y-74610D01*
X56411Y-74640D01*
X56405Y-74654D01*
X56405Y-67305D01*
X59575Y-67305D01*
X59290Y-67590D01*
X59256Y-67640D01*
X59245Y-67700D01*
X59245Y-68086D01*
X59241Y-68087D01*
X59162Y-68166D01*
X59120Y-68269D01*
X59119Y-68380D01*
X59162Y-68483D01*
X59241Y-68562D01*
X59344Y-68604D01*
X59455Y-68605D01*
X59558Y-68562D01*
X59637Y-68483D01*
X59679Y-68380D01*
X59680Y-68269D01*
X59637Y-68166D01*
X59558Y-68087D01*
X59555Y-68086D01*
X59555Y-67764D01*
X60014Y-67305D01*
X63385Y-67305D01*
X63845Y-67764D01*
X63845Y-68086D01*
X63841Y-68087D01*
X63762Y-68166D01*
X63720Y-68269D01*
X63719Y-68380D01*
X63762Y-68483D01*
X63841Y-68562D01*
X63944Y-68604D01*
X64055Y-68605D01*
X64158Y-68562D01*
X64237Y-68483D01*
X64279Y-68380D01*
X64280Y-68269D01*
X64237Y-68166D01*
X64158Y-68087D01*
X64155Y-68086D01*
X64155Y-67700D01*
X64154Y-67699D01*
X64155Y-67699D01*
X64152Y-67688D01*
X64143Y-67640D01*
X64143Y-67640D01*
X64109Y-67590D01*
X64109Y-67590D01*
X63824Y-67305D01*
X66795Y-67305D01*
X66795Y-74517D01*
X66740Y-74494D01*
X66196Y-74495D01*
X66145Y-74546D01*
X66145Y-75255D01*
X66152Y-75255D01*
X66152Y-75545D01*
X66145Y-75545D01*
X66145Y-76253D01*
X66196Y-76305D01*
X66740Y-76305D01*
X66795Y-76282D01*
X66795Y-77779D01*
M02*
