G04 (created by PCBNEW (2013-june-11)-stable) date Sun 31 Aug 2014 07:05:34 PM PDT*
%MOIN*%
G04 Gerber Fmt 3.4, Leading zero omitted, Abs format*
%FSLAX34Y34*%
G01*
G70*
G90*
G04 APERTURE LIST*
%ADD10C,0.00590551*%
%ADD11C,0.0590551*%
%ADD12C,0.035*%
%ADD13C,0.01*%
G04 APERTURE END LIST*
G54D10*
G54D11*
X63800Y-69800D03*
X58000Y-69800D03*
X63853Y-71446D03*
X63146Y-72153D03*
X57946Y-71446D03*
X58653Y-72153D03*
G54D12*
X60900Y-71600D03*
X62575Y-71575D03*
X60000Y-69400D03*
X60000Y-70500D03*
G54D13*
X60900Y-71600D02*
X60900Y-72000D01*
X60900Y-72000D02*
X61053Y-72153D01*
X61053Y-72153D02*
X63146Y-72153D01*
X57946Y-71446D02*
X58403Y-71446D01*
X60000Y-70850D02*
X60000Y-70500D01*
X59650Y-71200D02*
X60000Y-70850D01*
X59200Y-71200D02*
X59650Y-71200D01*
X58650Y-71200D02*
X59200Y-71200D01*
X58403Y-71446D02*
X58650Y-71200D01*
X62575Y-70875D02*
X62575Y-71575D01*
X62200Y-70500D02*
X62575Y-70875D01*
X60000Y-70500D02*
X62200Y-70500D01*
X63853Y-71446D02*
X63253Y-71446D01*
X63253Y-71446D02*
X63125Y-71575D01*
X63125Y-71575D02*
X62575Y-71575D01*
X60000Y-69400D02*
X60000Y-70500D01*
M02*
