G04 (created by PCBNEW (2013-june-11)-stable) date Fri 10 Oct 2014 02:22:22 PM PDT*
%MOIN*%
G04 Gerber Fmt 3.4, Leading zero omitted, Abs format*
%FSLAX34Y34*%
G01*
G70*
G90*
G04 APERTURE LIST*
%ADD10C,0.00590551*%
%ADD11R,0.0394X0.0276*%
%ADD12R,0.045X0.025*%
%ADD13C,0.0590551*%
%ADD14R,0.0472X0.0472*%
%ADD15C,0.035*%
%ADD16C,0.01*%
%ADD17C,0.006*%
G04 APERTURE END LIST*
G54D10*
G54D11*
X63000Y-68600D03*
X62000Y-68975D03*
X62000Y-68225D03*
X59900Y-68600D03*
X58900Y-68975D03*
X58900Y-68225D03*
X59900Y-71200D03*
X58900Y-71575D03*
X58900Y-70825D03*
X59900Y-69900D03*
X58900Y-70275D03*
X58900Y-69525D03*
X63000Y-69900D03*
X62000Y-70275D03*
X62000Y-69525D03*
X63000Y-71200D03*
X62000Y-71575D03*
X62000Y-70825D03*
G54D12*
X60500Y-70500D03*
X60500Y-71100D03*
X60500Y-69400D03*
X60500Y-70000D03*
X60500Y-68900D03*
X60500Y-68300D03*
X61300Y-70500D03*
X61300Y-71100D03*
X61300Y-70000D03*
X61300Y-69400D03*
X61300Y-68900D03*
X61300Y-68300D03*
G54D13*
X63800Y-69800D03*
X58000Y-69800D03*
G54D14*
X60413Y-72200D03*
X59587Y-72200D03*
X61187Y-72200D03*
X62013Y-72200D03*
G54D13*
X63853Y-71446D03*
X63146Y-72153D03*
X57946Y-71446D03*
X58653Y-72153D03*
G54D15*
X62575Y-71575D03*
X60000Y-69400D03*
X60000Y-70500D03*
G54D16*
X60800Y-70800D02*
X60900Y-70700D01*
X59600Y-70800D02*
X60800Y-70800D01*
X63146Y-72153D02*
X62646Y-72153D01*
X62600Y-72200D02*
X62013Y-72200D01*
X62646Y-72153D02*
X62600Y-72200D01*
X61300Y-69400D02*
X61000Y-69400D01*
X61000Y-69400D02*
X60900Y-69500D01*
X60900Y-69500D02*
X60900Y-70700D01*
X61300Y-68300D02*
X61000Y-68300D01*
X61000Y-68300D02*
X60900Y-68400D01*
X60900Y-68400D02*
X60900Y-69300D01*
X60900Y-69300D02*
X61000Y-69400D01*
X58900Y-71575D02*
X59225Y-71575D01*
X59400Y-71000D02*
X59600Y-70800D01*
X59400Y-71400D02*
X59400Y-71000D01*
X59225Y-71575D02*
X59400Y-71400D01*
X58450Y-68225D02*
X58900Y-68225D01*
X58000Y-68675D02*
X58450Y-68225D01*
X58000Y-69800D02*
X58000Y-68675D01*
X60413Y-72200D02*
X60413Y-71787D01*
X60600Y-71600D02*
X60600Y-71100D01*
X60413Y-71787D02*
X60600Y-71600D01*
X62000Y-68225D02*
X63425Y-68225D01*
X63800Y-68600D02*
X63800Y-69800D01*
X63425Y-68225D02*
X63800Y-68600D01*
X61300Y-68900D02*
X61300Y-68700D01*
X61400Y-68600D02*
X63000Y-68600D01*
X61300Y-68700D02*
X61400Y-68600D01*
X61300Y-70000D02*
X61600Y-70000D01*
X61700Y-69900D02*
X63000Y-69900D01*
X61600Y-70000D02*
X61700Y-69900D01*
X61300Y-70500D02*
X61580Y-70500D01*
X61580Y-70500D02*
X61670Y-70590D01*
X61670Y-70590D02*
X61670Y-71080D01*
X61670Y-71080D02*
X61790Y-71200D01*
X61790Y-71200D02*
X63000Y-71200D01*
X62000Y-68975D02*
X62000Y-69525D01*
X62000Y-70275D02*
X62000Y-70825D01*
X59900Y-69900D02*
X60200Y-69900D01*
X60300Y-70000D02*
X60500Y-70000D01*
X60200Y-69900D02*
X60300Y-70000D01*
X58900Y-70275D02*
X58900Y-70825D01*
X58900Y-68975D02*
X58900Y-69525D01*
X59900Y-68600D02*
X60400Y-68600D01*
X60500Y-68500D02*
X60500Y-68300D01*
X60400Y-68600D02*
X60500Y-68500D01*
X61187Y-72200D02*
X61187Y-71613D01*
X61300Y-71500D02*
X61300Y-71100D01*
X61187Y-71613D02*
X61300Y-71500D01*
X59587Y-72200D02*
X59587Y-71813D01*
X59900Y-71500D02*
X59900Y-71200D01*
X59587Y-71813D02*
X59900Y-71500D01*
X62575Y-71575D02*
X62000Y-71575D01*
X60000Y-69400D02*
X60500Y-69400D01*
X60600Y-70500D02*
X60000Y-70500D01*
X60500Y-68900D02*
X60500Y-69400D01*
G54D10*
G36*
X64290Y-71694D02*
X64272Y-71872D01*
X64238Y-71985D01*
X64238Y-71408D01*
X64224Y-71334D01*
X64195Y-71264D01*
X64185Y-71249D01*
X64185Y-69762D01*
X64170Y-69688D01*
X64141Y-69618D01*
X64100Y-69555D01*
X64046Y-69501D01*
X63984Y-69459D01*
X63940Y-69440D01*
X63940Y-68600D01*
X63938Y-68587D01*
X63937Y-68574D01*
X63937Y-68573D01*
X63937Y-68572D01*
X63933Y-68560D01*
X63929Y-68548D01*
X63929Y-68547D01*
X63929Y-68546D01*
X63923Y-68535D01*
X63917Y-68523D01*
X63916Y-68523D01*
X63916Y-68522D01*
X63908Y-68512D01*
X63900Y-68502D01*
X63899Y-68501D01*
X63899Y-68501D01*
X63899Y-68501D01*
X63898Y-68501D01*
X63523Y-68126D01*
X63513Y-68117D01*
X63504Y-68109D01*
X63503Y-68109D01*
X63502Y-68108D01*
X63491Y-68102D01*
X63480Y-68096D01*
X63479Y-68096D01*
X63478Y-68095D01*
X63466Y-68091D01*
X63454Y-68088D01*
X63453Y-68087D01*
X63452Y-68087D01*
X63439Y-68086D01*
X63426Y-68085D01*
X63425Y-68085D01*
X63425Y-68085D01*
X63425Y-68085D01*
X63425Y-68085D01*
X62287Y-68085D01*
X62287Y-68078D01*
X62283Y-68060D01*
X62276Y-68044D01*
X62267Y-68029D01*
X62254Y-68017D01*
X62240Y-68007D01*
X62223Y-68000D01*
X62206Y-67997D01*
X62188Y-67996D01*
X61794Y-67996D01*
X61776Y-68000D01*
X61760Y-68007D01*
X61745Y-68016D01*
X61733Y-68029D01*
X61723Y-68043D01*
X61719Y-68052D01*
X61704Y-68028D01*
X61672Y-67996D01*
X61634Y-67971D01*
X61593Y-67954D01*
X61549Y-67945D01*
X61504Y-67944D01*
X61386Y-67945D01*
X61329Y-68002D01*
X61329Y-68270D01*
X61336Y-68270D01*
X61336Y-68329D01*
X61329Y-68329D01*
X61329Y-68336D01*
X61270Y-68336D01*
X61270Y-68329D01*
X61270Y-68270D01*
X61270Y-68002D01*
X61213Y-67945D01*
X61095Y-67944D01*
X61050Y-67945D01*
X61006Y-67954D01*
X60965Y-67971D01*
X60927Y-67996D01*
X60895Y-68028D01*
X60870Y-68066D01*
X60853Y-68108D01*
X60844Y-68152D01*
X60845Y-68213D01*
X60902Y-68270D01*
X61270Y-68270D01*
X61270Y-68329D01*
X60902Y-68329D01*
X60845Y-68386D01*
X60844Y-68447D01*
X60853Y-68491D01*
X60870Y-68533D01*
X60895Y-68571D01*
X60927Y-68603D01*
X60965Y-68628D01*
X61006Y-68645D01*
X61050Y-68654D01*
X61095Y-68655D01*
X61168Y-68655D01*
X61166Y-68658D01*
X61163Y-68670D01*
X61162Y-68671D01*
X61162Y-68672D01*
X61161Y-68684D01*
X61066Y-68684D01*
X61048Y-68688D01*
X61032Y-68695D01*
X61017Y-68704D01*
X61005Y-68717D01*
X60995Y-68731D01*
X60988Y-68748D01*
X60985Y-68765D01*
X60984Y-68783D01*
X60984Y-69033D01*
X60988Y-69051D01*
X60992Y-69060D01*
X60965Y-69071D01*
X60927Y-69096D01*
X60895Y-69128D01*
X60870Y-69166D01*
X60853Y-69208D01*
X60844Y-69252D01*
X60845Y-69313D01*
X60902Y-69370D01*
X61270Y-69370D01*
X61270Y-69363D01*
X61329Y-69363D01*
X61329Y-69370D01*
X61336Y-69370D01*
X61336Y-69429D01*
X61329Y-69429D01*
X61329Y-69697D01*
X61386Y-69755D01*
X61504Y-69755D01*
X61549Y-69754D01*
X61593Y-69745D01*
X61634Y-69728D01*
X61672Y-69703D01*
X61704Y-69671D01*
X61712Y-69657D01*
X61712Y-69671D01*
X61716Y-69689D01*
X61723Y-69705D01*
X61732Y-69720D01*
X61745Y-69732D01*
X61759Y-69742D01*
X61776Y-69749D01*
X61793Y-69752D01*
X61811Y-69753D01*
X62205Y-69753D01*
X62223Y-69749D01*
X62239Y-69742D01*
X62254Y-69733D01*
X62266Y-69720D01*
X62276Y-69706D01*
X62283Y-69689D01*
X62286Y-69672D01*
X62287Y-69654D01*
X62287Y-69378D01*
X62283Y-69360D01*
X62276Y-69344D01*
X62267Y-69329D01*
X62254Y-69317D01*
X62240Y-69307D01*
X62223Y-69300D01*
X62206Y-69297D01*
X62188Y-69296D01*
X62140Y-69296D01*
X62140Y-69203D01*
X62205Y-69203D01*
X62223Y-69199D01*
X62239Y-69192D01*
X62254Y-69183D01*
X62266Y-69170D01*
X62276Y-69156D01*
X62283Y-69139D01*
X62286Y-69122D01*
X62287Y-69104D01*
X62287Y-68828D01*
X62283Y-68810D01*
X62276Y-68794D01*
X62267Y-68779D01*
X62254Y-68767D01*
X62240Y-68757D01*
X62223Y-68750D01*
X62206Y-68747D01*
X62188Y-68746D01*
X61794Y-68746D01*
X61776Y-68750D01*
X61760Y-68757D01*
X61745Y-68766D01*
X61733Y-68779D01*
X61723Y-68793D01*
X61716Y-68810D01*
X61713Y-68827D01*
X61712Y-68845D01*
X61712Y-69121D01*
X61716Y-69139D01*
X61723Y-69155D01*
X61732Y-69170D01*
X61745Y-69182D01*
X61759Y-69192D01*
X61776Y-69199D01*
X61793Y-69202D01*
X61811Y-69203D01*
X61860Y-69203D01*
X61860Y-69296D01*
X61794Y-69296D01*
X61776Y-69300D01*
X61760Y-69307D01*
X61755Y-69310D01*
X61755Y-69252D01*
X61746Y-69208D01*
X61729Y-69166D01*
X61704Y-69128D01*
X61672Y-69096D01*
X61634Y-69071D01*
X61607Y-69060D01*
X61611Y-69051D01*
X61614Y-69034D01*
X61615Y-69016D01*
X61615Y-68766D01*
X61611Y-68748D01*
X61607Y-68740D01*
X62712Y-68740D01*
X62712Y-68746D01*
X62716Y-68764D01*
X62723Y-68780D01*
X62732Y-68795D01*
X62745Y-68807D01*
X62759Y-68817D01*
X62776Y-68824D01*
X62793Y-68827D01*
X62811Y-68828D01*
X63205Y-68828D01*
X63223Y-68824D01*
X63239Y-68817D01*
X63254Y-68808D01*
X63266Y-68795D01*
X63276Y-68781D01*
X63283Y-68764D01*
X63286Y-68747D01*
X63287Y-68729D01*
X63287Y-68453D01*
X63283Y-68435D01*
X63276Y-68419D01*
X63267Y-68404D01*
X63254Y-68392D01*
X63240Y-68382D01*
X63223Y-68375D01*
X63206Y-68372D01*
X63188Y-68371D01*
X62794Y-68371D01*
X62776Y-68375D01*
X62760Y-68382D01*
X62745Y-68391D01*
X62733Y-68404D01*
X62723Y-68418D01*
X62716Y-68435D01*
X62713Y-68452D01*
X62713Y-68460D01*
X61752Y-68460D01*
X61755Y-68447D01*
X61755Y-68439D01*
X61759Y-68442D01*
X61776Y-68449D01*
X61793Y-68452D01*
X61811Y-68453D01*
X62205Y-68453D01*
X62223Y-68449D01*
X62239Y-68442D01*
X62254Y-68433D01*
X62266Y-68420D01*
X62276Y-68406D01*
X62283Y-68389D01*
X62286Y-68372D01*
X62286Y-68365D01*
X63367Y-68365D01*
X63660Y-68657D01*
X63660Y-69441D01*
X63620Y-69456D01*
X63557Y-69498D01*
X63503Y-69551D01*
X63460Y-69613D01*
X63430Y-69682D01*
X63415Y-69756D01*
X63414Y-69832D01*
X63427Y-69906D01*
X63455Y-69976D01*
X63496Y-70040D01*
X63549Y-70094D01*
X63611Y-70137D01*
X63680Y-70168D01*
X63754Y-70184D01*
X63829Y-70185D01*
X63904Y-70172D01*
X63974Y-70145D01*
X64038Y-70105D01*
X64093Y-70052D01*
X64136Y-69991D01*
X64167Y-69922D01*
X64184Y-69848D01*
X64185Y-69762D01*
X64185Y-71249D01*
X64153Y-71201D01*
X64100Y-71148D01*
X64037Y-71105D01*
X63968Y-71076D01*
X63894Y-71061D01*
X63818Y-71060D01*
X63744Y-71075D01*
X63674Y-71103D01*
X63610Y-71144D01*
X63556Y-71197D01*
X63514Y-71259D01*
X63484Y-71329D01*
X63468Y-71403D01*
X63467Y-71478D01*
X63481Y-71553D01*
X63509Y-71623D01*
X63550Y-71686D01*
X63602Y-71741D01*
X63664Y-71784D01*
X63733Y-71814D01*
X63807Y-71830D01*
X63883Y-71832D01*
X63957Y-71819D01*
X64028Y-71792D01*
X64091Y-71751D01*
X64146Y-71699D01*
X64190Y-71637D01*
X64220Y-71568D01*
X64237Y-71494D01*
X64238Y-71408D01*
X64238Y-71985D01*
X64222Y-72039D01*
X64141Y-72192D01*
X64031Y-72326D01*
X63897Y-72437D01*
X63744Y-72520D01*
X63578Y-72571D01*
X63449Y-72585D01*
X63524Y-72521D01*
X63588Y-72441D01*
X63636Y-72349D01*
X63662Y-72264D01*
X63662Y-72042D01*
X63631Y-71944D01*
X63581Y-71854D01*
X63514Y-71775D01*
X63434Y-71711D01*
X63342Y-71663D01*
X63287Y-71646D01*
X63287Y-71329D01*
X63287Y-70029D01*
X63287Y-69753D01*
X63283Y-69735D01*
X63276Y-69719D01*
X63267Y-69704D01*
X63254Y-69692D01*
X63240Y-69682D01*
X63223Y-69675D01*
X63206Y-69672D01*
X63188Y-69671D01*
X62794Y-69671D01*
X62776Y-69675D01*
X62760Y-69682D01*
X62745Y-69691D01*
X62733Y-69704D01*
X62723Y-69718D01*
X62716Y-69735D01*
X62713Y-69752D01*
X62713Y-69760D01*
X61700Y-69760D01*
X61687Y-69761D01*
X61674Y-69762D01*
X61673Y-69762D01*
X61672Y-69762D01*
X61660Y-69766D01*
X61648Y-69770D01*
X61647Y-69770D01*
X61646Y-69770D01*
X61635Y-69776D01*
X61623Y-69782D01*
X61623Y-69783D01*
X61622Y-69783D01*
X61612Y-69791D01*
X61602Y-69799D01*
X61601Y-69800D01*
X61601Y-69800D01*
X61601Y-69800D01*
X61601Y-69801D01*
X61589Y-69812D01*
X61582Y-69805D01*
X61568Y-69795D01*
X61551Y-69788D01*
X61534Y-69785D01*
X61516Y-69784D01*
X61270Y-69784D01*
X61270Y-69697D01*
X61270Y-69429D01*
X60902Y-69429D01*
X60845Y-69486D01*
X60844Y-69547D01*
X60853Y-69591D01*
X60870Y-69633D01*
X60895Y-69671D01*
X60927Y-69703D01*
X60965Y-69728D01*
X61006Y-69745D01*
X61050Y-69754D01*
X61095Y-69755D01*
X61213Y-69755D01*
X61270Y-69697D01*
X61270Y-69784D01*
X61066Y-69784D01*
X61048Y-69788D01*
X61032Y-69795D01*
X61017Y-69804D01*
X61005Y-69817D01*
X60995Y-69831D01*
X60988Y-69848D01*
X60985Y-69865D01*
X60984Y-69883D01*
X60984Y-70133D01*
X60988Y-70151D01*
X60995Y-70167D01*
X61004Y-70182D01*
X61017Y-70194D01*
X61031Y-70204D01*
X61048Y-70211D01*
X61065Y-70214D01*
X61083Y-70215D01*
X61533Y-70215D01*
X61551Y-70211D01*
X61567Y-70204D01*
X61582Y-70195D01*
X61594Y-70182D01*
X61604Y-70168D01*
X61611Y-70151D01*
X61614Y-70138D01*
X61625Y-70137D01*
X61626Y-70137D01*
X61627Y-70137D01*
X61639Y-70133D01*
X61651Y-70129D01*
X61652Y-70129D01*
X61653Y-70129D01*
X61664Y-70123D01*
X61676Y-70117D01*
X61676Y-70116D01*
X61677Y-70116D01*
X61687Y-70108D01*
X61697Y-70100D01*
X61698Y-70099D01*
X61698Y-70099D01*
X61698Y-70099D01*
X61698Y-70098D01*
X61757Y-70040D01*
X62712Y-70040D01*
X62712Y-70046D01*
X62716Y-70064D01*
X62723Y-70080D01*
X62732Y-70095D01*
X62745Y-70107D01*
X62759Y-70117D01*
X62776Y-70124D01*
X62793Y-70127D01*
X62811Y-70128D01*
X63205Y-70128D01*
X63223Y-70124D01*
X63239Y-70117D01*
X63254Y-70108D01*
X63266Y-70095D01*
X63276Y-70081D01*
X63283Y-70064D01*
X63286Y-70047D01*
X63287Y-70029D01*
X63287Y-71329D01*
X63287Y-71053D01*
X63283Y-71035D01*
X63276Y-71019D01*
X63267Y-71004D01*
X63254Y-70992D01*
X63240Y-70982D01*
X63223Y-70975D01*
X63206Y-70972D01*
X63188Y-70971D01*
X62794Y-70971D01*
X62776Y-70975D01*
X62760Y-70982D01*
X62745Y-70991D01*
X62733Y-71004D01*
X62723Y-71018D01*
X62716Y-71035D01*
X62713Y-71052D01*
X62713Y-71060D01*
X61847Y-71060D01*
X61841Y-71053D01*
X62205Y-71053D01*
X62223Y-71049D01*
X62239Y-71042D01*
X62254Y-71033D01*
X62266Y-71020D01*
X62276Y-71006D01*
X62283Y-70989D01*
X62286Y-70972D01*
X62287Y-70954D01*
X62287Y-70678D01*
X62283Y-70660D01*
X62276Y-70644D01*
X62267Y-70629D01*
X62254Y-70617D01*
X62240Y-70607D01*
X62223Y-70600D01*
X62206Y-70597D01*
X62188Y-70596D01*
X62140Y-70596D01*
X62140Y-70503D01*
X62205Y-70503D01*
X62223Y-70499D01*
X62239Y-70492D01*
X62254Y-70483D01*
X62266Y-70470D01*
X62276Y-70456D01*
X62283Y-70439D01*
X62286Y-70422D01*
X62287Y-70404D01*
X62287Y-70128D01*
X62283Y-70110D01*
X62276Y-70094D01*
X62267Y-70079D01*
X62254Y-70067D01*
X62240Y-70057D01*
X62223Y-70050D01*
X62206Y-70047D01*
X62188Y-70046D01*
X61794Y-70046D01*
X61776Y-70050D01*
X61760Y-70057D01*
X61745Y-70066D01*
X61733Y-70079D01*
X61723Y-70093D01*
X61716Y-70110D01*
X61713Y-70127D01*
X61712Y-70145D01*
X61712Y-70421D01*
X61716Y-70438D01*
X61678Y-70401D01*
X61668Y-70392D01*
X61659Y-70384D01*
X61658Y-70384D01*
X61657Y-70383D01*
X61646Y-70377D01*
X61635Y-70371D01*
X61634Y-70371D01*
X61633Y-70370D01*
X61621Y-70366D01*
X61614Y-70364D01*
X61611Y-70348D01*
X61604Y-70332D01*
X61595Y-70317D01*
X61582Y-70305D01*
X61568Y-70295D01*
X61551Y-70288D01*
X61534Y-70285D01*
X61516Y-70284D01*
X61066Y-70284D01*
X61048Y-70288D01*
X61032Y-70295D01*
X61017Y-70304D01*
X61005Y-70317D01*
X60995Y-70331D01*
X60988Y-70348D01*
X60985Y-70365D01*
X60984Y-70383D01*
X60984Y-70633D01*
X60988Y-70651D01*
X60995Y-70667D01*
X61004Y-70682D01*
X61017Y-70694D01*
X61031Y-70704D01*
X61048Y-70711D01*
X61065Y-70714D01*
X61083Y-70715D01*
X61530Y-70715D01*
X61530Y-70885D01*
X61516Y-70884D01*
X61066Y-70884D01*
X61048Y-70888D01*
X61032Y-70895D01*
X61017Y-70904D01*
X61005Y-70917D01*
X60995Y-70931D01*
X60988Y-70948D01*
X60985Y-70965D01*
X60984Y-70983D01*
X60984Y-71233D01*
X60988Y-71251D01*
X60995Y-71267D01*
X61004Y-71282D01*
X61017Y-71294D01*
X61031Y-71304D01*
X61048Y-71311D01*
X61065Y-71314D01*
X61083Y-71315D01*
X61160Y-71315D01*
X61160Y-71442D01*
X61088Y-71514D01*
X61079Y-71524D01*
X61071Y-71533D01*
X61071Y-71534D01*
X61070Y-71535D01*
X61064Y-71546D01*
X61058Y-71557D01*
X61058Y-71558D01*
X61057Y-71559D01*
X61053Y-71571D01*
X61050Y-71583D01*
X61049Y-71584D01*
X61049Y-71585D01*
X61048Y-71598D01*
X61047Y-71611D01*
X61047Y-71612D01*
X61047Y-71612D01*
X61047Y-71612D01*
X61047Y-71613D01*
X61047Y-71873D01*
X60942Y-71873D01*
X60924Y-71877D01*
X60908Y-71884D01*
X60893Y-71893D01*
X60881Y-71906D01*
X60871Y-71920D01*
X60864Y-71937D01*
X60861Y-71954D01*
X60860Y-71972D01*
X60860Y-72444D01*
X60864Y-72462D01*
X60871Y-72478D01*
X60880Y-72493D01*
X60893Y-72505D01*
X60907Y-72515D01*
X60924Y-72522D01*
X60941Y-72525D01*
X60959Y-72526D01*
X61431Y-72526D01*
X61449Y-72522D01*
X61465Y-72515D01*
X61480Y-72506D01*
X61492Y-72493D01*
X61502Y-72479D01*
X61509Y-72462D01*
X61512Y-72445D01*
X61513Y-72427D01*
X61513Y-71955D01*
X61509Y-71937D01*
X61502Y-71921D01*
X61493Y-71906D01*
X61480Y-71894D01*
X61466Y-71884D01*
X61449Y-71877D01*
X61432Y-71874D01*
X61414Y-71873D01*
X61327Y-71873D01*
X61327Y-71670D01*
X61398Y-71598D01*
X61407Y-71588D01*
X61415Y-71579D01*
X61415Y-71578D01*
X61416Y-71577D01*
X61422Y-71566D01*
X61428Y-71555D01*
X61428Y-71554D01*
X61429Y-71553D01*
X61433Y-71541D01*
X61436Y-71529D01*
X61437Y-71528D01*
X61437Y-71527D01*
X61438Y-71514D01*
X61439Y-71501D01*
X61439Y-71500D01*
X61439Y-71500D01*
X61439Y-71500D01*
X61440Y-71500D01*
X61440Y-71315D01*
X61533Y-71315D01*
X61551Y-71311D01*
X61567Y-71304D01*
X61582Y-71295D01*
X61594Y-71282D01*
X61604Y-71268D01*
X61611Y-71251D01*
X61614Y-71234D01*
X61615Y-71223D01*
X61691Y-71298D01*
X61701Y-71307D01*
X61710Y-71315D01*
X61711Y-71315D01*
X61712Y-71316D01*
X61723Y-71322D01*
X61734Y-71328D01*
X61735Y-71328D01*
X61736Y-71329D01*
X61748Y-71333D01*
X61760Y-71336D01*
X61761Y-71337D01*
X61762Y-71337D01*
X61775Y-71338D01*
X61788Y-71339D01*
X61789Y-71339D01*
X61789Y-71339D01*
X61789Y-71339D01*
X61790Y-71340D01*
X62450Y-71340D01*
X62408Y-71367D01*
X62371Y-71403D01*
X62349Y-71435D01*
X62287Y-71435D01*
X62287Y-71428D01*
X62283Y-71410D01*
X62276Y-71394D01*
X62267Y-71379D01*
X62254Y-71367D01*
X62240Y-71357D01*
X62223Y-71350D01*
X62206Y-71347D01*
X62188Y-71346D01*
X61794Y-71346D01*
X61776Y-71350D01*
X61760Y-71357D01*
X61745Y-71366D01*
X61733Y-71379D01*
X61723Y-71393D01*
X61716Y-71410D01*
X61713Y-71427D01*
X61712Y-71445D01*
X61712Y-71721D01*
X61716Y-71739D01*
X61717Y-71741D01*
X61710Y-71742D01*
X61668Y-71759D01*
X61630Y-71784D01*
X61598Y-71816D01*
X61573Y-71854D01*
X61556Y-71895D01*
X61547Y-71939D01*
X61546Y-71984D01*
X61547Y-72113D01*
X61604Y-72170D01*
X61983Y-72170D01*
X61983Y-72163D01*
X62042Y-72163D01*
X62042Y-72170D01*
X62421Y-72170D01*
X62479Y-72113D01*
X62479Y-71984D01*
X62478Y-71939D01*
X62469Y-71895D01*
X62452Y-71854D01*
X62427Y-71816D01*
X62395Y-71784D01*
X62357Y-71759D01*
X62315Y-71742D01*
X62284Y-71736D01*
X62286Y-71722D01*
X62286Y-71715D01*
X62349Y-71715D01*
X62366Y-71740D01*
X62402Y-71777D01*
X62445Y-71807D01*
X62492Y-71828D01*
X62543Y-71839D01*
X62595Y-71840D01*
X62646Y-71831D01*
X62695Y-71812D01*
X62738Y-71784D01*
X62776Y-71748D01*
X62806Y-71706D01*
X62827Y-71659D01*
X62839Y-71608D01*
X62840Y-71549D01*
X62829Y-71498D01*
X62810Y-71449D01*
X62795Y-71427D01*
X62811Y-71428D01*
X63205Y-71428D01*
X63223Y-71424D01*
X63239Y-71417D01*
X63254Y-71408D01*
X63266Y-71395D01*
X63276Y-71381D01*
X63283Y-71364D01*
X63286Y-71347D01*
X63287Y-71329D01*
X63287Y-71646D01*
X63257Y-71637D01*
X63175Y-71684D01*
X63175Y-72124D01*
X63615Y-72124D01*
X63662Y-72042D01*
X63662Y-72264D01*
X63615Y-72182D01*
X63175Y-72182D01*
X63175Y-72590D01*
X63117Y-72590D01*
X63117Y-72182D01*
X63117Y-72124D01*
X63117Y-71684D01*
X63035Y-71637D01*
X62937Y-71668D01*
X62847Y-71718D01*
X62768Y-71785D01*
X62704Y-71865D01*
X62656Y-71957D01*
X62630Y-72042D01*
X62677Y-72124D01*
X63117Y-72124D01*
X63117Y-72182D01*
X62677Y-72182D01*
X62630Y-72264D01*
X62661Y-72362D01*
X62711Y-72452D01*
X62778Y-72531D01*
X62851Y-72590D01*
X62420Y-72590D01*
X62427Y-72583D01*
X62452Y-72545D01*
X62469Y-72504D01*
X62478Y-72460D01*
X62479Y-72415D01*
X62479Y-72286D01*
X62421Y-72229D01*
X62042Y-72229D01*
X62042Y-72236D01*
X61983Y-72236D01*
X61983Y-72229D01*
X61604Y-72229D01*
X61547Y-72286D01*
X61546Y-72415D01*
X61547Y-72460D01*
X61556Y-72504D01*
X61573Y-72545D01*
X61598Y-72583D01*
X61605Y-72590D01*
X60815Y-72590D01*
X60815Y-71216D01*
X60815Y-70616D01*
X60815Y-70116D01*
X60815Y-69516D01*
X60815Y-69266D01*
X60811Y-69248D01*
X60804Y-69232D01*
X60795Y-69217D01*
X60782Y-69205D01*
X60768Y-69195D01*
X60751Y-69188D01*
X60734Y-69185D01*
X60716Y-69184D01*
X60640Y-69184D01*
X60640Y-69115D01*
X60733Y-69115D01*
X60751Y-69111D01*
X60767Y-69104D01*
X60782Y-69095D01*
X60794Y-69082D01*
X60804Y-69068D01*
X60811Y-69051D01*
X60814Y-69034D01*
X60815Y-69016D01*
X60815Y-68766D01*
X60811Y-68748D01*
X60804Y-68732D01*
X60795Y-68717D01*
X60782Y-68705D01*
X60768Y-68695D01*
X60751Y-68688D01*
X60734Y-68685D01*
X60716Y-68684D01*
X60513Y-68684D01*
X60598Y-68598D01*
X60607Y-68588D01*
X60615Y-68579D01*
X60615Y-68578D01*
X60616Y-68577D01*
X60622Y-68566D01*
X60628Y-68555D01*
X60628Y-68554D01*
X60629Y-68553D01*
X60633Y-68541D01*
X60636Y-68529D01*
X60637Y-68528D01*
X60637Y-68527D01*
X60638Y-68515D01*
X60733Y-68515D01*
X60751Y-68511D01*
X60767Y-68504D01*
X60782Y-68495D01*
X60794Y-68482D01*
X60804Y-68468D01*
X60811Y-68451D01*
X60814Y-68434D01*
X60815Y-68416D01*
X60815Y-68166D01*
X60811Y-68148D01*
X60804Y-68132D01*
X60795Y-68117D01*
X60782Y-68105D01*
X60768Y-68095D01*
X60751Y-68088D01*
X60734Y-68085D01*
X60716Y-68084D01*
X60266Y-68084D01*
X60248Y-68088D01*
X60232Y-68095D01*
X60217Y-68104D01*
X60205Y-68117D01*
X60195Y-68131D01*
X60188Y-68148D01*
X60185Y-68165D01*
X60184Y-68183D01*
X60184Y-68433D01*
X60188Y-68451D01*
X60192Y-68460D01*
X60187Y-68460D01*
X60187Y-68453D01*
X60183Y-68435D01*
X60176Y-68419D01*
X60167Y-68404D01*
X60154Y-68392D01*
X60140Y-68382D01*
X60123Y-68375D01*
X60106Y-68372D01*
X60088Y-68371D01*
X59694Y-68371D01*
X59676Y-68375D01*
X59660Y-68382D01*
X59645Y-68391D01*
X59633Y-68404D01*
X59623Y-68418D01*
X59616Y-68435D01*
X59613Y-68452D01*
X59612Y-68470D01*
X59612Y-68746D01*
X59616Y-68764D01*
X59623Y-68780D01*
X59632Y-68795D01*
X59645Y-68807D01*
X59659Y-68817D01*
X59676Y-68824D01*
X59693Y-68827D01*
X59711Y-68828D01*
X60105Y-68828D01*
X60123Y-68824D01*
X60139Y-68817D01*
X60154Y-68808D01*
X60166Y-68795D01*
X60176Y-68781D01*
X60183Y-68764D01*
X60186Y-68747D01*
X60186Y-68740D01*
X60192Y-68740D01*
X60188Y-68748D01*
X60185Y-68765D01*
X60184Y-68783D01*
X60184Y-69033D01*
X60188Y-69051D01*
X60195Y-69067D01*
X60204Y-69082D01*
X60217Y-69094D01*
X60231Y-69104D01*
X60248Y-69111D01*
X60265Y-69114D01*
X60283Y-69115D01*
X60360Y-69115D01*
X60360Y-69184D01*
X60266Y-69184D01*
X60248Y-69188D01*
X60232Y-69195D01*
X60217Y-69204D01*
X60205Y-69217D01*
X60199Y-69225D01*
X60169Y-69194D01*
X60126Y-69165D01*
X60078Y-69145D01*
X60027Y-69135D01*
X59975Y-69134D01*
X59924Y-69144D01*
X59876Y-69164D01*
X59833Y-69192D01*
X59796Y-69228D01*
X59766Y-69271D01*
X59746Y-69319D01*
X59735Y-69370D01*
X59734Y-69422D01*
X59744Y-69473D01*
X59763Y-69521D01*
X59791Y-69565D01*
X59827Y-69602D01*
X59870Y-69632D01*
X59917Y-69653D01*
X59968Y-69664D01*
X60020Y-69665D01*
X60071Y-69656D01*
X60120Y-69637D01*
X60163Y-69609D01*
X60200Y-69575D01*
X60204Y-69582D01*
X60217Y-69594D01*
X60231Y-69604D01*
X60248Y-69611D01*
X60265Y-69614D01*
X60283Y-69615D01*
X60733Y-69615D01*
X60751Y-69611D01*
X60767Y-69604D01*
X60782Y-69595D01*
X60794Y-69582D01*
X60804Y-69568D01*
X60811Y-69551D01*
X60814Y-69534D01*
X60815Y-69516D01*
X60815Y-70116D01*
X60815Y-69866D01*
X60811Y-69848D01*
X60804Y-69832D01*
X60795Y-69817D01*
X60782Y-69805D01*
X60768Y-69795D01*
X60751Y-69788D01*
X60734Y-69785D01*
X60716Y-69784D01*
X60279Y-69784D01*
X60279Y-69784D01*
X60278Y-69784D01*
X60277Y-69783D01*
X60266Y-69777D01*
X60255Y-69771D01*
X60254Y-69771D01*
X60253Y-69770D01*
X60241Y-69766D01*
X60229Y-69763D01*
X60228Y-69762D01*
X60227Y-69762D01*
X60214Y-69761D01*
X60201Y-69760D01*
X60200Y-69760D01*
X60200Y-69760D01*
X60200Y-69760D01*
X60200Y-69760D01*
X60187Y-69760D01*
X60187Y-69753D01*
X60183Y-69735D01*
X60176Y-69719D01*
X60167Y-69704D01*
X60154Y-69692D01*
X60140Y-69682D01*
X60123Y-69675D01*
X60106Y-69672D01*
X60088Y-69671D01*
X59694Y-69671D01*
X59676Y-69675D01*
X59660Y-69682D01*
X59645Y-69691D01*
X59633Y-69704D01*
X59623Y-69718D01*
X59616Y-69735D01*
X59613Y-69752D01*
X59612Y-69770D01*
X59612Y-70046D01*
X59616Y-70064D01*
X59623Y-70080D01*
X59632Y-70095D01*
X59645Y-70107D01*
X59659Y-70117D01*
X59676Y-70124D01*
X59693Y-70127D01*
X59711Y-70128D01*
X60105Y-70128D01*
X60123Y-70124D01*
X60139Y-70117D01*
X60154Y-70108D01*
X60166Y-70095D01*
X60176Y-70081D01*
X60178Y-70076D01*
X60184Y-70082D01*
X60184Y-70133D01*
X60188Y-70151D01*
X60195Y-70167D01*
X60204Y-70182D01*
X60217Y-70194D01*
X60231Y-70204D01*
X60248Y-70211D01*
X60265Y-70214D01*
X60283Y-70215D01*
X60733Y-70215D01*
X60751Y-70211D01*
X60767Y-70204D01*
X60782Y-70195D01*
X60794Y-70182D01*
X60804Y-70168D01*
X60811Y-70151D01*
X60814Y-70134D01*
X60815Y-70116D01*
X60815Y-70616D01*
X60815Y-70366D01*
X60811Y-70348D01*
X60804Y-70332D01*
X60795Y-70317D01*
X60782Y-70305D01*
X60768Y-70295D01*
X60751Y-70288D01*
X60734Y-70285D01*
X60716Y-70284D01*
X60266Y-70284D01*
X60248Y-70288D01*
X60232Y-70295D01*
X60217Y-70304D01*
X60205Y-70317D01*
X60199Y-70325D01*
X60169Y-70294D01*
X60126Y-70265D01*
X60078Y-70245D01*
X60027Y-70235D01*
X59975Y-70234D01*
X59924Y-70244D01*
X59876Y-70264D01*
X59833Y-70292D01*
X59796Y-70328D01*
X59766Y-70371D01*
X59746Y-70419D01*
X59735Y-70470D01*
X59734Y-70522D01*
X59744Y-70573D01*
X59763Y-70621D01*
X59791Y-70665D01*
X59827Y-70702D01*
X59870Y-70732D01*
X59917Y-70753D01*
X59968Y-70764D01*
X60020Y-70765D01*
X60071Y-70756D01*
X60120Y-70737D01*
X60163Y-70709D01*
X60200Y-70675D01*
X60204Y-70682D01*
X60217Y-70694D01*
X60231Y-70704D01*
X60248Y-70711D01*
X60265Y-70714D01*
X60283Y-70715D01*
X60733Y-70715D01*
X60751Y-70711D01*
X60767Y-70704D01*
X60782Y-70695D01*
X60794Y-70682D01*
X60804Y-70668D01*
X60811Y-70651D01*
X60814Y-70634D01*
X60815Y-70616D01*
X60815Y-71216D01*
X60815Y-70966D01*
X60811Y-70948D01*
X60804Y-70932D01*
X60795Y-70917D01*
X60782Y-70905D01*
X60768Y-70895D01*
X60751Y-70888D01*
X60734Y-70885D01*
X60716Y-70884D01*
X60266Y-70884D01*
X60248Y-70888D01*
X60232Y-70895D01*
X60217Y-70904D01*
X60205Y-70917D01*
X60195Y-70931D01*
X60188Y-70948D01*
X60185Y-70965D01*
X60184Y-70983D01*
X60184Y-71042D01*
X60183Y-71035D01*
X60176Y-71019D01*
X60167Y-71004D01*
X60154Y-70992D01*
X60140Y-70982D01*
X60123Y-70975D01*
X60106Y-70972D01*
X60088Y-70971D01*
X59694Y-70971D01*
X59676Y-70975D01*
X59660Y-70982D01*
X59645Y-70991D01*
X59633Y-71004D01*
X59623Y-71018D01*
X59616Y-71035D01*
X59613Y-71052D01*
X59612Y-71070D01*
X59612Y-71346D01*
X59616Y-71364D01*
X59623Y-71380D01*
X59632Y-71395D01*
X59645Y-71407D01*
X59659Y-71417D01*
X59676Y-71424D01*
X59693Y-71427D01*
X59711Y-71428D01*
X59760Y-71428D01*
X59760Y-71442D01*
X59488Y-71714D01*
X59479Y-71724D01*
X59471Y-71733D01*
X59471Y-71734D01*
X59470Y-71735D01*
X59464Y-71746D01*
X59458Y-71757D01*
X59458Y-71758D01*
X59457Y-71759D01*
X59453Y-71771D01*
X59450Y-71783D01*
X59449Y-71784D01*
X59449Y-71785D01*
X59448Y-71798D01*
X59447Y-71811D01*
X59447Y-71812D01*
X59447Y-71812D01*
X59447Y-71812D01*
X59447Y-71813D01*
X59447Y-71873D01*
X59342Y-71873D01*
X59327Y-71876D01*
X59327Y-71735D01*
X59327Y-71414D01*
X59318Y-71370D01*
X59301Y-71328D01*
X59276Y-71290D01*
X59244Y-71258D01*
X59206Y-71233D01*
X59187Y-71225D01*
X59187Y-70954D01*
X59187Y-70678D01*
X59183Y-70660D01*
X59176Y-70644D01*
X59167Y-70629D01*
X59154Y-70617D01*
X59140Y-70607D01*
X59123Y-70600D01*
X59106Y-70597D01*
X59088Y-70596D01*
X59040Y-70596D01*
X59040Y-70503D01*
X59105Y-70503D01*
X59123Y-70499D01*
X59139Y-70492D01*
X59154Y-70483D01*
X59166Y-70470D01*
X59176Y-70456D01*
X59183Y-70439D01*
X59186Y-70422D01*
X59187Y-70404D01*
X59187Y-69654D01*
X59187Y-69378D01*
X59183Y-69360D01*
X59176Y-69344D01*
X59167Y-69329D01*
X59154Y-69317D01*
X59140Y-69307D01*
X59123Y-69300D01*
X59106Y-69297D01*
X59088Y-69296D01*
X59040Y-69296D01*
X59040Y-69203D01*
X59105Y-69203D01*
X59123Y-69199D01*
X59139Y-69192D01*
X59154Y-69183D01*
X59166Y-69170D01*
X59176Y-69156D01*
X59183Y-69139D01*
X59186Y-69122D01*
X59187Y-69104D01*
X59187Y-68354D01*
X59187Y-68078D01*
X59183Y-68060D01*
X59176Y-68044D01*
X59167Y-68029D01*
X59154Y-68017D01*
X59140Y-68007D01*
X59123Y-68000D01*
X59106Y-67997D01*
X59088Y-67996D01*
X58694Y-67996D01*
X58676Y-68000D01*
X58660Y-68007D01*
X58645Y-68016D01*
X58633Y-68029D01*
X58623Y-68043D01*
X58616Y-68060D01*
X58613Y-68077D01*
X58613Y-68085D01*
X58450Y-68085D01*
X58437Y-68086D01*
X58424Y-68087D01*
X58423Y-68087D01*
X58422Y-68087D01*
X58410Y-68091D01*
X58398Y-68095D01*
X58397Y-68095D01*
X58396Y-68095D01*
X58385Y-68101D01*
X58373Y-68107D01*
X58373Y-68108D01*
X58372Y-68108D01*
X58362Y-68116D01*
X58352Y-68124D01*
X58351Y-68125D01*
X58351Y-68125D01*
X58351Y-68125D01*
X58351Y-68126D01*
X57901Y-68576D01*
X57892Y-68586D01*
X57884Y-68595D01*
X57884Y-68596D01*
X57883Y-68597D01*
X57877Y-68608D01*
X57871Y-68619D01*
X57871Y-68620D01*
X57870Y-68621D01*
X57866Y-68633D01*
X57863Y-68645D01*
X57862Y-68646D01*
X57862Y-68647D01*
X57861Y-68660D01*
X57860Y-68673D01*
X57860Y-68674D01*
X57860Y-68674D01*
X57860Y-68674D01*
X57860Y-68675D01*
X57860Y-69441D01*
X57820Y-69456D01*
X57757Y-69498D01*
X57703Y-69551D01*
X57660Y-69613D01*
X57630Y-69682D01*
X57615Y-69756D01*
X57614Y-69832D01*
X57627Y-69906D01*
X57655Y-69976D01*
X57696Y-70040D01*
X57749Y-70094D01*
X57811Y-70137D01*
X57880Y-70168D01*
X57954Y-70184D01*
X58029Y-70185D01*
X58104Y-70172D01*
X58174Y-70145D01*
X58238Y-70105D01*
X58293Y-70052D01*
X58336Y-69991D01*
X58367Y-69922D01*
X58384Y-69848D01*
X58385Y-69762D01*
X58370Y-69688D01*
X58341Y-69618D01*
X58300Y-69555D01*
X58246Y-69501D01*
X58184Y-69459D01*
X58140Y-69440D01*
X58140Y-68732D01*
X58507Y-68365D01*
X58612Y-68365D01*
X58612Y-68371D01*
X58616Y-68389D01*
X58623Y-68405D01*
X58632Y-68420D01*
X58645Y-68432D01*
X58659Y-68442D01*
X58676Y-68449D01*
X58693Y-68452D01*
X58711Y-68453D01*
X59105Y-68453D01*
X59123Y-68449D01*
X59139Y-68442D01*
X59154Y-68433D01*
X59166Y-68420D01*
X59176Y-68406D01*
X59183Y-68389D01*
X59186Y-68372D01*
X59187Y-68354D01*
X59187Y-69104D01*
X59187Y-68828D01*
X59183Y-68810D01*
X59176Y-68794D01*
X59167Y-68779D01*
X59154Y-68767D01*
X59140Y-68757D01*
X59123Y-68750D01*
X59106Y-68747D01*
X59088Y-68746D01*
X58694Y-68746D01*
X58676Y-68750D01*
X58660Y-68757D01*
X58645Y-68766D01*
X58633Y-68779D01*
X58623Y-68793D01*
X58616Y-68810D01*
X58613Y-68827D01*
X58612Y-68845D01*
X58612Y-69121D01*
X58616Y-69139D01*
X58623Y-69155D01*
X58632Y-69170D01*
X58645Y-69182D01*
X58659Y-69192D01*
X58676Y-69199D01*
X58693Y-69202D01*
X58711Y-69203D01*
X58760Y-69203D01*
X58760Y-69296D01*
X58694Y-69296D01*
X58676Y-69300D01*
X58660Y-69307D01*
X58645Y-69316D01*
X58633Y-69329D01*
X58623Y-69343D01*
X58616Y-69360D01*
X58613Y-69377D01*
X58612Y-69395D01*
X58612Y-69671D01*
X58616Y-69689D01*
X58623Y-69705D01*
X58632Y-69720D01*
X58645Y-69732D01*
X58659Y-69742D01*
X58676Y-69749D01*
X58693Y-69752D01*
X58711Y-69753D01*
X59105Y-69753D01*
X59123Y-69749D01*
X59139Y-69742D01*
X59154Y-69733D01*
X59166Y-69720D01*
X59176Y-69706D01*
X59183Y-69689D01*
X59186Y-69672D01*
X59187Y-69654D01*
X59187Y-70404D01*
X59187Y-70128D01*
X59183Y-70110D01*
X59176Y-70094D01*
X59167Y-70079D01*
X59154Y-70067D01*
X59140Y-70057D01*
X59123Y-70050D01*
X59106Y-70047D01*
X59088Y-70046D01*
X58694Y-70046D01*
X58676Y-70050D01*
X58660Y-70057D01*
X58645Y-70066D01*
X58633Y-70079D01*
X58623Y-70093D01*
X58616Y-70110D01*
X58613Y-70127D01*
X58612Y-70145D01*
X58612Y-70421D01*
X58616Y-70439D01*
X58623Y-70455D01*
X58632Y-70470D01*
X58645Y-70482D01*
X58659Y-70492D01*
X58676Y-70499D01*
X58693Y-70502D01*
X58711Y-70503D01*
X58760Y-70503D01*
X58760Y-70596D01*
X58694Y-70596D01*
X58676Y-70600D01*
X58660Y-70607D01*
X58645Y-70616D01*
X58633Y-70629D01*
X58623Y-70643D01*
X58616Y-70660D01*
X58613Y-70677D01*
X58612Y-70695D01*
X58612Y-70971D01*
X58616Y-70989D01*
X58623Y-71005D01*
X58632Y-71020D01*
X58645Y-71032D01*
X58659Y-71042D01*
X58676Y-71049D01*
X58693Y-71052D01*
X58711Y-71053D01*
X59105Y-71053D01*
X59123Y-71049D01*
X59139Y-71042D01*
X59154Y-71033D01*
X59166Y-71020D01*
X59176Y-71006D01*
X59183Y-70989D01*
X59186Y-70972D01*
X59187Y-70954D01*
X59187Y-71225D01*
X59165Y-71216D01*
X59121Y-71207D01*
X59076Y-71206D01*
X58986Y-71207D01*
X58929Y-71264D01*
X58929Y-71545D01*
X59269Y-71545D01*
X59327Y-71488D01*
X59327Y-71414D01*
X59327Y-71735D01*
X59327Y-71661D01*
X59269Y-71604D01*
X58929Y-71604D01*
X58929Y-71611D01*
X58870Y-71611D01*
X58870Y-71604D01*
X58870Y-71545D01*
X58870Y-71264D01*
X58813Y-71207D01*
X58723Y-71206D01*
X58678Y-71207D01*
X58634Y-71216D01*
X58593Y-71233D01*
X58555Y-71258D01*
X58523Y-71290D01*
X58498Y-71328D01*
X58481Y-71370D01*
X58472Y-71414D01*
X58473Y-71488D01*
X58530Y-71545D01*
X58870Y-71545D01*
X58870Y-71604D01*
X58530Y-71604D01*
X58475Y-71658D01*
X58444Y-71668D01*
X58354Y-71718D01*
X58331Y-71737D01*
X58331Y-71408D01*
X58317Y-71334D01*
X58288Y-71264D01*
X58246Y-71201D01*
X58193Y-71148D01*
X58130Y-71105D01*
X58060Y-71076D01*
X57986Y-71061D01*
X57911Y-71060D01*
X57837Y-71075D01*
X57767Y-71103D01*
X57703Y-71144D01*
X57649Y-71197D01*
X57607Y-71259D01*
X57577Y-71329D01*
X57561Y-71403D01*
X57560Y-71478D01*
X57574Y-71553D01*
X57602Y-71623D01*
X57643Y-71686D01*
X57695Y-71741D01*
X57757Y-71784D01*
X57826Y-71814D01*
X57900Y-71830D01*
X57976Y-71832D01*
X58050Y-71819D01*
X58120Y-71792D01*
X58184Y-71751D01*
X58239Y-71699D01*
X58283Y-71637D01*
X58313Y-71568D01*
X58330Y-71494D01*
X58331Y-71408D01*
X58331Y-71737D01*
X58275Y-71785D01*
X58211Y-71865D01*
X58163Y-71957D01*
X58137Y-72042D01*
X58184Y-72124D01*
X58624Y-72124D01*
X58624Y-71929D01*
X58634Y-71933D01*
X58678Y-71942D01*
X58682Y-71942D01*
X58682Y-72083D01*
X58659Y-72106D01*
X58700Y-72147D01*
X58723Y-72124D01*
X59122Y-72124D01*
X59169Y-72042D01*
X59138Y-71944D01*
X59135Y-71939D01*
X59165Y-71933D01*
X59206Y-71916D01*
X59244Y-71891D01*
X59276Y-71859D01*
X59301Y-71821D01*
X59318Y-71779D01*
X59327Y-71735D01*
X59327Y-71876D01*
X59324Y-71877D01*
X59308Y-71884D01*
X59293Y-71893D01*
X59281Y-71906D01*
X59271Y-71920D01*
X59264Y-71937D01*
X59261Y-71954D01*
X59260Y-71972D01*
X59260Y-72444D01*
X59264Y-72462D01*
X59271Y-72478D01*
X59280Y-72493D01*
X59293Y-72505D01*
X59307Y-72515D01*
X59324Y-72522D01*
X59341Y-72525D01*
X59359Y-72526D01*
X59831Y-72526D01*
X59849Y-72522D01*
X59865Y-72515D01*
X59880Y-72506D01*
X59892Y-72493D01*
X59902Y-72479D01*
X59909Y-72462D01*
X59912Y-72445D01*
X59913Y-72427D01*
X59913Y-71955D01*
X59909Y-71937D01*
X59902Y-71921D01*
X59893Y-71906D01*
X59880Y-71894D01*
X59866Y-71884D01*
X59849Y-71877D01*
X59832Y-71874D01*
X59814Y-71873D01*
X59727Y-71873D01*
X59727Y-71870D01*
X59998Y-71598D01*
X60007Y-71588D01*
X60015Y-71579D01*
X60015Y-71578D01*
X60016Y-71577D01*
X60022Y-71566D01*
X60028Y-71555D01*
X60028Y-71554D01*
X60029Y-71553D01*
X60033Y-71541D01*
X60036Y-71529D01*
X60037Y-71528D01*
X60037Y-71527D01*
X60038Y-71514D01*
X60039Y-71501D01*
X60039Y-71500D01*
X60039Y-71500D01*
X60039Y-71500D01*
X60040Y-71500D01*
X60040Y-71428D01*
X60105Y-71428D01*
X60123Y-71424D01*
X60139Y-71417D01*
X60154Y-71408D01*
X60166Y-71395D01*
X60176Y-71381D01*
X60183Y-71364D01*
X60186Y-71347D01*
X60187Y-71329D01*
X60187Y-71244D01*
X60188Y-71251D01*
X60195Y-71267D01*
X60204Y-71282D01*
X60217Y-71294D01*
X60231Y-71304D01*
X60248Y-71311D01*
X60265Y-71314D01*
X60283Y-71315D01*
X60460Y-71315D01*
X60460Y-71542D01*
X60314Y-71688D01*
X60305Y-71698D01*
X60297Y-71707D01*
X60297Y-71708D01*
X60296Y-71709D01*
X60290Y-71720D01*
X60284Y-71731D01*
X60284Y-71732D01*
X60283Y-71733D01*
X60279Y-71745D01*
X60276Y-71757D01*
X60275Y-71758D01*
X60275Y-71759D01*
X60274Y-71772D01*
X60273Y-71785D01*
X60273Y-71786D01*
X60273Y-71786D01*
X60273Y-71786D01*
X60273Y-71787D01*
X60273Y-71873D01*
X60168Y-71873D01*
X60150Y-71877D01*
X60134Y-71884D01*
X60119Y-71893D01*
X60107Y-71906D01*
X60097Y-71920D01*
X60090Y-71937D01*
X60087Y-71954D01*
X60086Y-71972D01*
X60086Y-72444D01*
X60090Y-72462D01*
X60097Y-72478D01*
X60106Y-72493D01*
X60119Y-72505D01*
X60133Y-72515D01*
X60150Y-72522D01*
X60167Y-72525D01*
X60185Y-72526D01*
X60657Y-72526D01*
X60675Y-72522D01*
X60691Y-72515D01*
X60706Y-72506D01*
X60718Y-72493D01*
X60728Y-72479D01*
X60735Y-72462D01*
X60738Y-72445D01*
X60739Y-72427D01*
X60739Y-71955D01*
X60735Y-71937D01*
X60728Y-71921D01*
X60719Y-71906D01*
X60706Y-71894D01*
X60692Y-71884D01*
X60675Y-71877D01*
X60658Y-71874D01*
X60640Y-71873D01*
X60553Y-71873D01*
X60553Y-71844D01*
X60698Y-71698D01*
X60707Y-71688D01*
X60715Y-71679D01*
X60715Y-71678D01*
X60716Y-71677D01*
X60722Y-71666D01*
X60728Y-71655D01*
X60728Y-71654D01*
X60729Y-71653D01*
X60733Y-71641D01*
X60736Y-71629D01*
X60737Y-71628D01*
X60737Y-71627D01*
X60738Y-71614D01*
X60739Y-71601D01*
X60739Y-71600D01*
X60739Y-71600D01*
X60739Y-71600D01*
X60740Y-71600D01*
X60740Y-71313D01*
X60751Y-71311D01*
X60767Y-71304D01*
X60782Y-71295D01*
X60794Y-71282D01*
X60804Y-71268D01*
X60811Y-71251D01*
X60814Y-71234D01*
X60815Y-71216D01*
X60815Y-72590D01*
X58949Y-72590D01*
X58952Y-72588D01*
X59031Y-72521D01*
X59095Y-72441D01*
X59143Y-72349D01*
X59169Y-72264D01*
X59122Y-72182D01*
X58682Y-72182D01*
X58682Y-72590D01*
X58624Y-72590D01*
X58624Y-72182D01*
X58184Y-72182D01*
X58137Y-72264D01*
X58168Y-72362D01*
X58218Y-72452D01*
X58285Y-72531D01*
X58352Y-72585D01*
X58227Y-72572D01*
X58060Y-72522D01*
X57907Y-72441D01*
X57773Y-72331D01*
X57662Y-72197D01*
X57579Y-72044D01*
X57528Y-71878D01*
X57509Y-71701D01*
X57509Y-71699D01*
X57509Y-68805D01*
X57527Y-68627D01*
X57577Y-68460D01*
X57658Y-68307D01*
X57768Y-68173D01*
X57902Y-68062D01*
X58055Y-67979D01*
X58221Y-67928D01*
X58398Y-67909D01*
X58400Y-67909D01*
X63394Y-67909D01*
X63572Y-67927D01*
X63739Y-67977D01*
X63892Y-68058D01*
X64026Y-68168D01*
X64137Y-68302D01*
X64220Y-68455D01*
X64271Y-68621D01*
X64290Y-68798D01*
X64290Y-68800D01*
X64290Y-71694D01*
X64290Y-71694D01*
G37*
G54D17*
X64290Y-71694D02*
X64272Y-71872D01*
X64238Y-71985D01*
X64238Y-71408D01*
X64224Y-71334D01*
X64195Y-71264D01*
X64185Y-71249D01*
X64185Y-69762D01*
X64170Y-69688D01*
X64141Y-69618D01*
X64100Y-69555D01*
X64046Y-69501D01*
X63984Y-69459D01*
X63940Y-69440D01*
X63940Y-68600D01*
X63938Y-68587D01*
X63937Y-68574D01*
X63937Y-68573D01*
X63937Y-68572D01*
X63933Y-68560D01*
X63929Y-68548D01*
X63929Y-68547D01*
X63929Y-68546D01*
X63923Y-68535D01*
X63917Y-68523D01*
X63916Y-68523D01*
X63916Y-68522D01*
X63908Y-68512D01*
X63900Y-68502D01*
X63899Y-68501D01*
X63899Y-68501D01*
X63899Y-68501D01*
X63898Y-68501D01*
X63523Y-68126D01*
X63513Y-68117D01*
X63504Y-68109D01*
X63503Y-68109D01*
X63502Y-68108D01*
X63491Y-68102D01*
X63480Y-68096D01*
X63479Y-68096D01*
X63478Y-68095D01*
X63466Y-68091D01*
X63454Y-68088D01*
X63453Y-68087D01*
X63452Y-68087D01*
X63439Y-68086D01*
X63426Y-68085D01*
X63425Y-68085D01*
X63425Y-68085D01*
X63425Y-68085D01*
X63425Y-68085D01*
X62287Y-68085D01*
X62287Y-68078D01*
X62283Y-68060D01*
X62276Y-68044D01*
X62267Y-68029D01*
X62254Y-68017D01*
X62240Y-68007D01*
X62223Y-68000D01*
X62206Y-67997D01*
X62188Y-67996D01*
X61794Y-67996D01*
X61776Y-68000D01*
X61760Y-68007D01*
X61745Y-68016D01*
X61733Y-68029D01*
X61723Y-68043D01*
X61719Y-68052D01*
X61704Y-68028D01*
X61672Y-67996D01*
X61634Y-67971D01*
X61593Y-67954D01*
X61549Y-67945D01*
X61504Y-67944D01*
X61386Y-67945D01*
X61329Y-68002D01*
X61329Y-68270D01*
X61336Y-68270D01*
X61336Y-68329D01*
X61329Y-68329D01*
X61329Y-68336D01*
X61270Y-68336D01*
X61270Y-68329D01*
X61270Y-68270D01*
X61270Y-68002D01*
X61213Y-67945D01*
X61095Y-67944D01*
X61050Y-67945D01*
X61006Y-67954D01*
X60965Y-67971D01*
X60927Y-67996D01*
X60895Y-68028D01*
X60870Y-68066D01*
X60853Y-68108D01*
X60844Y-68152D01*
X60845Y-68213D01*
X60902Y-68270D01*
X61270Y-68270D01*
X61270Y-68329D01*
X60902Y-68329D01*
X60845Y-68386D01*
X60844Y-68447D01*
X60853Y-68491D01*
X60870Y-68533D01*
X60895Y-68571D01*
X60927Y-68603D01*
X60965Y-68628D01*
X61006Y-68645D01*
X61050Y-68654D01*
X61095Y-68655D01*
X61168Y-68655D01*
X61166Y-68658D01*
X61163Y-68670D01*
X61162Y-68671D01*
X61162Y-68672D01*
X61161Y-68684D01*
X61066Y-68684D01*
X61048Y-68688D01*
X61032Y-68695D01*
X61017Y-68704D01*
X61005Y-68717D01*
X60995Y-68731D01*
X60988Y-68748D01*
X60985Y-68765D01*
X60984Y-68783D01*
X60984Y-69033D01*
X60988Y-69051D01*
X60992Y-69060D01*
X60965Y-69071D01*
X60927Y-69096D01*
X60895Y-69128D01*
X60870Y-69166D01*
X60853Y-69208D01*
X60844Y-69252D01*
X60845Y-69313D01*
X60902Y-69370D01*
X61270Y-69370D01*
X61270Y-69363D01*
X61329Y-69363D01*
X61329Y-69370D01*
X61336Y-69370D01*
X61336Y-69429D01*
X61329Y-69429D01*
X61329Y-69697D01*
X61386Y-69755D01*
X61504Y-69755D01*
X61549Y-69754D01*
X61593Y-69745D01*
X61634Y-69728D01*
X61672Y-69703D01*
X61704Y-69671D01*
X61712Y-69657D01*
X61712Y-69671D01*
X61716Y-69689D01*
X61723Y-69705D01*
X61732Y-69720D01*
X61745Y-69732D01*
X61759Y-69742D01*
X61776Y-69749D01*
X61793Y-69752D01*
X61811Y-69753D01*
X62205Y-69753D01*
X62223Y-69749D01*
X62239Y-69742D01*
X62254Y-69733D01*
X62266Y-69720D01*
X62276Y-69706D01*
X62283Y-69689D01*
X62286Y-69672D01*
X62287Y-69654D01*
X62287Y-69378D01*
X62283Y-69360D01*
X62276Y-69344D01*
X62267Y-69329D01*
X62254Y-69317D01*
X62240Y-69307D01*
X62223Y-69300D01*
X62206Y-69297D01*
X62188Y-69296D01*
X62140Y-69296D01*
X62140Y-69203D01*
X62205Y-69203D01*
X62223Y-69199D01*
X62239Y-69192D01*
X62254Y-69183D01*
X62266Y-69170D01*
X62276Y-69156D01*
X62283Y-69139D01*
X62286Y-69122D01*
X62287Y-69104D01*
X62287Y-68828D01*
X62283Y-68810D01*
X62276Y-68794D01*
X62267Y-68779D01*
X62254Y-68767D01*
X62240Y-68757D01*
X62223Y-68750D01*
X62206Y-68747D01*
X62188Y-68746D01*
X61794Y-68746D01*
X61776Y-68750D01*
X61760Y-68757D01*
X61745Y-68766D01*
X61733Y-68779D01*
X61723Y-68793D01*
X61716Y-68810D01*
X61713Y-68827D01*
X61712Y-68845D01*
X61712Y-69121D01*
X61716Y-69139D01*
X61723Y-69155D01*
X61732Y-69170D01*
X61745Y-69182D01*
X61759Y-69192D01*
X61776Y-69199D01*
X61793Y-69202D01*
X61811Y-69203D01*
X61860Y-69203D01*
X61860Y-69296D01*
X61794Y-69296D01*
X61776Y-69300D01*
X61760Y-69307D01*
X61755Y-69310D01*
X61755Y-69252D01*
X61746Y-69208D01*
X61729Y-69166D01*
X61704Y-69128D01*
X61672Y-69096D01*
X61634Y-69071D01*
X61607Y-69060D01*
X61611Y-69051D01*
X61614Y-69034D01*
X61615Y-69016D01*
X61615Y-68766D01*
X61611Y-68748D01*
X61607Y-68740D01*
X62712Y-68740D01*
X62712Y-68746D01*
X62716Y-68764D01*
X62723Y-68780D01*
X62732Y-68795D01*
X62745Y-68807D01*
X62759Y-68817D01*
X62776Y-68824D01*
X62793Y-68827D01*
X62811Y-68828D01*
X63205Y-68828D01*
X63223Y-68824D01*
X63239Y-68817D01*
X63254Y-68808D01*
X63266Y-68795D01*
X63276Y-68781D01*
X63283Y-68764D01*
X63286Y-68747D01*
X63287Y-68729D01*
X63287Y-68453D01*
X63283Y-68435D01*
X63276Y-68419D01*
X63267Y-68404D01*
X63254Y-68392D01*
X63240Y-68382D01*
X63223Y-68375D01*
X63206Y-68372D01*
X63188Y-68371D01*
X62794Y-68371D01*
X62776Y-68375D01*
X62760Y-68382D01*
X62745Y-68391D01*
X62733Y-68404D01*
X62723Y-68418D01*
X62716Y-68435D01*
X62713Y-68452D01*
X62713Y-68460D01*
X61752Y-68460D01*
X61755Y-68447D01*
X61755Y-68439D01*
X61759Y-68442D01*
X61776Y-68449D01*
X61793Y-68452D01*
X61811Y-68453D01*
X62205Y-68453D01*
X62223Y-68449D01*
X62239Y-68442D01*
X62254Y-68433D01*
X62266Y-68420D01*
X62276Y-68406D01*
X62283Y-68389D01*
X62286Y-68372D01*
X62286Y-68365D01*
X63367Y-68365D01*
X63660Y-68657D01*
X63660Y-69441D01*
X63620Y-69456D01*
X63557Y-69498D01*
X63503Y-69551D01*
X63460Y-69613D01*
X63430Y-69682D01*
X63415Y-69756D01*
X63414Y-69832D01*
X63427Y-69906D01*
X63455Y-69976D01*
X63496Y-70040D01*
X63549Y-70094D01*
X63611Y-70137D01*
X63680Y-70168D01*
X63754Y-70184D01*
X63829Y-70185D01*
X63904Y-70172D01*
X63974Y-70145D01*
X64038Y-70105D01*
X64093Y-70052D01*
X64136Y-69991D01*
X64167Y-69922D01*
X64184Y-69848D01*
X64185Y-69762D01*
X64185Y-71249D01*
X64153Y-71201D01*
X64100Y-71148D01*
X64037Y-71105D01*
X63968Y-71076D01*
X63894Y-71061D01*
X63818Y-71060D01*
X63744Y-71075D01*
X63674Y-71103D01*
X63610Y-71144D01*
X63556Y-71197D01*
X63514Y-71259D01*
X63484Y-71329D01*
X63468Y-71403D01*
X63467Y-71478D01*
X63481Y-71553D01*
X63509Y-71623D01*
X63550Y-71686D01*
X63602Y-71741D01*
X63664Y-71784D01*
X63733Y-71814D01*
X63807Y-71830D01*
X63883Y-71832D01*
X63957Y-71819D01*
X64028Y-71792D01*
X64091Y-71751D01*
X64146Y-71699D01*
X64190Y-71637D01*
X64220Y-71568D01*
X64237Y-71494D01*
X64238Y-71408D01*
X64238Y-71985D01*
X64222Y-72039D01*
X64141Y-72192D01*
X64031Y-72326D01*
X63897Y-72437D01*
X63744Y-72520D01*
X63578Y-72571D01*
X63449Y-72585D01*
X63524Y-72521D01*
X63588Y-72441D01*
X63636Y-72349D01*
X63662Y-72264D01*
X63662Y-72042D01*
X63631Y-71944D01*
X63581Y-71854D01*
X63514Y-71775D01*
X63434Y-71711D01*
X63342Y-71663D01*
X63287Y-71646D01*
X63287Y-71329D01*
X63287Y-70029D01*
X63287Y-69753D01*
X63283Y-69735D01*
X63276Y-69719D01*
X63267Y-69704D01*
X63254Y-69692D01*
X63240Y-69682D01*
X63223Y-69675D01*
X63206Y-69672D01*
X63188Y-69671D01*
X62794Y-69671D01*
X62776Y-69675D01*
X62760Y-69682D01*
X62745Y-69691D01*
X62733Y-69704D01*
X62723Y-69718D01*
X62716Y-69735D01*
X62713Y-69752D01*
X62713Y-69760D01*
X61700Y-69760D01*
X61687Y-69761D01*
X61674Y-69762D01*
X61673Y-69762D01*
X61672Y-69762D01*
X61660Y-69766D01*
X61648Y-69770D01*
X61647Y-69770D01*
X61646Y-69770D01*
X61635Y-69776D01*
X61623Y-69782D01*
X61623Y-69783D01*
X61622Y-69783D01*
X61612Y-69791D01*
X61602Y-69799D01*
X61601Y-69800D01*
X61601Y-69800D01*
X61601Y-69800D01*
X61601Y-69801D01*
X61589Y-69812D01*
X61582Y-69805D01*
X61568Y-69795D01*
X61551Y-69788D01*
X61534Y-69785D01*
X61516Y-69784D01*
X61270Y-69784D01*
X61270Y-69697D01*
X61270Y-69429D01*
X60902Y-69429D01*
X60845Y-69486D01*
X60844Y-69547D01*
X60853Y-69591D01*
X60870Y-69633D01*
X60895Y-69671D01*
X60927Y-69703D01*
X60965Y-69728D01*
X61006Y-69745D01*
X61050Y-69754D01*
X61095Y-69755D01*
X61213Y-69755D01*
X61270Y-69697D01*
X61270Y-69784D01*
X61066Y-69784D01*
X61048Y-69788D01*
X61032Y-69795D01*
X61017Y-69804D01*
X61005Y-69817D01*
X60995Y-69831D01*
X60988Y-69848D01*
X60985Y-69865D01*
X60984Y-69883D01*
X60984Y-70133D01*
X60988Y-70151D01*
X60995Y-70167D01*
X61004Y-70182D01*
X61017Y-70194D01*
X61031Y-70204D01*
X61048Y-70211D01*
X61065Y-70214D01*
X61083Y-70215D01*
X61533Y-70215D01*
X61551Y-70211D01*
X61567Y-70204D01*
X61582Y-70195D01*
X61594Y-70182D01*
X61604Y-70168D01*
X61611Y-70151D01*
X61614Y-70138D01*
X61625Y-70137D01*
X61626Y-70137D01*
X61627Y-70137D01*
X61639Y-70133D01*
X61651Y-70129D01*
X61652Y-70129D01*
X61653Y-70129D01*
X61664Y-70123D01*
X61676Y-70117D01*
X61676Y-70116D01*
X61677Y-70116D01*
X61687Y-70108D01*
X61697Y-70100D01*
X61698Y-70099D01*
X61698Y-70099D01*
X61698Y-70099D01*
X61698Y-70098D01*
X61757Y-70040D01*
X62712Y-70040D01*
X62712Y-70046D01*
X62716Y-70064D01*
X62723Y-70080D01*
X62732Y-70095D01*
X62745Y-70107D01*
X62759Y-70117D01*
X62776Y-70124D01*
X62793Y-70127D01*
X62811Y-70128D01*
X63205Y-70128D01*
X63223Y-70124D01*
X63239Y-70117D01*
X63254Y-70108D01*
X63266Y-70095D01*
X63276Y-70081D01*
X63283Y-70064D01*
X63286Y-70047D01*
X63287Y-70029D01*
X63287Y-71329D01*
X63287Y-71053D01*
X63283Y-71035D01*
X63276Y-71019D01*
X63267Y-71004D01*
X63254Y-70992D01*
X63240Y-70982D01*
X63223Y-70975D01*
X63206Y-70972D01*
X63188Y-70971D01*
X62794Y-70971D01*
X62776Y-70975D01*
X62760Y-70982D01*
X62745Y-70991D01*
X62733Y-71004D01*
X62723Y-71018D01*
X62716Y-71035D01*
X62713Y-71052D01*
X62713Y-71060D01*
X61847Y-71060D01*
X61841Y-71053D01*
X62205Y-71053D01*
X62223Y-71049D01*
X62239Y-71042D01*
X62254Y-71033D01*
X62266Y-71020D01*
X62276Y-71006D01*
X62283Y-70989D01*
X62286Y-70972D01*
X62287Y-70954D01*
X62287Y-70678D01*
X62283Y-70660D01*
X62276Y-70644D01*
X62267Y-70629D01*
X62254Y-70617D01*
X62240Y-70607D01*
X62223Y-70600D01*
X62206Y-70597D01*
X62188Y-70596D01*
X62140Y-70596D01*
X62140Y-70503D01*
X62205Y-70503D01*
X62223Y-70499D01*
X62239Y-70492D01*
X62254Y-70483D01*
X62266Y-70470D01*
X62276Y-70456D01*
X62283Y-70439D01*
X62286Y-70422D01*
X62287Y-70404D01*
X62287Y-70128D01*
X62283Y-70110D01*
X62276Y-70094D01*
X62267Y-70079D01*
X62254Y-70067D01*
X62240Y-70057D01*
X62223Y-70050D01*
X62206Y-70047D01*
X62188Y-70046D01*
X61794Y-70046D01*
X61776Y-70050D01*
X61760Y-70057D01*
X61745Y-70066D01*
X61733Y-70079D01*
X61723Y-70093D01*
X61716Y-70110D01*
X61713Y-70127D01*
X61712Y-70145D01*
X61712Y-70421D01*
X61716Y-70438D01*
X61678Y-70401D01*
X61668Y-70392D01*
X61659Y-70384D01*
X61658Y-70384D01*
X61657Y-70383D01*
X61646Y-70377D01*
X61635Y-70371D01*
X61634Y-70371D01*
X61633Y-70370D01*
X61621Y-70366D01*
X61614Y-70364D01*
X61611Y-70348D01*
X61604Y-70332D01*
X61595Y-70317D01*
X61582Y-70305D01*
X61568Y-70295D01*
X61551Y-70288D01*
X61534Y-70285D01*
X61516Y-70284D01*
X61066Y-70284D01*
X61048Y-70288D01*
X61032Y-70295D01*
X61017Y-70304D01*
X61005Y-70317D01*
X60995Y-70331D01*
X60988Y-70348D01*
X60985Y-70365D01*
X60984Y-70383D01*
X60984Y-70633D01*
X60988Y-70651D01*
X60995Y-70667D01*
X61004Y-70682D01*
X61017Y-70694D01*
X61031Y-70704D01*
X61048Y-70711D01*
X61065Y-70714D01*
X61083Y-70715D01*
X61530Y-70715D01*
X61530Y-70885D01*
X61516Y-70884D01*
X61066Y-70884D01*
X61048Y-70888D01*
X61032Y-70895D01*
X61017Y-70904D01*
X61005Y-70917D01*
X60995Y-70931D01*
X60988Y-70948D01*
X60985Y-70965D01*
X60984Y-70983D01*
X60984Y-71233D01*
X60988Y-71251D01*
X60995Y-71267D01*
X61004Y-71282D01*
X61017Y-71294D01*
X61031Y-71304D01*
X61048Y-71311D01*
X61065Y-71314D01*
X61083Y-71315D01*
X61160Y-71315D01*
X61160Y-71442D01*
X61088Y-71514D01*
X61079Y-71524D01*
X61071Y-71533D01*
X61071Y-71534D01*
X61070Y-71535D01*
X61064Y-71546D01*
X61058Y-71557D01*
X61058Y-71558D01*
X61057Y-71559D01*
X61053Y-71571D01*
X61050Y-71583D01*
X61049Y-71584D01*
X61049Y-71585D01*
X61048Y-71598D01*
X61047Y-71611D01*
X61047Y-71612D01*
X61047Y-71612D01*
X61047Y-71612D01*
X61047Y-71613D01*
X61047Y-71873D01*
X60942Y-71873D01*
X60924Y-71877D01*
X60908Y-71884D01*
X60893Y-71893D01*
X60881Y-71906D01*
X60871Y-71920D01*
X60864Y-71937D01*
X60861Y-71954D01*
X60860Y-71972D01*
X60860Y-72444D01*
X60864Y-72462D01*
X60871Y-72478D01*
X60880Y-72493D01*
X60893Y-72505D01*
X60907Y-72515D01*
X60924Y-72522D01*
X60941Y-72525D01*
X60959Y-72526D01*
X61431Y-72526D01*
X61449Y-72522D01*
X61465Y-72515D01*
X61480Y-72506D01*
X61492Y-72493D01*
X61502Y-72479D01*
X61509Y-72462D01*
X61512Y-72445D01*
X61513Y-72427D01*
X61513Y-71955D01*
X61509Y-71937D01*
X61502Y-71921D01*
X61493Y-71906D01*
X61480Y-71894D01*
X61466Y-71884D01*
X61449Y-71877D01*
X61432Y-71874D01*
X61414Y-71873D01*
X61327Y-71873D01*
X61327Y-71670D01*
X61398Y-71598D01*
X61407Y-71588D01*
X61415Y-71579D01*
X61415Y-71578D01*
X61416Y-71577D01*
X61422Y-71566D01*
X61428Y-71555D01*
X61428Y-71554D01*
X61429Y-71553D01*
X61433Y-71541D01*
X61436Y-71529D01*
X61437Y-71528D01*
X61437Y-71527D01*
X61438Y-71514D01*
X61439Y-71501D01*
X61439Y-71500D01*
X61439Y-71500D01*
X61439Y-71500D01*
X61440Y-71500D01*
X61440Y-71315D01*
X61533Y-71315D01*
X61551Y-71311D01*
X61567Y-71304D01*
X61582Y-71295D01*
X61594Y-71282D01*
X61604Y-71268D01*
X61611Y-71251D01*
X61614Y-71234D01*
X61615Y-71223D01*
X61691Y-71298D01*
X61701Y-71307D01*
X61710Y-71315D01*
X61711Y-71315D01*
X61712Y-71316D01*
X61723Y-71322D01*
X61734Y-71328D01*
X61735Y-71328D01*
X61736Y-71329D01*
X61748Y-71333D01*
X61760Y-71336D01*
X61761Y-71337D01*
X61762Y-71337D01*
X61775Y-71338D01*
X61788Y-71339D01*
X61789Y-71339D01*
X61789Y-71339D01*
X61789Y-71339D01*
X61790Y-71340D01*
X62450Y-71340D01*
X62408Y-71367D01*
X62371Y-71403D01*
X62349Y-71435D01*
X62287Y-71435D01*
X62287Y-71428D01*
X62283Y-71410D01*
X62276Y-71394D01*
X62267Y-71379D01*
X62254Y-71367D01*
X62240Y-71357D01*
X62223Y-71350D01*
X62206Y-71347D01*
X62188Y-71346D01*
X61794Y-71346D01*
X61776Y-71350D01*
X61760Y-71357D01*
X61745Y-71366D01*
X61733Y-71379D01*
X61723Y-71393D01*
X61716Y-71410D01*
X61713Y-71427D01*
X61712Y-71445D01*
X61712Y-71721D01*
X61716Y-71739D01*
X61717Y-71741D01*
X61710Y-71742D01*
X61668Y-71759D01*
X61630Y-71784D01*
X61598Y-71816D01*
X61573Y-71854D01*
X61556Y-71895D01*
X61547Y-71939D01*
X61546Y-71984D01*
X61547Y-72113D01*
X61604Y-72170D01*
X61983Y-72170D01*
X61983Y-72163D01*
X62042Y-72163D01*
X62042Y-72170D01*
X62421Y-72170D01*
X62479Y-72113D01*
X62479Y-71984D01*
X62478Y-71939D01*
X62469Y-71895D01*
X62452Y-71854D01*
X62427Y-71816D01*
X62395Y-71784D01*
X62357Y-71759D01*
X62315Y-71742D01*
X62284Y-71736D01*
X62286Y-71722D01*
X62286Y-71715D01*
X62349Y-71715D01*
X62366Y-71740D01*
X62402Y-71777D01*
X62445Y-71807D01*
X62492Y-71828D01*
X62543Y-71839D01*
X62595Y-71840D01*
X62646Y-71831D01*
X62695Y-71812D01*
X62738Y-71784D01*
X62776Y-71748D01*
X62806Y-71706D01*
X62827Y-71659D01*
X62839Y-71608D01*
X62840Y-71549D01*
X62829Y-71498D01*
X62810Y-71449D01*
X62795Y-71427D01*
X62811Y-71428D01*
X63205Y-71428D01*
X63223Y-71424D01*
X63239Y-71417D01*
X63254Y-71408D01*
X63266Y-71395D01*
X63276Y-71381D01*
X63283Y-71364D01*
X63286Y-71347D01*
X63287Y-71329D01*
X63287Y-71646D01*
X63257Y-71637D01*
X63175Y-71684D01*
X63175Y-72124D01*
X63615Y-72124D01*
X63662Y-72042D01*
X63662Y-72264D01*
X63615Y-72182D01*
X63175Y-72182D01*
X63175Y-72590D01*
X63117Y-72590D01*
X63117Y-72182D01*
X63117Y-72124D01*
X63117Y-71684D01*
X63035Y-71637D01*
X62937Y-71668D01*
X62847Y-71718D01*
X62768Y-71785D01*
X62704Y-71865D01*
X62656Y-71957D01*
X62630Y-72042D01*
X62677Y-72124D01*
X63117Y-72124D01*
X63117Y-72182D01*
X62677Y-72182D01*
X62630Y-72264D01*
X62661Y-72362D01*
X62711Y-72452D01*
X62778Y-72531D01*
X62851Y-72590D01*
X62420Y-72590D01*
X62427Y-72583D01*
X62452Y-72545D01*
X62469Y-72504D01*
X62478Y-72460D01*
X62479Y-72415D01*
X62479Y-72286D01*
X62421Y-72229D01*
X62042Y-72229D01*
X62042Y-72236D01*
X61983Y-72236D01*
X61983Y-72229D01*
X61604Y-72229D01*
X61547Y-72286D01*
X61546Y-72415D01*
X61547Y-72460D01*
X61556Y-72504D01*
X61573Y-72545D01*
X61598Y-72583D01*
X61605Y-72590D01*
X60815Y-72590D01*
X60815Y-71216D01*
X60815Y-70616D01*
X60815Y-70116D01*
X60815Y-69516D01*
X60815Y-69266D01*
X60811Y-69248D01*
X60804Y-69232D01*
X60795Y-69217D01*
X60782Y-69205D01*
X60768Y-69195D01*
X60751Y-69188D01*
X60734Y-69185D01*
X60716Y-69184D01*
X60640Y-69184D01*
X60640Y-69115D01*
X60733Y-69115D01*
X60751Y-69111D01*
X60767Y-69104D01*
X60782Y-69095D01*
X60794Y-69082D01*
X60804Y-69068D01*
X60811Y-69051D01*
X60814Y-69034D01*
X60815Y-69016D01*
X60815Y-68766D01*
X60811Y-68748D01*
X60804Y-68732D01*
X60795Y-68717D01*
X60782Y-68705D01*
X60768Y-68695D01*
X60751Y-68688D01*
X60734Y-68685D01*
X60716Y-68684D01*
X60513Y-68684D01*
X60598Y-68598D01*
X60607Y-68588D01*
X60615Y-68579D01*
X60615Y-68578D01*
X60616Y-68577D01*
X60622Y-68566D01*
X60628Y-68555D01*
X60628Y-68554D01*
X60629Y-68553D01*
X60633Y-68541D01*
X60636Y-68529D01*
X60637Y-68528D01*
X60637Y-68527D01*
X60638Y-68515D01*
X60733Y-68515D01*
X60751Y-68511D01*
X60767Y-68504D01*
X60782Y-68495D01*
X60794Y-68482D01*
X60804Y-68468D01*
X60811Y-68451D01*
X60814Y-68434D01*
X60815Y-68416D01*
X60815Y-68166D01*
X60811Y-68148D01*
X60804Y-68132D01*
X60795Y-68117D01*
X60782Y-68105D01*
X60768Y-68095D01*
X60751Y-68088D01*
X60734Y-68085D01*
X60716Y-68084D01*
X60266Y-68084D01*
X60248Y-68088D01*
X60232Y-68095D01*
X60217Y-68104D01*
X60205Y-68117D01*
X60195Y-68131D01*
X60188Y-68148D01*
X60185Y-68165D01*
X60184Y-68183D01*
X60184Y-68433D01*
X60188Y-68451D01*
X60192Y-68460D01*
X60187Y-68460D01*
X60187Y-68453D01*
X60183Y-68435D01*
X60176Y-68419D01*
X60167Y-68404D01*
X60154Y-68392D01*
X60140Y-68382D01*
X60123Y-68375D01*
X60106Y-68372D01*
X60088Y-68371D01*
X59694Y-68371D01*
X59676Y-68375D01*
X59660Y-68382D01*
X59645Y-68391D01*
X59633Y-68404D01*
X59623Y-68418D01*
X59616Y-68435D01*
X59613Y-68452D01*
X59612Y-68470D01*
X59612Y-68746D01*
X59616Y-68764D01*
X59623Y-68780D01*
X59632Y-68795D01*
X59645Y-68807D01*
X59659Y-68817D01*
X59676Y-68824D01*
X59693Y-68827D01*
X59711Y-68828D01*
X60105Y-68828D01*
X60123Y-68824D01*
X60139Y-68817D01*
X60154Y-68808D01*
X60166Y-68795D01*
X60176Y-68781D01*
X60183Y-68764D01*
X60186Y-68747D01*
X60186Y-68740D01*
X60192Y-68740D01*
X60188Y-68748D01*
X60185Y-68765D01*
X60184Y-68783D01*
X60184Y-69033D01*
X60188Y-69051D01*
X60195Y-69067D01*
X60204Y-69082D01*
X60217Y-69094D01*
X60231Y-69104D01*
X60248Y-69111D01*
X60265Y-69114D01*
X60283Y-69115D01*
X60360Y-69115D01*
X60360Y-69184D01*
X60266Y-69184D01*
X60248Y-69188D01*
X60232Y-69195D01*
X60217Y-69204D01*
X60205Y-69217D01*
X60199Y-69225D01*
X60169Y-69194D01*
X60126Y-69165D01*
X60078Y-69145D01*
X60027Y-69135D01*
X59975Y-69134D01*
X59924Y-69144D01*
X59876Y-69164D01*
X59833Y-69192D01*
X59796Y-69228D01*
X59766Y-69271D01*
X59746Y-69319D01*
X59735Y-69370D01*
X59734Y-69422D01*
X59744Y-69473D01*
X59763Y-69521D01*
X59791Y-69565D01*
X59827Y-69602D01*
X59870Y-69632D01*
X59917Y-69653D01*
X59968Y-69664D01*
X60020Y-69665D01*
X60071Y-69656D01*
X60120Y-69637D01*
X60163Y-69609D01*
X60200Y-69575D01*
X60204Y-69582D01*
X60217Y-69594D01*
X60231Y-69604D01*
X60248Y-69611D01*
X60265Y-69614D01*
X60283Y-69615D01*
X60733Y-69615D01*
X60751Y-69611D01*
X60767Y-69604D01*
X60782Y-69595D01*
X60794Y-69582D01*
X60804Y-69568D01*
X60811Y-69551D01*
X60814Y-69534D01*
X60815Y-69516D01*
X60815Y-70116D01*
X60815Y-69866D01*
X60811Y-69848D01*
X60804Y-69832D01*
X60795Y-69817D01*
X60782Y-69805D01*
X60768Y-69795D01*
X60751Y-69788D01*
X60734Y-69785D01*
X60716Y-69784D01*
X60279Y-69784D01*
X60279Y-69784D01*
X60278Y-69784D01*
X60277Y-69783D01*
X60266Y-69777D01*
X60255Y-69771D01*
X60254Y-69771D01*
X60253Y-69770D01*
X60241Y-69766D01*
X60229Y-69763D01*
X60228Y-69762D01*
X60227Y-69762D01*
X60214Y-69761D01*
X60201Y-69760D01*
X60200Y-69760D01*
X60200Y-69760D01*
X60200Y-69760D01*
X60200Y-69760D01*
X60187Y-69760D01*
X60187Y-69753D01*
X60183Y-69735D01*
X60176Y-69719D01*
X60167Y-69704D01*
X60154Y-69692D01*
X60140Y-69682D01*
X60123Y-69675D01*
X60106Y-69672D01*
X60088Y-69671D01*
X59694Y-69671D01*
X59676Y-69675D01*
X59660Y-69682D01*
X59645Y-69691D01*
X59633Y-69704D01*
X59623Y-69718D01*
X59616Y-69735D01*
X59613Y-69752D01*
X59612Y-69770D01*
X59612Y-70046D01*
X59616Y-70064D01*
X59623Y-70080D01*
X59632Y-70095D01*
X59645Y-70107D01*
X59659Y-70117D01*
X59676Y-70124D01*
X59693Y-70127D01*
X59711Y-70128D01*
X60105Y-70128D01*
X60123Y-70124D01*
X60139Y-70117D01*
X60154Y-70108D01*
X60166Y-70095D01*
X60176Y-70081D01*
X60178Y-70076D01*
X60184Y-70082D01*
X60184Y-70133D01*
X60188Y-70151D01*
X60195Y-70167D01*
X60204Y-70182D01*
X60217Y-70194D01*
X60231Y-70204D01*
X60248Y-70211D01*
X60265Y-70214D01*
X60283Y-70215D01*
X60733Y-70215D01*
X60751Y-70211D01*
X60767Y-70204D01*
X60782Y-70195D01*
X60794Y-70182D01*
X60804Y-70168D01*
X60811Y-70151D01*
X60814Y-70134D01*
X60815Y-70116D01*
X60815Y-70616D01*
X60815Y-70366D01*
X60811Y-70348D01*
X60804Y-70332D01*
X60795Y-70317D01*
X60782Y-70305D01*
X60768Y-70295D01*
X60751Y-70288D01*
X60734Y-70285D01*
X60716Y-70284D01*
X60266Y-70284D01*
X60248Y-70288D01*
X60232Y-70295D01*
X60217Y-70304D01*
X60205Y-70317D01*
X60199Y-70325D01*
X60169Y-70294D01*
X60126Y-70265D01*
X60078Y-70245D01*
X60027Y-70235D01*
X59975Y-70234D01*
X59924Y-70244D01*
X59876Y-70264D01*
X59833Y-70292D01*
X59796Y-70328D01*
X59766Y-70371D01*
X59746Y-70419D01*
X59735Y-70470D01*
X59734Y-70522D01*
X59744Y-70573D01*
X59763Y-70621D01*
X59791Y-70665D01*
X59827Y-70702D01*
X59870Y-70732D01*
X59917Y-70753D01*
X59968Y-70764D01*
X60020Y-70765D01*
X60071Y-70756D01*
X60120Y-70737D01*
X60163Y-70709D01*
X60200Y-70675D01*
X60204Y-70682D01*
X60217Y-70694D01*
X60231Y-70704D01*
X60248Y-70711D01*
X60265Y-70714D01*
X60283Y-70715D01*
X60733Y-70715D01*
X60751Y-70711D01*
X60767Y-70704D01*
X60782Y-70695D01*
X60794Y-70682D01*
X60804Y-70668D01*
X60811Y-70651D01*
X60814Y-70634D01*
X60815Y-70616D01*
X60815Y-71216D01*
X60815Y-70966D01*
X60811Y-70948D01*
X60804Y-70932D01*
X60795Y-70917D01*
X60782Y-70905D01*
X60768Y-70895D01*
X60751Y-70888D01*
X60734Y-70885D01*
X60716Y-70884D01*
X60266Y-70884D01*
X60248Y-70888D01*
X60232Y-70895D01*
X60217Y-70904D01*
X60205Y-70917D01*
X60195Y-70931D01*
X60188Y-70948D01*
X60185Y-70965D01*
X60184Y-70983D01*
X60184Y-71042D01*
X60183Y-71035D01*
X60176Y-71019D01*
X60167Y-71004D01*
X60154Y-70992D01*
X60140Y-70982D01*
X60123Y-70975D01*
X60106Y-70972D01*
X60088Y-70971D01*
X59694Y-70971D01*
X59676Y-70975D01*
X59660Y-70982D01*
X59645Y-70991D01*
X59633Y-71004D01*
X59623Y-71018D01*
X59616Y-71035D01*
X59613Y-71052D01*
X59612Y-71070D01*
X59612Y-71346D01*
X59616Y-71364D01*
X59623Y-71380D01*
X59632Y-71395D01*
X59645Y-71407D01*
X59659Y-71417D01*
X59676Y-71424D01*
X59693Y-71427D01*
X59711Y-71428D01*
X59760Y-71428D01*
X59760Y-71442D01*
X59488Y-71714D01*
X59479Y-71724D01*
X59471Y-71733D01*
X59471Y-71734D01*
X59470Y-71735D01*
X59464Y-71746D01*
X59458Y-71757D01*
X59458Y-71758D01*
X59457Y-71759D01*
X59453Y-71771D01*
X59450Y-71783D01*
X59449Y-71784D01*
X59449Y-71785D01*
X59448Y-71798D01*
X59447Y-71811D01*
X59447Y-71812D01*
X59447Y-71812D01*
X59447Y-71812D01*
X59447Y-71813D01*
X59447Y-71873D01*
X59342Y-71873D01*
X59327Y-71876D01*
X59327Y-71735D01*
X59327Y-71414D01*
X59318Y-71370D01*
X59301Y-71328D01*
X59276Y-71290D01*
X59244Y-71258D01*
X59206Y-71233D01*
X59187Y-71225D01*
X59187Y-70954D01*
X59187Y-70678D01*
X59183Y-70660D01*
X59176Y-70644D01*
X59167Y-70629D01*
X59154Y-70617D01*
X59140Y-70607D01*
X59123Y-70600D01*
X59106Y-70597D01*
X59088Y-70596D01*
X59040Y-70596D01*
X59040Y-70503D01*
X59105Y-70503D01*
X59123Y-70499D01*
X59139Y-70492D01*
X59154Y-70483D01*
X59166Y-70470D01*
X59176Y-70456D01*
X59183Y-70439D01*
X59186Y-70422D01*
X59187Y-70404D01*
X59187Y-69654D01*
X59187Y-69378D01*
X59183Y-69360D01*
X59176Y-69344D01*
X59167Y-69329D01*
X59154Y-69317D01*
X59140Y-69307D01*
X59123Y-69300D01*
X59106Y-69297D01*
X59088Y-69296D01*
X59040Y-69296D01*
X59040Y-69203D01*
X59105Y-69203D01*
X59123Y-69199D01*
X59139Y-69192D01*
X59154Y-69183D01*
X59166Y-69170D01*
X59176Y-69156D01*
X59183Y-69139D01*
X59186Y-69122D01*
X59187Y-69104D01*
X59187Y-68354D01*
X59187Y-68078D01*
X59183Y-68060D01*
X59176Y-68044D01*
X59167Y-68029D01*
X59154Y-68017D01*
X59140Y-68007D01*
X59123Y-68000D01*
X59106Y-67997D01*
X59088Y-67996D01*
X58694Y-67996D01*
X58676Y-68000D01*
X58660Y-68007D01*
X58645Y-68016D01*
X58633Y-68029D01*
X58623Y-68043D01*
X58616Y-68060D01*
X58613Y-68077D01*
X58613Y-68085D01*
X58450Y-68085D01*
X58437Y-68086D01*
X58424Y-68087D01*
X58423Y-68087D01*
X58422Y-68087D01*
X58410Y-68091D01*
X58398Y-68095D01*
X58397Y-68095D01*
X58396Y-68095D01*
X58385Y-68101D01*
X58373Y-68107D01*
X58373Y-68108D01*
X58372Y-68108D01*
X58362Y-68116D01*
X58352Y-68124D01*
X58351Y-68125D01*
X58351Y-68125D01*
X58351Y-68125D01*
X58351Y-68126D01*
X57901Y-68576D01*
X57892Y-68586D01*
X57884Y-68595D01*
X57884Y-68596D01*
X57883Y-68597D01*
X57877Y-68608D01*
X57871Y-68619D01*
X57871Y-68620D01*
X57870Y-68621D01*
X57866Y-68633D01*
X57863Y-68645D01*
X57862Y-68646D01*
X57862Y-68647D01*
X57861Y-68660D01*
X57860Y-68673D01*
X57860Y-68674D01*
X57860Y-68674D01*
X57860Y-68674D01*
X57860Y-68675D01*
X57860Y-69441D01*
X57820Y-69456D01*
X57757Y-69498D01*
X57703Y-69551D01*
X57660Y-69613D01*
X57630Y-69682D01*
X57615Y-69756D01*
X57614Y-69832D01*
X57627Y-69906D01*
X57655Y-69976D01*
X57696Y-70040D01*
X57749Y-70094D01*
X57811Y-70137D01*
X57880Y-70168D01*
X57954Y-70184D01*
X58029Y-70185D01*
X58104Y-70172D01*
X58174Y-70145D01*
X58238Y-70105D01*
X58293Y-70052D01*
X58336Y-69991D01*
X58367Y-69922D01*
X58384Y-69848D01*
X58385Y-69762D01*
X58370Y-69688D01*
X58341Y-69618D01*
X58300Y-69555D01*
X58246Y-69501D01*
X58184Y-69459D01*
X58140Y-69440D01*
X58140Y-68732D01*
X58507Y-68365D01*
X58612Y-68365D01*
X58612Y-68371D01*
X58616Y-68389D01*
X58623Y-68405D01*
X58632Y-68420D01*
X58645Y-68432D01*
X58659Y-68442D01*
X58676Y-68449D01*
X58693Y-68452D01*
X58711Y-68453D01*
X59105Y-68453D01*
X59123Y-68449D01*
X59139Y-68442D01*
X59154Y-68433D01*
X59166Y-68420D01*
X59176Y-68406D01*
X59183Y-68389D01*
X59186Y-68372D01*
X59187Y-68354D01*
X59187Y-69104D01*
X59187Y-68828D01*
X59183Y-68810D01*
X59176Y-68794D01*
X59167Y-68779D01*
X59154Y-68767D01*
X59140Y-68757D01*
X59123Y-68750D01*
X59106Y-68747D01*
X59088Y-68746D01*
X58694Y-68746D01*
X58676Y-68750D01*
X58660Y-68757D01*
X58645Y-68766D01*
X58633Y-68779D01*
X58623Y-68793D01*
X58616Y-68810D01*
X58613Y-68827D01*
X58612Y-68845D01*
X58612Y-69121D01*
X58616Y-69139D01*
X58623Y-69155D01*
X58632Y-69170D01*
X58645Y-69182D01*
X58659Y-69192D01*
X58676Y-69199D01*
X58693Y-69202D01*
X58711Y-69203D01*
X58760Y-69203D01*
X58760Y-69296D01*
X58694Y-69296D01*
X58676Y-69300D01*
X58660Y-69307D01*
X58645Y-69316D01*
X58633Y-69329D01*
X58623Y-69343D01*
X58616Y-69360D01*
X58613Y-69377D01*
X58612Y-69395D01*
X58612Y-69671D01*
X58616Y-69689D01*
X58623Y-69705D01*
X58632Y-69720D01*
X58645Y-69732D01*
X58659Y-69742D01*
X58676Y-69749D01*
X58693Y-69752D01*
X58711Y-69753D01*
X59105Y-69753D01*
X59123Y-69749D01*
X59139Y-69742D01*
X59154Y-69733D01*
X59166Y-69720D01*
X59176Y-69706D01*
X59183Y-69689D01*
X59186Y-69672D01*
X59187Y-69654D01*
X59187Y-70404D01*
X59187Y-70128D01*
X59183Y-70110D01*
X59176Y-70094D01*
X59167Y-70079D01*
X59154Y-70067D01*
X59140Y-70057D01*
X59123Y-70050D01*
X59106Y-70047D01*
X59088Y-70046D01*
X58694Y-70046D01*
X58676Y-70050D01*
X58660Y-70057D01*
X58645Y-70066D01*
X58633Y-70079D01*
X58623Y-70093D01*
X58616Y-70110D01*
X58613Y-70127D01*
X58612Y-70145D01*
X58612Y-70421D01*
X58616Y-70439D01*
X58623Y-70455D01*
X58632Y-70470D01*
X58645Y-70482D01*
X58659Y-70492D01*
X58676Y-70499D01*
X58693Y-70502D01*
X58711Y-70503D01*
X58760Y-70503D01*
X58760Y-70596D01*
X58694Y-70596D01*
X58676Y-70600D01*
X58660Y-70607D01*
X58645Y-70616D01*
X58633Y-70629D01*
X58623Y-70643D01*
X58616Y-70660D01*
X58613Y-70677D01*
X58612Y-70695D01*
X58612Y-70971D01*
X58616Y-70989D01*
X58623Y-71005D01*
X58632Y-71020D01*
X58645Y-71032D01*
X58659Y-71042D01*
X58676Y-71049D01*
X58693Y-71052D01*
X58711Y-71053D01*
X59105Y-71053D01*
X59123Y-71049D01*
X59139Y-71042D01*
X59154Y-71033D01*
X59166Y-71020D01*
X59176Y-71006D01*
X59183Y-70989D01*
X59186Y-70972D01*
X59187Y-70954D01*
X59187Y-71225D01*
X59165Y-71216D01*
X59121Y-71207D01*
X59076Y-71206D01*
X58986Y-71207D01*
X58929Y-71264D01*
X58929Y-71545D01*
X59269Y-71545D01*
X59327Y-71488D01*
X59327Y-71414D01*
X59327Y-71735D01*
X59327Y-71661D01*
X59269Y-71604D01*
X58929Y-71604D01*
X58929Y-71611D01*
X58870Y-71611D01*
X58870Y-71604D01*
X58870Y-71545D01*
X58870Y-71264D01*
X58813Y-71207D01*
X58723Y-71206D01*
X58678Y-71207D01*
X58634Y-71216D01*
X58593Y-71233D01*
X58555Y-71258D01*
X58523Y-71290D01*
X58498Y-71328D01*
X58481Y-71370D01*
X58472Y-71414D01*
X58473Y-71488D01*
X58530Y-71545D01*
X58870Y-71545D01*
X58870Y-71604D01*
X58530Y-71604D01*
X58475Y-71658D01*
X58444Y-71668D01*
X58354Y-71718D01*
X58331Y-71737D01*
X58331Y-71408D01*
X58317Y-71334D01*
X58288Y-71264D01*
X58246Y-71201D01*
X58193Y-71148D01*
X58130Y-71105D01*
X58060Y-71076D01*
X57986Y-71061D01*
X57911Y-71060D01*
X57837Y-71075D01*
X57767Y-71103D01*
X57703Y-71144D01*
X57649Y-71197D01*
X57607Y-71259D01*
X57577Y-71329D01*
X57561Y-71403D01*
X57560Y-71478D01*
X57574Y-71553D01*
X57602Y-71623D01*
X57643Y-71686D01*
X57695Y-71741D01*
X57757Y-71784D01*
X57826Y-71814D01*
X57900Y-71830D01*
X57976Y-71832D01*
X58050Y-71819D01*
X58120Y-71792D01*
X58184Y-71751D01*
X58239Y-71699D01*
X58283Y-71637D01*
X58313Y-71568D01*
X58330Y-71494D01*
X58331Y-71408D01*
X58331Y-71737D01*
X58275Y-71785D01*
X58211Y-71865D01*
X58163Y-71957D01*
X58137Y-72042D01*
X58184Y-72124D01*
X58624Y-72124D01*
X58624Y-71929D01*
X58634Y-71933D01*
X58678Y-71942D01*
X58682Y-71942D01*
X58682Y-72083D01*
X58659Y-72106D01*
X58700Y-72147D01*
X58723Y-72124D01*
X59122Y-72124D01*
X59169Y-72042D01*
X59138Y-71944D01*
X59135Y-71939D01*
X59165Y-71933D01*
X59206Y-71916D01*
X59244Y-71891D01*
X59276Y-71859D01*
X59301Y-71821D01*
X59318Y-71779D01*
X59327Y-71735D01*
X59327Y-71876D01*
X59324Y-71877D01*
X59308Y-71884D01*
X59293Y-71893D01*
X59281Y-71906D01*
X59271Y-71920D01*
X59264Y-71937D01*
X59261Y-71954D01*
X59260Y-71972D01*
X59260Y-72444D01*
X59264Y-72462D01*
X59271Y-72478D01*
X59280Y-72493D01*
X59293Y-72505D01*
X59307Y-72515D01*
X59324Y-72522D01*
X59341Y-72525D01*
X59359Y-72526D01*
X59831Y-72526D01*
X59849Y-72522D01*
X59865Y-72515D01*
X59880Y-72506D01*
X59892Y-72493D01*
X59902Y-72479D01*
X59909Y-72462D01*
X59912Y-72445D01*
X59913Y-72427D01*
X59913Y-71955D01*
X59909Y-71937D01*
X59902Y-71921D01*
X59893Y-71906D01*
X59880Y-71894D01*
X59866Y-71884D01*
X59849Y-71877D01*
X59832Y-71874D01*
X59814Y-71873D01*
X59727Y-71873D01*
X59727Y-71870D01*
X59998Y-71598D01*
X60007Y-71588D01*
X60015Y-71579D01*
X60015Y-71578D01*
X60016Y-71577D01*
X60022Y-71566D01*
X60028Y-71555D01*
X60028Y-71554D01*
X60029Y-71553D01*
X60033Y-71541D01*
X60036Y-71529D01*
X60037Y-71528D01*
X60037Y-71527D01*
X60038Y-71514D01*
X60039Y-71501D01*
X60039Y-71500D01*
X60039Y-71500D01*
X60039Y-71500D01*
X60040Y-71500D01*
X60040Y-71428D01*
X60105Y-71428D01*
X60123Y-71424D01*
X60139Y-71417D01*
X60154Y-71408D01*
X60166Y-71395D01*
X60176Y-71381D01*
X60183Y-71364D01*
X60186Y-71347D01*
X60187Y-71329D01*
X60187Y-71244D01*
X60188Y-71251D01*
X60195Y-71267D01*
X60204Y-71282D01*
X60217Y-71294D01*
X60231Y-71304D01*
X60248Y-71311D01*
X60265Y-71314D01*
X60283Y-71315D01*
X60460Y-71315D01*
X60460Y-71542D01*
X60314Y-71688D01*
X60305Y-71698D01*
X60297Y-71707D01*
X60297Y-71708D01*
X60296Y-71709D01*
X60290Y-71720D01*
X60284Y-71731D01*
X60284Y-71732D01*
X60283Y-71733D01*
X60279Y-71745D01*
X60276Y-71757D01*
X60275Y-71758D01*
X60275Y-71759D01*
X60274Y-71772D01*
X60273Y-71785D01*
X60273Y-71786D01*
X60273Y-71786D01*
X60273Y-71786D01*
X60273Y-71787D01*
X60273Y-71873D01*
X60168Y-71873D01*
X60150Y-71877D01*
X60134Y-71884D01*
X60119Y-71893D01*
X60107Y-71906D01*
X60097Y-71920D01*
X60090Y-71937D01*
X60087Y-71954D01*
X60086Y-71972D01*
X60086Y-72444D01*
X60090Y-72462D01*
X60097Y-72478D01*
X60106Y-72493D01*
X60119Y-72505D01*
X60133Y-72515D01*
X60150Y-72522D01*
X60167Y-72525D01*
X60185Y-72526D01*
X60657Y-72526D01*
X60675Y-72522D01*
X60691Y-72515D01*
X60706Y-72506D01*
X60718Y-72493D01*
X60728Y-72479D01*
X60735Y-72462D01*
X60738Y-72445D01*
X60739Y-72427D01*
X60739Y-71955D01*
X60735Y-71937D01*
X60728Y-71921D01*
X60719Y-71906D01*
X60706Y-71894D01*
X60692Y-71884D01*
X60675Y-71877D01*
X60658Y-71874D01*
X60640Y-71873D01*
X60553Y-71873D01*
X60553Y-71844D01*
X60698Y-71698D01*
X60707Y-71688D01*
X60715Y-71679D01*
X60715Y-71678D01*
X60716Y-71677D01*
X60722Y-71666D01*
X60728Y-71655D01*
X60728Y-71654D01*
X60729Y-71653D01*
X60733Y-71641D01*
X60736Y-71629D01*
X60737Y-71628D01*
X60737Y-71627D01*
X60738Y-71614D01*
X60739Y-71601D01*
X60739Y-71600D01*
X60739Y-71600D01*
X60739Y-71600D01*
X60740Y-71600D01*
X60740Y-71313D01*
X60751Y-71311D01*
X60767Y-71304D01*
X60782Y-71295D01*
X60794Y-71282D01*
X60804Y-71268D01*
X60811Y-71251D01*
X60814Y-71234D01*
X60815Y-71216D01*
X60815Y-72590D01*
X58949Y-72590D01*
X58952Y-72588D01*
X59031Y-72521D01*
X59095Y-72441D01*
X59143Y-72349D01*
X59169Y-72264D01*
X59122Y-72182D01*
X58682Y-72182D01*
X58682Y-72590D01*
X58624Y-72590D01*
X58624Y-72182D01*
X58184Y-72182D01*
X58137Y-72264D01*
X58168Y-72362D01*
X58218Y-72452D01*
X58285Y-72531D01*
X58352Y-72585D01*
X58227Y-72572D01*
X58060Y-72522D01*
X57907Y-72441D01*
X57773Y-72331D01*
X57662Y-72197D01*
X57579Y-72044D01*
X57528Y-71878D01*
X57509Y-71701D01*
X57509Y-71699D01*
X57509Y-68805D01*
X57527Y-68627D01*
X57577Y-68460D01*
X57658Y-68307D01*
X57768Y-68173D01*
X57902Y-68062D01*
X58055Y-67979D01*
X58221Y-67928D01*
X58398Y-67909D01*
X58400Y-67909D01*
X63394Y-67909D01*
X63572Y-67927D01*
X63739Y-67977D01*
X63892Y-68058D01*
X64026Y-68168D01*
X64137Y-68302D01*
X64220Y-68455D01*
X64271Y-68621D01*
X64290Y-68798D01*
X64290Y-68800D01*
X64290Y-71694D01*
M02*
