G04 (created by PCBNEW (2013-07-07 BZR 4022)-stable) date 8/24/2014 7:03:50 PM*
%MOIN*%
G04 Gerber Fmt 3.4, Leading zero omitted, Abs format*
%FSLAX34Y34*%
G01*
G70*
G90*
G04 APERTURE LIST*
%ADD10C,0.00590551*%
%ADD11C,0.011811*%
G04 APERTURE END LIST*
G54D10*
G54D11*
X64244Y-69839D02*
X64244Y-69248D01*
X64104Y-69248D01*
X64020Y-69276D01*
X63963Y-69332D01*
X63935Y-69389D01*
X63907Y-69501D01*
X63907Y-69585D01*
X63935Y-69698D01*
X63963Y-69754D01*
X64020Y-69810D01*
X64104Y-69839D01*
X64244Y-69839D01*
X63654Y-69839D02*
X63654Y-69445D01*
X63654Y-69248D02*
X63682Y-69276D01*
X63654Y-69304D01*
X63626Y-69276D01*
X63654Y-69248D01*
X63654Y-69304D01*
X63457Y-69445D02*
X63232Y-69445D01*
X63373Y-69839D02*
X63373Y-69332D01*
X63345Y-69276D01*
X63288Y-69248D01*
X63232Y-69248D01*
X63120Y-69445D02*
X62895Y-69445D01*
X63035Y-69839D02*
X63035Y-69332D01*
X63007Y-69276D01*
X62951Y-69248D01*
X62895Y-69248D01*
X62473Y-69810D02*
X62529Y-69839D01*
X62642Y-69839D01*
X62698Y-69810D01*
X62726Y-69754D01*
X62726Y-69529D01*
X62698Y-69473D01*
X62642Y-69445D01*
X62529Y-69445D01*
X62473Y-69473D01*
X62445Y-69529D01*
X62445Y-69585D01*
X62726Y-69642D01*
X62192Y-69839D02*
X62192Y-69445D01*
X62192Y-69557D02*
X62164Y-69501D01*
X62135Y-69473D01*
X62079Y-69445D01*
X62023Y-69445D01*
X61601Y-69810D02*
X61657Y-69839D01*
X61770Y-69839D01*
X61826Y-69810D01*
X61854Y-69754D01*
X61854Y-69529D01*
X61826Y-69473D01*
X61770Y-69445D01*
X61657Y-69445D01*
X61601Y-69473D01*
X61573Y-69529D01*
X61573Y-69585D01*
X61854Y-69642D01*
X61320Y-69445D02*
X61320Y-69839D01*
X61320Y-69501D02*
X61292Y-69473D01*
X61235Y-69445D01*
X61151Y-69445D01*
X61095Y-69473D01*
X61067Y-69529D01*
X61067Y-69839D01*
X60870Y-69445D02*
X60645Y-69445D01*
X60786Y-69248D02*
X60786Y-69754D01*
X60757Y-69810D01*
X60701Y-69839D01*
X60645Y-69839D01*
X60448Y-69839D02*
X60448Y-69445D01*
X60448Y-69248D02*
X60476Y-69276D01*
X60448Y-69304D01*
X60420Y-69276D01*
X60448Y-69248D01*
X60448Y-69304D01*
X59914Y-69839D02*
X59914Y-69529D01*
X59942Y-69473D01*
X59998Y-69445D01*
X60111Y-69445D01*
X60167Y-69473D01*
X59914Y-69810D02*
X59970Y-69839D01*
X60111Y-69839D01*
X60167Y-69810D01*
X60195Y-69754D01*
X60195Y-69698D01*
X60167Y-69642D01*
X60111Y-69614D01*
X59970Y-69614D01*
X59914Y-69585D01*
X59548Y-69839D02*
X59604Y-69810D01*
X59633Y-69754D01*
X59633Y-69248D01*
X64385Y-70474D02*
X64188Y-70474D01*
X64104Y-70783D02*
X64385Y-70783D01*
X64385Y-70193D01*
X64104Y-70193D01*
X63766Y-70783D02*
X63823Y-70755D01*
X63851Y-70699D01*
X63851Y-70193D01*
X63316Y-70755D02*
X63373Y-70783D01*
X63485Y-70783D01*
X63541Y-70755D01*
X63570Y-70699D01*
X63570Y-70474D01*
X63541Y-70418D01*
X63485Y-70390D01*
X63373Y-70390D01*
X63316Y-70418D01*
X63288Y-70474D01*
X63288Y-70530D01*
X63570Y-70587D01*
X62782Y-70755D02*
X62838Y-70783D01*
X62951Y-70783D01*
X63007Y-70755D01*
X63035Y-70727D01*
X63063Y-70671D01*
X63063Y-70502D01*
X63035Y-70446D01*
X63007Y-70418D01*
X62951Y-70390D01*
X62838Y-70390D01*
X62782Y-70418D01*
X62613Y-70390D02*
X62388Y-70390D01*
X62529Y-70193D02*
X62529Y-70699D01*
X62501Y-70755D01*
X62445Y-70783D01*
X62388Y-70783D01*
X62192Y-70783D02*
X62192Y-70390D01*
X62192Y-70502D02*
X62164Y-70446D01*
X62135Y-70418D01*
X62079Y-70390D01*
X62023Y-70390D01*
X61742Y-70783D02*
X61798Y-70755D01*
X61826Y-70727D01*
X61854Y-70671D01*
X61854Y-70502D01*
X61826Y-70446D01*
X61798Y-70418D01*
X61742Y-70390D01*
X61657Y-70390D01*
X61601Y-70418D01*
X61573Y-70446D01*
X61545Y-70502D01*
X61545Y-70671D01*
X61573Y-70727D01*
X61601Y-70755D01*
X61657Y-70783D01*
X61742Y-70783D01*
X61320Y-70755D02*
X61264Y-70783D01*
X61151Y-70783D01*
X61095Y-70755D01*
X61067Y-70699D01*
X61067Y-70671D01*
X61095Y-70615D01*
X61151Y-70587D01*
X61235Y-70587D01*
X61292Y-70558D01*
X61320Y-70502D01*
X61320Y-70474D01*
X61292Y-70418D01*
X61235Y-70390D01*
X61151Y-70390D01*
X61095Y-70418D01*
X60561Y-70755D02*
X60617Y-70783D01*
X60729Y-70783D01*
X60786Y-70755D01*
X60814Y-70727D01*
X60842Y-70671D01*
X60842Y-70502D01*
X60814Y-70446D01*
X60786Y-70418D01*
X60729Y-70390D01*
X60617Y-70390D01*
X60561Y-70418D01*
X60223Y-70783D02*
X60279Y-70755D01*
X60307Y-70727D01*
X60336Y-70671D01*
X60336Y-70502D01*
X60307Y-70446D01*
X60279Y-70418D01*
X60223Y-70390D01*
X60139Y-70390D01*
X60083Y-70418D01*
X60054Y-70446D01*
X60026Y-70502D01*
X60026Y-70671D01*
X60054Y-70727D01*
X60083Y-70755D01*
X60139Y-70783D01*
X60223Y-70783D01*
X59773Y-70390D02*
X59773Y-70980D01*
X59773Y-70418D02*
X59717Y-70390D01*
X59604Y-70390D01*
X59548Y-70418D01*
X59520Y-70446D01*
X59492Y-70502D01*
X59492Y-70671D01*
X59520Y-70727D01*
X59548Y-70755D01*
X59604Y-70783D01*
X59717Y-70783D01*
X59773Y-70755D01*
X59014Y-70755D02*
X59070Y-70783D01*
X59183Y-70783D01*
X59239Y-70755D01*
X59267Y-70699D01*
X59267Y-70474D01*
X59239Y-70418D01*
X59183Y-70390D01*
X59070Y-70390D01*
X59014Y-70418D01*
X58986Y-70474D01*
X58986Y-70530D01*
X59267Y-70587D01*
X64568Y-71194D02*
X64540Y-71166D01*
X64484Y-71138D01*
X64343Y-71138D01*
X64287Y-71166D01*
X64259Y-71194D01*
X64230Y-71250D01*
X64230Y-71306D01*
X64259Y-71391D01*
X64596Y-71728D01*
X64230Y-71728D01*
X63865Y-71138D02*
X63809Y-71138D01*
X63752Y-71166D01*
X63724Y-71194D01*
X63696Y-71250D01*
X63668Y-71363D01*
X63668Y-71503D01*
X63696Y-71616D01*
X63724Y-71672D01*
X63752Y-71700D01*
X63809Y-71728D01*
X63865Y-71728D01*
X63921Y-71700D01*
X63949Y-71672D01*
X63977Y-71616D01*
X64005Y-71503D01*
X64005Y-71363D01*
X63977Y-71250D01*
X63949Y-71194D01*
X63921Y-71166D01*
X63865Y-71138D01*
X63106Y-71728D02*
X63443Y-71728D01*
X63274Y-71728D02*
X63274Y-71138D01*
X63331Y-71222D01*
X63387Y-71278D01*
X63443Y-71306D01*
X62599Y-71335D02*
X62599Y-71728D01*
X62740Y-71110D02*
X62881Y-71531D01*
X62515Y-71531D01*
X62290Y-71503D02*
X61840Y-71503D01*
X61446Y-71138D02*
X61390Y-71138D01*
X61334Y-71166D01*
X61306Y-71194D01*
X61278Y-71250D01*
X61250Y-71363D01*
X61250Y-71503D01*
X61278Y-71616D01*
X61306Y-71672D01*
X61334Y-71700D01*
X61390Y-71728D01*
X61446Y-71728D01*
X61503Y-71700D01*
X61531Y-71672D01*
X61559Y-71616D01*
X61587Y-71503D01*
X61587Y-71363D01*
X61559Y-71250D01*
X61531Y-71194D01*
X61503Y-71166D01*
X61446Y-71138D01*
X60912Y-71391D02*
X60968Y-71363D01*
X60996Y-71335D01*
X61025Y-71278D01*
X61025Y-71250D01*
X60996Y-71194D01*
X60968Y-71166D01*
X60912Y-71138D01*
X60800Y-71138D01*
X60743Y-71166D01*
X60715Y-71194D01*
X60687Y-71250D01*
X60687Y-71278D01*
X60715Y-71335D01*
X60743Y-71363D01*
X60800Y-71391D01*
X60912Y-71391D01*
X60968Y-71419D01*
X60996Y-71447D01*
X61025Y-71503D01*
X61025Y-71616D01*
X60996Y-71672D01*
X60968Y-71700D01*
X60912Y-71728D01*
X60800Y-71728D01*
X60743Y-71700D01*
X60715Y-71672D01*
X60687Y-71616D01*
X60687Y-71503D01*
X60715Y-71447D01*
X60743Y-71419D01*
X60800Y-71391D01*
X60434Y-71503D02*
X59984Y-71503D01*
X59731Y-71194D02*
X59703Y-71166D01*
X59647Y-71138D01*
X59506Y-71138D01*
X59450Y-71166D01*
X59422Y-71194D01*
X59394Y-71250D01*
X59394Y-71306D01*
X59422Y-71391D01*
X59759Y-71728D01*
X59394Y-71728D01*
X58887Y-71335D02*
X58887Y-71728D01*
X59028Y-71110D02*
X59169Y-71531D01*
X58803Y-71531D01*
M02*
