G04 (created by PCBNEW (2013-07-07 BZR 4022)-stable) date 8/24/2014 7:03:50 PM*
%MOIN*%
G04 Gerber Fmt 3.4, Leading zero omitted, Abs format*
%FSLAX34Y34*%
G01*
G70*
G90*
G04 APERTURE LIST*
%ADD10C,0.00590551*%
%ADD11R,0.0394X0.0276*%
%ADD12R,0.025X0.045*%
%ADD13C,0.0590551*%
%ADD14C,0.066*%
%ADD15R,0.0472X0.0472*%
%ADD16C,0.15*%
%ADD17C,0.12*%
G04 APERTURE END LIST*
G54D10*
G54D11*
X59900Y-68700D03*
X58900Y-69075D03*
X58900Y-68325D03*
X59900Y-71700D03*
X58900Y-72075D03*
X58900Y-71325D03*
X59900Y-70200D03*
X58900Y-70575D03*
X58900Y-69825D03*
X64500Y-68700D03*
X63500Y-69075D03*
X63500Y-68325D03*
X64500Y-70200D03*
X63500Y-70575D03*
X63500Y-69825D03*
X64500Y-71700D03*
X63500Y-72075D03*
X63500Y-71325D03*
G54D12*
X61300Y-71700D03*
X60700Y-71700D03*
X61300Y-70200D03*
X60700Y-70200D03*
X61300Y-68700D03*
X60700Y-68700D03*
X62800Y-71700D03*
X62200Y-71700D03*
X62800Y-70200D03*
X62200Y-70200D03*
X62800Y-68700D03*
X62200Y-68700D03*
G54D13*
X63300Y-67300D03*
X60100Y-67300D03*
G54D14*
X58800Y-74550D03*
X58800Y-73550D03*
X64600Y-74550D03*
X64600Y-73550D03*
G54D15*
X61213Y-73850D03*
X60387Y-73850D03*
X63013Y-73850D03*
X62187Y-73850D03*
G54D16*
X57200Y-75400D03*
G54D17*
X60900Y-75400D03*
G54D16*
X59100Y-76900D03*
X64100Y-76900D03*
G54D17*
X62300Y-75400D03*
G54D16*
X66000Y-75400D03*
M02*
