G04 (created by PCBNEW (2013-june-11)-stable) date Fri 10 Oct 2014 02:22:22 PM PDT*
%MOIN*%
G04 Gerber Fmt 3.4, Leading zero omitted, Abs format*
%FSLAX34Y34*%
G01*
G70*
G90*
G04 APERTURE LIST*
%ADD10C,0.00590551*%
%ADD11C,0.00787402*%
%ADD12C,0.01*%
%ADD13C,0.005*%
%ADD14C,0.0026*%
%ADD15C,0.004*%
%ADD16C,0.002*%
G04 APERTURE END LIST*
G54D10*
G54D11*
X60750Y-69150D02*
X60250Y-69150D01*
X61050Y-69150D02*
X61550Y-69150D01*
X61050Y-70250D02*
X61550Y-70250D01*
X60250Y-70250D02*
X60750Y-70250D01*
G54D12*
X61147Y-71609D02*
X61452Y-71609D01*
X61300Y-71761D02*
X61300Y-71457D01*
X60147Y-71609D02*
X60452Y-71609D01*
X60300Y-71761D02*
X60300Y-71457D01*
X63961Y-69214D02*
X63561Y-69214D01*
X63561Y-69061D01*
X63580Y-69023D01*
X63600Y-69004D01*
X63638Y-68985D01*
X63695Y-68985D01*
X63733Y-69004D01*
X63752Y-69023D01*
X63771Y-69061D01*
X63771Y-69214D01*
X63961Y-68814D02*
X63561Y-68814D01*
X63961Y-68585D01*
X63561Y-68585D01*
X63961Y-68395D02*
X63561Y-68395D01*
X63561Y-68242D01*
X63580Y-68204D01*
X63600Y-68185D01*
X63638Y-68166D01*
X63695Y-68166D01*
X63733Y-68185D01*
X63752Y-68204D01*
X63771Y-68242D01*
X63771Y-68395D01*
X58211Y-69223D02*
X57811Y-69223D01*
X58211Y-68995D01*
X57811Y-68995D01*
X58211Y-68804D02*
X57811Y-68804D01*
X57811Y-68652D01*
X57830Y-68614D01*
X57850Y-68595D01*
X57888Y-68576D01*
X57945Y-68576D01*
X57983Y-68595D01*
X58002Y-68614D01*
X58021Y-68652D01*
X58021Y-68804D01*
X58211Y-68404D02*
X57811Y-68404D01*
X58211Y-68176D01*
X57811Y-68176D01*
G54D13*
X62200Y-68400D02*
X62400Y-68100D01*
X62200Y-69100D02*
X62200Y-68075D01*
X62200Y-68075D02*
X62800Y-68075D01*
X62800Y-68075D02*
X62800Y-69100D01*
X62800Y-69100D02*
X62200Y-69100D01*
X59100Y-68400D02*
X59300Y-68100D01*
X59100Y-69100D02*
X59100Y-68075D01*
X59100Y-68075D02*
X59700Y-68075D01*
X59700Y-68075D02*
X59700Y-69100D01*
X59700Y-69100D02*
X59100Y-69100D01*
X59100Y-71000D02*
X59300Y-70700D01*
X59100Y-71700D02*
X59100Y-70675D01*
X59100Y-70675D02*
X59700Y-70675D01*
X59700Y-70675D02*
X59700Y-71700D01*
X59700Y-71700D02*
X59100Y-71700D01*
X59100Y-69700D02*
X59300Y-69400D01*
X59100Y-70400D02*
X59100Y-69375D01*
X59100Y-69375D02*
X59700Y-69375D01*
X59700Y-69375D02*
X59700Y-70400D01*
X59700Y-70400D02*
X59100Y-70400D01*
X62200Y-69700D02*
X62400Y-69400D01*
X62200Y-70400D02*
X62200Y-69375D01*
X62200Y-69375D02*
X62800Y-69375D01*
X62800Y-69375D02*
X62800Y-70400D01*
X62800Y-70400D02*
X62200Y-70400D01*
X62200Y-71000D02*
X62400Y-70700D01*
X62200Y-71700D02*
X62200Y-70675D01*
X62200Y-70675D02*
X62800Y-70675D01*
X62800Y-70675D02*
X62800Y-71700D01*
X62800Y-71700D02*
X62200Y-71700D01*
X60750Y-70350D02*
X60750Y-71250D01*
X60750Y-71250D02*
X60250Y-71250D01*
X60250Y-71250D02*
X60250Y-70350D01*
X60250Y-70350D02*
X60750Y-70350D01*
X60750Y-69250D02*
X60750Y-70150D01*
X60750Y-70150D02*
X60250Y-70150D01*
X60250Y-70150D02*
X60250Y-69250D01*
X60250Y-69250D02*
X60750Y-69250D01*
X60250Y-69050D02*
X60250Y-68150D01*
X60250Y-68150D02*
X60750Y-68150D01*
X60750Y-68150D02*
X60750Y-69050D01*
X60750Y-69050D02*
X60250Y-69050D01*
X61550Y-70350D02*
X61550Y-71250D01*
X61550Y-71250D02*
X61050Y-71250D01*
X61050Y-71250D02*
X61050Y-70350D01*
X61050Y-70350D02*
X61550Y-70350D01*
X61050Y-70150D02*
X61050Y-69250D01*
X61050Y-69250D02*
X61550Y-69250D01*
X61550Y-69250D02*
X61550Y-70150D01*
X61550Y-70150D02*
X61050Y-70150D01*
X61050Y-69050D02*
X61050Y-68150D01*
X61050Y-68150D02*
X61550Y-68150D01*
X61550Y-68150D02*
X61550Y-69050D01*
X61550Y-69050D02*
X61050Y-69050D01*
G54D14*
X59804Y-72082D02*
X59804Y-71954D01*
X59804Y-71954D02*
X59607Y-71954D01*
X59607Y-72082D02*
X59607Y-71954D01*
X59804Y-72082D02*
X59607Y-72082D01*
X59804Y-72327D02*
X59804Y-72268D01*
X59804Y-72268D02*
X59705Y-72268D01*
X59705Y-72327D02*
X59705Y-72268D01*
X59804Y-72327D02*
X59705Y-72327D01*
X59804Y-72132D02*
X59804Y-72073D01*
X59804Y-72073D02*
X59705Y-72073D01*
X59705Y-72132D02*
X59705Y-72073D01*
X59804Y-72132D02*
X59705Y-72132D01*
X59804Y-72278D02*
X59804Y-72122D01*
X59804Y-72122D02*
X59735Y-72122D01*
X59735Y-72278D02*
X59735Y-72122D01*
X59804Y-72278D02*
X59735Y-72278D01*
X60393Y-72082D02*
X60393Y-71954D01*
X60393Y-71954D02*
X60196Y-71954D01*
X60196Y-72082D02*
X60196Y-71954D01*
X60393Y-72082D02*
X60196Y-72082D01*
X60393Y-72446D02*
X60393Y-72318D01*
X60393Y-72318D02*
X60196Y-72318D01*
X60196Y-72446D02*
X60196Y-72318D01*
X60393Y-72446D02*
X60196Y-72446D01*
X60295Y-72132D02*
X60295Y-72073D01*
X60295Y-72073D02*
X60196Y-72073D01*
X60196Y-72132D02*
X60196Y-72073D01*
X60295Y-72132D02*
X60196Y-72132D01*
X60295Y-72327D02*
X60295Y-72268D01*
X60295Y-72268D02*
X60196Y-72268D01*
X60196Y-72327D02*
X60196Y-72268D01*
X60295Y-72327D02*
X60196Y-72327D01*
X60265Y-72278D02*
X60265Y-72122D01*
X60265Y-72122D02*
X60196Y-72122D01*
X60196Y-72278D02*
X60196Y-72122D01*
X60265Y-72278D02*
X60196Y-72278D01*
X60000Y-72239D02*
X60000Y-72161D01*
X60000Y-72161D02*
X59922Y-72161D01*
X59922Y-72239D02*
X59922Y-72161D01*
X60000Y-72239D02*
X59922Y-72239D01*
X59804Y-72436D02*
X59804Y-72318D01*
X59804Y-72318D02*
X59686Y-72318D01*
X59686Y-72436D02*
X59686Y-72318D01*
X59804Y-72436D02*
X59686Y-72436D01*
X59636Y-72446D02*
X59636Y-72357D01*
X59636Y-72357D02*
X59607Y-72357D01*
X59607Y-72446D02*
X59607Y-72357D01*
X59636Y-72446D02*
X59607Y-72446D01*
G54D15*
X59794Y-71974D02*
X60206Y-71974D01*
X60196Y-72426D02*
X59636Y-72426D01*
G54D16*
X59694Y-72377D02*
G75*
G03X59694Y-72377I-28J0D01*
G74*
G01*
G54D15*
X59607Y-72337D02*
G75*
G03X59607Y-72063I0J137D01*
G74*
G01*
X60393Y-72063D02*
G75*
G03X60393Y-72337I0J-137D01*
G74*
G01*
G54D14*
X61796Y-72318D02*
X61796Y-72446D01*
X61796Y-72446D02*
X61993Y-72446D01*
X61993Y-72318D02*
X61993Y-72446D01*
X61796Y-72318D02*
X61993Y-72318D01*
X61796Y-72073D02*
X61796Y-72132D01*
X61796Y-72132D02*
X61895Y-72132D01*
X61895Y-72073D02*
X61895Y-72132D01*
X61796Y-72073D02*
X61895Y-72073D01*
X61796Y-72268D02*
X61796Y-72327D01*
X61796Y-72327D02*
X61895Y-72327D01*
X61895Y-72268D02*
X61895Y-72327D01*
X61796Y-72268D02*
X61895Y-72268D01*
X61796Y-72122D02*
X61796Y-72278D01*
X61796Y-72278D02*
X61865Y-72278D01*
X61865Y-72122D02*
X61865Y-72278D01*
X61796Y-72122D02*
X61865Y-72122D01*
X61207Y-72318D02*
X61207Y-72446D01*
X61207Y-72446D02*
X61404Y-72446D01*
X61404Y-72318D02*
X61404Y-72446D01*
X61207Y-72318D02*
X61404Y-72318D01*
X61207Y-71954D02*
X61207Y-72082D01*
X61207Y-72082D02*
X61404Y-72082D01*
X61404Y-71954D02*
X61404Y-72082D01*
X61207Y-71954D02*
X61404Y-71954D01*
X61305Y-72268D02*
X61305Y-72327D01*
X61305Y-72327D02*
X61404Y-72327D01*
X61404Y-72268D02*
X61404Y-72327D01*
X61305Y-72268D02*
X61404Y-72268D01*
X61305Y-72073D02*
X61305Y-72132D01*
X61305Y-72132D02*
X61404Y-72132D01*
X61404Y-72073D02*
X61404Y-72132D01*
X61305Y-72073D02*
X61404Y-72073D01*
X61335Y-72122D02*
X61335Y-72278D01*
X61335Y-72278D02*
X61404Y-72278D01*
X61404Y-72122D02*
X61404Y-72278D01*
X61335Y-72122D02*
X61404Y-72122D01*
X61600Y-72161D02*
X61600Y-72239D01*
X61600Y-72239D02*
X61678Y-72239D01*
X61678Y-72161D02*
X61678Y-72239D01*
X61600Y-72161D02*
X61678Y-72161D01*
X61796Y-71964D02*
X61796Y-72082D01*
X61796Y-72082D02*
X61914Y-72082D01*
X61914Y-71964D02*
X61914Y-72082D01*
X61796Y-71964D02*
X61914Y-71964D01*
X61964Y-71954D02*
X61964Y-72043D01*
X61964Y-72043D02*
X61993Y-72043D01*
X61993Y-71954D02*
X61993Y-72043D01*
X61964Y-71954D02*
X61993Y-71954D01*
G54D15*
X61806Y-72426D02*
X61394Y-72426D01*
X61404Y-71974D02*
X61964Y-71974D01*
G54D16*
X61962Y-72023D02*
G75*
G03X61962Y-72023I-28J0D01*
G74*
G01*
G54D15*
X61993Y-72063D02*
G75*
G03X61993Y-72337I0J-137D01*
G74*
G01*
X61207Y-72337D02*
G75*
G03X61207Y-72063I0J137D01*
G74*
G01*
G54D10*
X62728Y-71948D02*
X62940Y-71735D01*
X63329Y-71134D02*
X63541Y-70922D01*
X63541Y-71134D02*
X63329Y-70922D01*
M02*
