G04 (created by PCBNEW (2013-07-07 BZR 4022)-stable) date 8/24/2014 7:03:50 PM*
%MOIN*%
G04 Gerber Fmt 3.4, Leading zero omitted, Abs format*
%FSLAX34Y34*%
G01*
G70*
G90*
G04 APERTURE LIST*
%ADD10C,0.00590551*%
%ADD11C,0.01*%
%ADD12C,0.00787402*%
%ADD13C,0.011811*%
%ADD14C,0.005*%
%ADD15C,0.006*%
%ADD16C,0.0026*%
%ADD17C,0.004*%
%ADD18C,0.002*%
%ADD19C,0.0075*%
%ADD20C,0.00984252*%
G04 APERTURE END LIST*
G54D10*
G54D11*
X64428Y-67542D02*
X64428Y-66942D01*
X64657Y-66942D01*
X64714Y-66971D01*
X64742Y-67000D01*
X64771Y-67057D01*
X64771Y-67142D01*
X64742Y-67200D01*
X64714Y-67228D01*
X64657Y-67257D01*
X64428Y-67257D01*
X65028Y-67542D02*
X65028Y-66942D01*
X65371Y-67542D01*
X65371Y-66942D01*
X65657Y-67542D02*
X65657Y-66942D01*
X65885Y-66942D01*
X65942Y-66971D01*
X65971Y-67000D01*
X66000Y-67057D01*
X66000Y-67142D01*
X65971Y-67200D01*
X65942Y-67228D01*
X65885Y-67257D01*
X65657Y-67257D01*
X57414Y-67542D02*
X57414Y-66942D01*
X57757Y-67542D01*
X57757Y-66942D01*
X58042Y-67542D02*
X58042Y-66942D01*
X58271Y-66942D01*
X58328Y-66971D01*
X58357Y-67000D01*
X58385Y-67057D01*
X58385Y-67142D01*
X58357Y-67200D01*
X58328Y-67228D01*
X58271Y-67257D01*
X58042Y-67257D01*
X58642Y-67542D02*
X58642Y-66942D01*
X58985Y-67542D01*
X58985Y-66942D01*
G54D12*
X62600Y-68200D02*
X63000Y-68200D01*
X61000Y-68200D02*
X60500Y-68200D01*
X61000Y-69700D02*
X60500Y-69700D01*
X61000Y-71200D02*
X60500Y-71200D01*
X62600Y-71200D02*
X63000Y-71200D01*
X63000Y-69700D02*
X62600Y-69700D01*
G54D13*
X65350Y-72942D02*
X65307Y-72900D01*
X65264Y-72814D01*
X65264Y-72600D01*
X65307Y-72514D01*
X65350Y-72471D01*
X65435Y-72428D01*
X65521Y-72428D01*
X65650Y-72471D01*
X66164Y-72985D01*
X66164Y-72428D01*
X66164Y-72042D02*
X65264Y-72042D01*
X66164Y-71528D01*
X65264Y-71528D01*
X65264Y-71185D02*
X65264Y-70628D01*
X65607Y-70928D01*
X65607Y-70800D01*
X65650Y-70714D01*
X65692Y-70671D01*
X65778Y-70628D01*
X65992Y-70628D01*
X66078Y-70671D01*
X66121Y-70714D01*
X66164Y-70800D01*
X66164Y-71057D01*
X66121Y-71142D01*
X66078Y-71185D01*
X66164Y-70200D02*
X66164Y-70028D01*
X66121Y-69942D01*
X66078Y-69900D01*
X65950Y-69814D01*
X65778Y-69771D01*
X65435Y-69771D01*
X65350Y-69814D01*
X65307Y-69857D01*
X65264Y-69942D01*
X65264Y-70114D01*
X65307Y-70200D01*
X65350Y-70242D01*
X65435Y-70285D01*
X65650Y-70285D01*
X65735Y-70242D01*
X65778Y-70200D01*
X65821Y-70114D01*
X65821Y-69942D01*
X65778Y-69857D01*
X65735Y-69814D01*
X65650Y-69771D01*
X65264Y-69214D02*
X65264Y-69128D01*
X65307Y-69042D01*
X65350Y-69000D01*
X65435Y-68957D01*
X65607Y-68914D01*
X65821Y-68914D01*
X65992Y-68957D01*
X66078Y-69000D01*
X66121Y-69042D01*
X66164Y-69128D01*
X66164Y-69214D01*
X66121Y-69300D01*
X66078Y-69342D01*
X65992Y-69385D01*
X65821Y-69428D01*
X65607Y-69428D01*
X65435Y-69385D01*
X65350Y-69342D01*
X65307Y-69300D01*
X65264Y-69214D01*
X65264Y-68142D02*
X65264Y-68314D01*
X65307Y-68400D01*
X65350Y-68442D01*
X65478Y-68528D01*
X65650Y-68571D01*
X65992Y-68571D01*
X66078Y-68528D01*
X66121Y-68485D01*
X66164Y-68400D01*
X66164Y-68228D01*
X66121Y-68142D01*
X66078Y-68100D01*
X65992Y-68057D01*
X65778Y-68057D01*
X65692Y-68100D01*
X65650Y-68142D01*
X65607Y-68228D01*
X65607Y-68400D01*
X65650Y-68485D01*
X65692Y-68528D01*
X65778Y-68571D01*
X57150Y-72942D02*
X57107Y-72900D01*
X57064Y-72814D01*
X57064Y-72600D01*
X57107Y-72514D01*
X57150Y-72471D01*
X57235Y-72428D01*
X57321Y-72428D01*
X57450Y-72471D01*
X57964Y-72985D01*
X57964Y-72428D01*
X57964Y-72042D02*
X57064Y-72042D01*
X57964Y-71528D01*
X57064Y-71528D01*
X57064Y-71185D02*
X57064Y-70628D01*
X57407Y-70928D01*
X57407Y-70800D01*
X57450Y-70714D01*
X57492Y-70671D01*
X57578Y-70628D01*
X57792Y-70628D01*
X57878Y-70671D01*
X57921Y-70714D01*
X57964Y-70800D01*
X57964Y-71057D01*
X57921Y-71142D01*
X57878Y-71185D01*
X57964Y-70200D02*
X57964Y-70028D01*
X57921Y-69942D01*
X57878Y-69900D01*
X57750Y-69814D01*
X57578Y-69771D01*
X57235Y-69771D01*
X57150Y-69814D01*
X57107Y-69857D01*
X57064Y-69942D01*
X57064Y-70114D01*
X57107Y-70200D01*
X57150Y-70242D01*
X57235Y-70285D01*
X57450Y-70285D01*
X57535Y-70242D01*
X57578Y-70200D01*
X57621Y-70114D01*
X57621Y-69942D01*
X57578Y-69857D01*
X57535Y-69814D01*
X57450Y-69771D01*
X57064Y-69214D02*
X57064Y-69128D01*
X57107Y-69042D01*
X57150Y-69000D01*
X57235Y-68957D01*
X57407Y-68914D01*
X57621Y-68914D01*
X57792Y-68957D01*
X57878Y-69000D01*
X57921Y-69042D01*
X57964Y-69128D01*
X57964Y-69214D01*
X57921Y-69300D01*
X57878Y-69342D01*
X57792Y-69385D01*
X57621Y-69428D01*
X57407Y-69428D01*
X57235Y-69385D01*
X57150Y-69342D01*
X57107Y-69300D01*
X57064Y-69214D01*
X57364Y-68142D02*
X57964Y-68142D01*
X57021Y-68357D02*
X57664Y-68571D01*
X57664Y-68014D01*
G54D11*
X63847Y-75009D02*
X64152Y-75009D01*
X64000Y-75161D02*
X64000Y-74857D01*
X59247Y-75009D02*
X59552Y-75009D01*
X59400Y-75161D02*
X59400Y-74857D01*
X63347Y-74309D02*
X63652Y-74309D01*
X63500Y-74461D02*
X63500Y-74157D01*
X61497Y-74309D02*
X61802Y-74309D01*
X61650Y-74461D02*
X61650Y-74157D01*
G54D14*
X59100Y-68500D02*
X59300Y-68200D01*
X59100Y-69200D02*
X59100Y-68175D01*
X59100Y-68175D02*
X59700Y-68175D01*
X59700Y-68175D02*
X59700Y-69200D01*
X59700Y-69200D02*
X59100Y-69200D01*
X59100Y-71500D02*
X59300Y-71200D01*
X59100Y-72200D02*
X59100Y-71175D01*
X59100Y-71175D02*
X59700Y-71175D01*
X59700Y-71175D02*
X59700Y-72200D01*
X59700Y-72200D02*
X59100Y-72200D01*
X59100Y-70000D02*
X59300Y-69700D01*
X59100Y-70700D02*
X59100Y-69675D01*
X59100Y-69675D02*
X59700Y-69675D01*
X59700Y-69675D02*
X59700Y-70700D01*
X59700Y-70700D02*
X59100Y-70700D01*
X63700Y-68500D02*
X63900Y-68200D01*
X63700Y-69200D02*
X63700Y-68175D01*
X63700Y-68175D02*
X64300Y-68175D01*
X64300Y-68175D02*
X64300Y-69200D01*
X64300Y-69200D02*
X63700Y-69200D01*
X63700Y-70000D02*
X63900Y-69700D01*
X63700Y-70700D02*
X63700Y-69675D01*
X63700Y-69675D02*
X64300Y-69675D01*
X64300Y-69675D02*
X64300Y-70700D01*
X64300Y-70700D02*
X63700Y-70700D01*
X63700Y-71500D02*
X63900Y-71200D01*
X63700Y-72200D02*
X63700Y-71175D01*
X63700Y-71175D02*
X64300Y-71175D01*
X64300Y-71175D02*
X64300Y-72200D01*
X64300Y-72200D02*
X63700Y-72200D01*
X61450Y-71950D02*
X60550Y-71950D01*
X60550Y-71950D02*
X60550Y-71450D01*
X60550Y-71450D02*
X61450Y-71450D01*
X61450Y-71450D02*
X61450Y-71950D01*
X61450Y-70450D02*
X60550Y-70450D01*
X60550Y-70450D02*
X60550Y-69950D01*
X60550Y-69950D02*
X61450Y-69950D01*
X61450Y-69950D02*
X61450Y-70450D01*
X61450Y-68950D02*
X60550Y-68950D01*
X60550Y-68950D02*
X60550Y-68450D01*
X60550Y-68450D02*
X61450Y-68450D01*
X61450Y-68450D02*
X61450Y-68950D01*
X62950Y-71950D02*
X62050Y-71950D01*
X62050Y-71950D02*
X62050Y-71450D01*
X62050Y-71450D02*
X62950Y-71450D01*
X62950Y-71450D02*
X62950Y-71950D01*
X62950Y-70450D02*
X62050Y-70450D01*
X62050Y-70450D02*
X62050Y-69950D01*
X62050Y-69950D02*
X62950Y-69950D01*
X62950Y-69950D02*
X62950Y-70450D01*
X62950Y-68950D02*
X62050Y-68950D01*
X62050Y-68950D02*
X62050Y-68450D01*
X62050Y-68450D02*
X62950Y-68450D01*
X62950Y-68450D02*
X62950Y-68950D01*
G54D11*
X59300Y-73330D02*
X58300Y-73330D01*
G54D15*
X58415Y-74410D02*
G75*
G03X58800Y-74550I384J460D01*
G74*
G01*
X58800Y-74549D02*
G75*
G03X59197Y-74398I0J599D01*
G74*
G01*
X58800Y-73350D02*
G75*
G03X58410Y-73494I0J-599D01*
G74*
G01*
X59184Y-73489D02*
G75*
G03X58800Y-73350I-384J-460D01*
G74*
G01*
X58450Y-73462D02*
G75*
G03X58200Y-73950I349J-487D01*
G74*
G01*
X58200Y-73950D02*
G75*
G03X58439Y-74429I600J0D01*
G74*
G01*
X59399Y-73950D02*
G75*
G03X59168Y-73477I-599J0D01*
G74*
G01*
X59168Y-74423D02*
G75*
G03X59400Y-73950I-368J473D01*
G74*
G01*
X58550Y-73950D02*
G75*
G03X58800Y-74200I250J0D01*
G74*
G01*
X58400Y-73950D02*
G75*
G03X58800Y-74350I400J0D01*
G74*
G01*
X59050Y-73950D02*
G75*
G03X58800Y-73700I-250J0D01*
G74*
G01*
X59200Y-73950D02*
G75*
G03X58800Y-73550I-400J0D01*
G74*
G01*
G54D11*
X58286Y-73336D02*
G75*
G03X58000Y-73950I513J-613D01*
G74*
G01*
X58001Y-73950D02*
G75*
G03X58423Y-74654I799J0D01*
G74*
G01*
X59598Y-73948D02*
G75*
G03X59315Y-73339I-798J-1D01*
G74*
G01*
X59197Y-74644D02*
G75*
G03X59600Y-73950I-397J694D01*
G74*
G01*
X58420Y-74654D02*
G75*
G03X58800Y-74750I379J704D01*
G74*
G01*
X58800Y-74749D02*
G75*
G03X59218Y-74631I0J799D01*
G74*
G01*
X65100Y-73330D02*
X64100Y-73330D01*
G54D15*
X64215Y-74410D02*
G75*
G03X64600Y-74550I384J460D01*
G74*
G01*
X64600Y-74549D02*
G75*
G03X64997Y-74398I0J599D01*
G74*
G01*
X64600Y-73350D02*
G75*
G03X64210Y-73494I0J-599D01*
G74*
G01*
X64984Y-73489D02*
G75*
G03X64600Y-73350I-384J-460D01*
G74*
G01*
X64250Y-73462D02*
G75*
G03X64000Y-73950I349J-487D01*
G74*
G01*
X64000Y-73950D02*
G75*
G03X64239Y-74429I600J0D01*
G74*
G01*
X65199Y-73950D02*
G75*
G03X64968Y-73477I-599J0D01*
G74*
G01*
X64968Y-74423D02*
G75*
G03X65200Y-73950I-368J473D01*
G74*
G01*
X64350Y-73950D02*
G75*
G03X64600Y-74200I250J0D01*
G74*
G01*
X64200Y-73950D02*
G75*
G03X64600Y-74350I400J0D01*
G74*
G01*
X64850Y-73950D02*
G75*
G03X64600Y-73700I-250J0D01*
G74*
G01*
X65000Y-73950D02*
G75*
G03X64600Y-73550I-400J0D01*
G74*
G01*
G54D11*
X64086Y-73336D02*
G75*
G03X63800Y-73950I513J-613D01*
G74*
G01*
X63801Y-73950D02*
G75*
G03X64223Y-74654I799J0D01*
G74*
G01*
X65398Y-73948D02*
G75*
G03X65115Y-73339I-798J-1D01*
G74*
G01*
X64997Y-74644D02*
G75*
G03X65400Y-73950I-397J694D01*
G74*
G01*
X64220Y-74654D02*
G75*
G03X64600Y-74750I379J704D01*
G74*
G01*
X64600Y-74749D02*
G75*
G03X65018Y-74631I0J799D01*
G74*
G01*
G54D16*
X60604Y-73732D02*
X60604Y-73604D01*
X60604Y-73604D02*
X60407Y-73604D01*
X60407Y-73732D02*
X60407Y-73604D01*
X60604Y-73732D02*
X60407Y-73732D01*
X60604Y-73977D02*
X60604Y-73918D01*
X60604Y-73918D02*
X60505Y-73918D01*
X60505Y-73977D02*
X60505Y-73918D01*
X60604Y-73977D02*
X60505Y-73977D01*
X60604Y-73782D02*
X60604Y-73723D01*
X60604Y-73723D02*
X60505Y-73723D01*
X60505Y-73782D02*
X60505Y-73723D01*
X60604Y-73782D02*
X60505Y-73782D01*
X60604Y-73928D02*
X60604Y-73772D01*
X60604Y-73772D02*
X60535Y-73772D01*
X60535Y-73928D02*
X60535Y-73772D01*
X60604Y-73928D02*
X60535Y-73928D01*
X61193Y-73732D02*
X61193Y-73604D01*
X61193Y-73604D02*
X60996Y-73604D01*
X60996Y-73732D02*
X60996Y-73604D01*
X61193Y-73732D02*
X60996Y-73732D01*
X61193Y-74096D02*
X61193Y-73968D01*
X61193Y-73968D02*
X60996Y-73968D01*
X60996Y-74096D02*
X60996Y-73968D01*
X61193Y-74096D02*
X60996Y-74096D01*
X61095Y-73782D02*
X61095Y-73723D01*
X61095Y-73723D02*
X60996Y-73723D01*
X60996Y-73782D02*
X60996Y-73723D01*
X61095Y-73782D02*
X60996Y-73782D01*
X61095Y-73977D02*
X61095Y-73918D01*
X61095Y-73918D02*
X60996Y-73918D01*
X60996Y-73977D02*
X60996Y-73918D01*
X61095Y-73977D02*
X60996Y-73977D01*
X61065Y-73928D02*
X61065Y-73772D01*
X61065Y-73772D02*
X60996Y-73772D01*
X60996Y-73928D02*
X60996Y-73772D01*
X61065Y-73928D02*
X60996Y-73928D01*
X60800Y-73889D02*
X60800Y-73811D01*
X60800Y-73811D02*
X60722Y-73811D01*
X60722Y-73889D02*
X60722Y-73811D01*
X60800Y-73889D02*
X60722Y-73889D01*
X60604Y-74086D02*
X60604Y-73968D01*
X60604Y-73968D02*
X60486Y-73968D01*
X60486Y-74086D02*
X60486Y-73968D01*
X60604Y-74086D02*
X60486Y-74086D01*
X60436Y-74096D02*
X60436Y-74007D01*
X60436Y-74007D02*
X60407Y-74007D01*
X60407Y-74096D02*
X60407Y-74007D01*
X60436Y-74096D02*
X60407Y-74096D01*
G54D17*
X60594Y-73624D02*
X61006Y-73624D01*
X60996Y-74076D02*
X60436Y-74076D01*
G54D18*
X60494Y-74027D02*
G75*
G03X60494Y-74027I-28J0D01*
G74*
G01*
G54D17*
X60407Y-73987D02*
G75*
G03X60407Y-73713I0J137D01*
G74*
G01*
X61193Y-73713D02*
G75*
G03X61193Y-73987I0J-137D01*
G74*
G01*
G54D16*
X62404Y-73732D02*
X62404Y-73604D01*
X62404Y-73604D02*
X62207Y-73604D01*
X62207Y-73732D02*
X62207Y-73604D01*
X62404Y-73732D02*
X62207Y-73732D01*
X62404Y-73977D02*
X62404Y-73918D01*
X62404Y-73918D02*
X62305Y-73918D01*
X62305Y-73977D02*
X62305Y-73918D01*
X62404Y-73977D02*
X62305Y-73977D01*
X62404Y-73782D02*
X62404Y-73723D01*
X62404Y-73723D02*
X62305Y-73723D01*
X62305Y-73782D02*
X62305Y-73723D01*
X62404Y-73782D02*
X62305Y-73782D01*
X62404Y-73928D02*
X62404Y-73772D01*
X62404Y-73772D02*
X62335Y-73772D01*
X62335Y-73928D02*
X62335Y-73772D01*
X62404Y-73928D02*
X62335Y-73928D01*
X62993Y-73732D02*
X62993Y-73604D01*
X62993Y-73604D02*
X62796Y-73604D01*
X62796Y-73732D02*
X62796Y-73604D01*
X62993Y-73732D02*
X62796Y-73732D01*
X62993Y-74096D02*
X62993Y-73968D01*
X62993Y-73968D02*
X62796Y-73968D01*
X62796Y-74096D02*
X62796Y-73968D01*
X62993Y-74096D02*
X62796Y-74096D01*
X62895Y-73782D02*
X62895Y-73723D01*
X62895Y-73723D02*
X62796Y-73723D01*
X62796Y-73782D02*
X62796Y-73723D01*
X62895Y-73782D02*
X62796Y-73782D01*
X62895Y-73977D02*
X62895Y-73918D01*
X62895Y-73918D02*
X62796Y-73918D01*
X62796Y-73977D02*
X62796Y-73918D01*
X62895Y-73977D02*
X62796Y-73977D01*
X62865Y-73928D02*
X62865Y-73772D01*
X62865Y-73772D02*
X62796Y-73772D01*
X62796Y-73928D02*
X62796Y-73772D01*
X62865Y-73928D02*
X62796Y-73928D01*
X62600Y-73889D02*
X62600Y-73811D01*
X62600Y-73811D02*
X62522Y-73811D01*
X62522Y-73889D02*
X62522Y-73811D01*
X62600Y-73889D02*
X62522Y-73889D01*
X62404Y-74086D02*
X62404Y-73968D01*
X62404Y-73968D02*
X62286Y-73968D01*
X62286Y-74086D02*
X62286Y-73968D01*
X62404Y-74086D02*
X62286Y-74086D01*
X62236Y-74096D02*
X62236Y-74007D01*
X62236Y-74007D02*
X62207Y-74007D01*
X62207Y-74096D02*
X62207Y-74007D01*
X62236Y-74096D02*
X62207Y-74096D01*
G54D17*
X62394Y-73624D02*
X62806Y-73624D01*
X62796Y-74076D02*
X62236Y-74076D01*
G54D18*
X62294Y-74027D02*
G75*
G03X62294Y-74027I-28J0D01*
G74*
G01*
G54D17*
X62207Y-73987D02*
G75*
G03X62207Y-73713I0J137D01*
G74*
G01*
X62993Y-73713D02*
G75*
G03X62993Y-73987I0J-137D01*
G74*
G01*
G54D19*
X61428Y-71321D02*
X61257Y-71321D01*
X61342Y-71321D02*
X61342Y-71021D01*
X61314Y-71064D01*
X61285Y-71092D01*
X61257Y-71107D01*
X61614Y-71021D02*
X61642Y-71021D01*
X61671Y-71035D01*
X61685Y-71050D01*
X61700Y-71078D01*
X61714Y-71135D01*
X61714Y-71207D01*
X61700Y-71264D01*
X61685Y-71292D01*
X61671Y-71307D01*
X61642Y-71321D01*
X61614Y-71321D01*
X61585Y-71307D01*
X61571Y-71292D01*
X61557Y-71264D01*
X61542Y-71207D01*
X61542Y-71135D01*
X61557Y-71078D01*
X61571Y-71050D01*
X61585Y-71035D01*
X61614Y-71021D01*
X61900Y-71021D02*
X61928Y-71021D01*
X61957Y-71035D01*
X61971Y-71050D01*
X61985Y-71078D01*
X62000Y-71135D01*
X62000Y-71207D01*
X61985Y-71264D01*
X61971Y-71292D01*
X61957Y-71307D01*
X61928Y-71321D01*
X61900Y-71321D01*
X61871Y-71307D01*
X61857Y-71292D01*
X61842Y-71264D01*
X61828Y-71207D01*
X61828Y-71135D01*
X61842Y-71078D01*
X61857Y-71050D01*
X61871Y-71035D01*
X61900Y-71021D01*
X62114Y-71321D02*
X62185Y-71321D01*
X62185Y-71264D01*
X62157Y-71250D01*
X62128Y-71221D01*
X62114Y-71178D01*
X62114Y-71107D01*
X62128Y-71064D01*
X62157Y-71035D01*
X62200Y-71021D01*
X62257Y-71021D01*
X62300Y-71035D01*
X62328Y-71064D01*
X62342Y-71107D01*
X62342Y-71178D01*
X62328Y-71221D01*
X62300Y-71250D01*
X62271Y-71264D01*
X62271Y-71321D01*
X62342Y-71321D01*
X61278Y-69821D02*
X61107Y-69821D01*
X61192Y-69821D02*
X61192Y-69521D01*
X61164Y-69564D01*
X61135Y-69592D01*
X61107Y-69607D01*
X61464Y-69521D02*
X61492Y-69521D01*
X61521Y-69535D01*
X61535Y-69550D01*
X61550Y-69578D01*
X61564Y-69635D01*
X61564Y-69707D01*
X61550Y-69764D01*
X61535Y-69792D01*
X61521Y-69807D01*
X61492Y-69821D01*
X61464Y-69821D01*
X61435Y-69807D01*
X61421Y-69792D01*
X61407Y-69764D01*
X61392Y-69707D01*
X61392Y-69635D01*
X61407Y-69578D01*
X61421Y-69550D01*
X61435Y-69535D01*
X61464Y-69521D01*
X61750Y-69521D02*
X61778Y-69521D01*
X61807Y-69535D01*
X61821Y-69550D01*
X61835Y-69578D01*
X61850Y-69635D01*
X61850Y-69707D01*
X61835Y-69764D01*
X61821Y-69792D01*
X61807Y-69807D01*
X61778Y-69821D01*
X61750Y-69821D01*
X61721Y-69807D01*
X61707Y-69792D01*
X61692Y-69764D01*
X61678Y-69707D01*
X61678Y-69635D01*
X61692Y-69578D01*
X61707Y-69550D01*
X61721Y-69535D01*
X61750Y-69521D01*
X61978Y-69821D02*
X61978Y-69521D01*
X62150Y-69821D02*
X62021Y-69650D01*
X62150Y-69521D02*
X61978Y-69692D01*
X62264Y-69821D02*
X62335Y-69821D01*
X62335Y-69764D01*
X62307Y-69750D01*
X62278Y-69721D01*
X62264Y-69678D01*
X62264Y-69607D01*
X62278Y-69564D01*
X62307Y-69535D01*
X62350Y-69521D01*
X62407Y-69521D01*
X62450Y-69535D01*
X62478Y-69564D01*
X62492Y-69607D01*
X62492Y-69678D01*
X62478Y-69721D01*
X62450Y-69750D01*
X62421Y-69764D01*
X62421Y-69821D01*
X62492Y-69821D01*
X61492Y-68321D02*
X61321Y-68321D01*
X61407Y-68321D02*
X61407Y-68021D01*
X61378Y-68064D01*
X61350Y-68092D01*
X61321Y-68107D01*
X61621Y-68321D02*
X61621Y-68021D01*
X61721Y-68235D01*
X61821Y-68021D01*
X61821Y-68321D01*
X61950Y-68321D02*
X62021Y-68321D01*
X62021Y-68264D01*
X61992Y-68250D01*
X61964Y-68221D01*
X61950Y-68178D01*
X61950Y-68107D01*
X61964Y-68064D01*
X61992Y-68035D01*
X62035Y-68021D01*
X62092Y-68021D01*
X62135Y-68035D01*
X62164Y-68064D01*
X62178Y-68107D01*
X62178Y-68178D01*
X62164Y-68221D01*
X62135Y-68250D01*
X62107Y-68264D01*
X62107Y-68321D01*
X62178Y-68321D01*
G54D13*
X61234Y-77239D02*
X61346Y-77239D01*
X61403Y-77210D01*
X61431Y-77182D01*
X61487Y-77098D01*
X61515Y-76985D01*
X61515Y-76760D01*
X61487Y-76704D01*
X61459Y-76676D01*
X61403Y-76648D01*
X61290Y-76648D01*
X61234Y-76676D01*
X61206Y-76704D01*
X61178Y-76760D01*
X61178Y-76901D01*
X61206Y-76957D01*
X61234Y-76985D01*
X61290Y-77014D01*
X61403Y-77014D01*
X61459Y-76985D01*
X61487Y-76957D01*
X61515Y-76901D01*
X61684Y-76648D02*
X61881Y-77239D01*
X62078Y-76648D01*
G54D20*
X65900Y-76709D02*
X66199Y-76709D01*
X57000Y-76709D02*
X57299Y-76709D01*
X57150Y-76859D02*
X57150Y-76559D01*
M02*
