G04 (created by PCBNEW (2013-june-11)-stable) date Sun 31 Aug 2014 07:05:34 PM PDT*
%MOIN*%
G04 Gerber Fmt 3.4, Leading zero omitted, Abs format*
%FSLAX34Y34*%
G01*
G70*
G90*
G04 APERTURE LIST*
%ADD10C,0.00590551*%
%ADD11R,0.0394X0.0276*%
%ADD12R,0.045X0.025*%
%ADD13C,0.0590551*%
%ADD14R,0.0472X0.0472*%
%ADD15C,0.035*%
%ADD16C,0.01*%
G04 APERTURE END LIST*
G54D10*
G54D11*
X63000Y-68600D03*
X62000Y-68975D03*
X62000Y-68225D03*
X59900Y-68600D03*
X58900Y-68975D03*
X58900Y-68225D03*
X59900Y-71200D03*
X58900Y-71575D03*
X58900Y-70825D03*
X59900Y-69900D03*
X58900Y-70275D03*
X58900Y-69525D03*
X63000Y-69900D03*
X62000Y-70275D03*
X62000Y-69525D03*
X63000Y-71200D03*
X62000Y-71575D03*
X62000Y-70825D03*
G54D12*
X60500Y-70500D03*
X60500Y-71100D03*
X60500Y-69400D03*
X60500Y-70000D03*
X60500Y-68900D03*
X60500Y-68300D03*
X61300Y-70500D03*
X61300Y-71100D03*
X61300Y-70000D03*
X61300Y-69400D03*
X61300Y-68900D03*
X61300Y-68300D03*
G54D13*
X63800Y-69800D03*
X58000Y-69800D03*
G54D14*
X60413Y-72200D03*
X59587Y-72200D03*
X61187Y-72200D03*
X62013Y-72200D03*
G54D13*
X63853Y-71446D03*
X63146Y-72153D03*
X57946Y-71446D03*
X58653Y-72153D03*
G54D15*
X60900Y-71600D03*
X62575Y-71575D03*
X60000Y-69400D03*
X60000Y-70500D03*
G54D16*
X58900Y-71575D02*
X58900Y-71907D01*
X58900Y-71907D02*
X58653Y-72153D01*
X60800Y-70800D02*
X60900Y-70700D01*
X59600Y-70800D02*
X60800Y-70800D01*
X63146Y-72153D02*
X62646Y-72153D01*
X62646Y-72153D02*
X62600Y-72200D01*
X62600Y-72200D02*
X62013Y-72200D01*
X60900Y-70700D02*
X60900Y-71600D01*
X61300Y-69400D02*
X61000Y-69400D01*
X61000Y-69400D02*
X60900Y-69500D01*
X60900Y-69500D02*
X60900Y-70700D01*
X61300Y-68300D02*
X61000Y-68300D01*
X61000Y-68300D02*
X60900Y-68400D01*
X60900Y-68400D02*
X60900Y-69300D01*
X60900Y-69300D02*
X61000Y-69400D01*
X58900Y-71575D02*
X59225Y-71575D01*
X59400Y-71000D02*
X59600Y-70800D01*
X59400Y-71400D02*
X59400Y-71000D01*
X59225Y-71575D02*
X59400Y-71400D01*
X58450Y-68225D02*
X58900Y-68225D01*
X58000Y-68675D02*
X58450Y-68225D01*
X58000Y-69800D02*
X58000Y-68675D01*
X60413Y-72200D02*
X60413Y-71787D01*
X60600Y-71600D02*
X60600Y-71100D01*
X60413Y-71787D02*
X60600Y-71600D01*
X62000Y-68225D02*
X63425Y-68225D01*
X63800Y-68600D02*
X63800Y-69800D01*
X63425Y-68225D02*
X63800Y-68600D01*
X61300Y-68900D02*
X61300Y-68700D01*
X61400Y-68600D02*
X63000Y-68600D01*
X61300Y-68700D02*
X61400Y-68600D01*
X61300Y-70000D02*
X61600Y-70000D01*
X61700Y-69900D02*
X63000Y-69900D01*
X61600Y-70000D02*
X61700Y-69900D01*
X61300Y-70500D02*
X61580Y-70500D01*
X61580Y-70500D02*
X61670Y-70590D01*
X61670Y-70590D02*
X61670Y-71080D01*
X61670Y-71080D02*
X61790Y-71200D01*
X61790Y-71200D02*
X63000Y-71200D01*
X62000Y-68975D02*
X62000Y-69525D01*
X62000Y-70275D02*
X62000Y-70825D01*
X59900Y-69900D02*
X60200Y-69900D01*
X60300Y-70000D02*
X60500Y-70000D01*
X60200Y-69900D02*
X60300Y-70000D01*
X58900Y-70275D02*
X58900Y-70825D01*
X58900Y-68975D02*
X58900Y-69525D01*
X59900Y-68600D02*
X60400Y-68600D01*
X60500Y-68500D02*
X60500Y-68300D01*
X60400Y-68600D02*
X60500Y-68500D01*
X61187Y-72200D02*
X61187Y-71613D01*
X61300Y-71500D02*
X61300Y-71100D01*
X61187Y-71613D02*
X61300Y-71500D01*
X59587Y-72200D02*
X59587Y-71813D01*
X59900Y-71500D02*
X59900Y-71200D01*
X59587Y-71813D02*
X59900Y-71500D01*
X62575Y-71575D02*
X62000Y-71575D01*
X60000Y-69400D02*
X60500Y-69400D01*
X60600Y-70500D02*
X60000Y-70500D01*
X60500Y-68900D02*
X60500Y-69400D01*
M02*
