G04 (created by PCBNEW (2013-june-11)-stable) date Mon 18 Aug 2014 05:00:04 PM PDT*
%MOIN*%
G04 Gerber Fmt 3.4, Leading zero omitted, Abs format*
%FSLAX34Y34*%
G01*
G70*
G90*
G04 APERTURE LIST*
%ADD10C,0.00590551*%
%ADD11C,0.0590551*%
%ADD12C,0.035*%
%ADD13C,0.008*%
G04 APERTURE END LIST*
G54D10*
G54D11*
X63853Y-71446D03*
X63146Y-72153D03*
X63800Y-69800D03*
X58000Y-69800D03*
G54D12*
X60000Y-69400D03*
X62575Y-71575D03*
X60000Y-70500D03*
G54D10*
G36*
X64260Y-71506D02*
X63913Y-71506D01*
X63913Y-71920D01*
X63996Y-71964D01*
X64094Y-71927D01*
X64183Y-71871D01*
X64248Y-71809D01*
X64243Y-71866D01*
X64194Y-72027D01*
X64116Y-72175D01*
X64009Y-72305D01*
X63880Y-72412D01*
X63793Y-72459D01*
X63793Y-71920D01*
X63793Y-71506D01*
X63793Y-71386D01*
X63793Y-70972D01*
X63710Y-70927D01*
X63612Y-70965D01*
X63523Y-71021D01*
X63447Y-71093D01*
X63386Y-71179D01*
X63343Y-71274D01*
X63335Y-71303D01*
X63379Y-71386D01*
X63793Y-71386D01*
X63793Y-71506D01*
X63379Y-71506D01*
X63335Y-71589D01*
X63372Y-71687D01*
X63428Y-71776D01*
X63500Y-71852D01*
X63586Y-71913D01*
X63682Y-71956D01*
X63710Y-71964D01*
X63793Y-71920D01*
X63793Y-72459D01*
X63733Y-72492D01*
X63572Y-72542D01*
X63399Y-72560D01*
X63231Y-72560D01*
X63258Y-72555D01*
X63334Y-72526D01*
X63403Y-72482D01*
X63462Y-72426D01*
X63509Y-72359D01*
X63542Y-72285D01*
X63560Y-72205D01*
X63561Y-72112D01*
X63545Y-72032D01*
X63514Y-71957D01*
X63469Y-71889D01*
X63412Y-71832D01*
X63344Y-71786D01*
X63269Y-71754D01*
X63190Y-71738D01*
X63108Y-71737D01*
X63028Y-71753D01*
X62953Y-71783D01*
X62884Y-71828D01*
X62826Y-71885D01*
X62780Y-71952D01*
X62748Y-72027D01*
X62731Y-72107D01*
X62730Y-72188D01*
X62745Y-72268D01*
X62775Y-72344D01*
X62819Y-72412D01*
X62875Y-72471D01*
X62942Y-72517D01*
X63017Y-72550D01*
X63062Y-72560D01*
X58435Y-72560D01*
X58435Y-69757D01*
X58418Y-69673D01*
X58386Y-69594D01*
X58338Y-69523D01*
X58278Y-69462D01*
X58208Y-69415D01*
X58129Y-69382D01*
X58045Y-69365D01*
X57960Y-69364D01*
X57876Y-69380D01*
X57797Y-69412D01*
X57725Y-69459D01*
X57664Y-69518D01*
X57616Y-69589D01*
X57583Y-69667D01*
X57565Y-69751D01*
X57564Y-69836D01*
X57579Y-69920D01*
X57610Y-69999D01*
X57657Y-70071D01*
X57716Y-70133D01*
X57786Y-70181D01*
X57864Y-70215D01*
X57948Y-70234D01*
X58033Y-70236D01*
X58117Y-70221D01*
X58197Y-70190D01*
X58269Y-70144D01*
X58331Y-70085D01*
X58380Y-70016D01*
X58415Y-69938D01*
X58433Y-69854D01*
X58435Y-69757D01*
X58435Y-72560D01*
X58406Y-72560D01*
X58233Y-72543D01*
X58072Y-72494D01*
X57924Y-72416D01*
X57794Y-72309D01*
X57687Y-72180D01*
X57607Y-72033D01*
X57557Y-71872D01*
X57539Y-71699D01*
X57539Y-68806D01*
X57556Y-68633D01*
X57605Y-68472D01*
X57683Y-68324D01*
X57790Y-68194D01*
X57919Y-68087D01*
X58066Y-68007D01*
X58227Y-67957D01*
X58400Y-67939D01*
X63393Y-67939D01*
X63566Y-67956D01*
X63727Y-68005D01*
X63875Y-68083D01*
X64005Y-68190D01*
X64112Y-68319D01*
X64192Y-68466D01*
X64242Y-68627D01*
X64260Y-68800D01*
X64260Y-71097D01*
X64235Y-71071D01*
X64235Y-69757D01*
X64218Y-69673D01*
X64186Y-69594D01*
X64138Y-69523D01*
X64078Y-69462D01*
X64008Y-69415D01*
X63929Y-69382D01*
X63845Y-69365D01*
X63760Y-69364D01*
X63676Y-69380D01*
X63597Y-69412D01*
X63525Y-69459D01*
X63464Y-69518D01*
X63416Y-69589D01*
X63383Y-69667D01*
X63365Y-69751D01*
X63364Y-69836D01*
X63379Y-69920D01*
X63410Y-69999D01*
X63457Y-70071D01*
X63516Y-70133D01*
X63586Y-70181D01*
X63664Y-70215D01*
X63748Y-70234D01*
X63833Y-70236D01*
X63917Y-70221D01*
X63997Y-70190D01*
X64069Y-70144D01*
X64131Y-70085D01*
X64180Y-70016D01*
X64215Y-69938D01*
X64233Y-69854D01*
X64235Y-69757D01*
X64235Y-71071D01*
X64206Y-71040D01*
X64120Y-70979D01*
X64025Y-70936D01*
X63996Y-70927D01*
X63913Y-70972D01*
X63913Y-71386D01*
X64260Y-71386D01*
X64260Y-71506D01*
X64260Y-71506D01*
G37*
G54D13*
X64260Y-71506D02*
X63913Y-71506D01*
X63913Y-71920D01*
X63996Y-71964D01*
X64094Y-71927D01*
X64183Y-71871D01*
X64248Y-71809D01*
X64243Y-71866D01*
X64194Y-72027D01*
X64116Y-72175D01*
X64009Y-72305D01*
X63880Y-72412D01*
X63793Y-72459D01*
X63793Y-71920D01*
X63793Y-71506D01*
X63793Y-71386D01*
X63793Y-70972D01*
X63710Y-70927D01*
X63612Y-70965D01*
X63523Y-71021D01*
X63447Y-71093D01*
X63386Y-71179D01*
X63343Y-71274D01*
X63335Y-71303D01*
X63379Y-71386D01*
X63793Y-71386D01*
X63793Y-71506D01*
X63379Y-71506D01*
X63335Y-71589D01*
X63372Y-71687D01*
X63428Y-71776D01*
X63500Y-71852D01*
X63586Y-71913D01*
X63682Y-71956D01*
X63710Y-71964D01*
X63793Y-71920D01*
X63793Y-72459D01*
X63733Y-72492D01*
X63572Y-72542D01*
X63399Y-72560D01*
X63231Y-72560D01*
X63258Y-72555D01*
X63334Y-72526D01*
X63403Y-72482D01*
X63462Y-72426D01*
X63509Y-72359D01*
X63542Y-72285D01*
X63560Y-72205D01*
X63561Y-72112D01*
X63545Y-72032D01*
X63514Y-71957D01*
X63469Y-71889D01*
X63412Y-71832D01*
X63344Y-71786D01*
X63269Y-71754D01*
X63190Y-71738D01*
X63108Y-71737D01*
X63028Y-71753D01*
X62953Y-71783D01*
X62884Y-71828D01*
X62826Y-71885D01*
X62780Y-71952D01*
X62748Y-72027D01*
X62731Y-72107D01*
X62730Y-72188D01*
X62745Y-72268D01*
X62775Y-72344D01*
X62819Y-72412D01*
X62875Y-72471D01*
X62942Y-72517D01*
X63017Y-72550D01*
X63062Y-72560D01*
X58435Y-72560D01*
X58435Y-69757D01*
X58418Y-69673D01*
X58386Y-69594D01*
X58338Y-69523D01*
X58278Y-69462D01*
X58208Y-69415D01*
X58129Y-69382D01*
X58045Y-69365D01*
X57960Y-69364D01*
X57876Y-69380D01*
X57797Y-69412D01*
X57725Y-69459D01*
X57664Y-69518D01*
X57616Y-69589D01*
X57583Y-69667D01*
X57565Y-69751D01*
X57564Y-69836D01*
X57579Y-69920D01*
X57610Y-69999D01*
X57657Y-70071D01*
X57716Y-70133D01*
X57786Y-70181D01*
X57864Y-70215D01*
X57948Y-70234D01*
X58033Y-70236D01*
X58117Y-70221D01*
X58197Y-70190D01*
X58269Y-70144D01*
X58331Y-70085D01*
X58380Y-70016D01*
X58415Y-69938D01*
X58433Y-69854D01*
X58435Y-69757D01*
X58435Y-72560D01*
X58406Y-72560D01*
X58233Y-72543D01*
X58072Y-72494D01*
X57924Y-72416D01*
X57794Y-72309D01*
X57687Y-72180D01*
X57607Y-72033D01*
X57557Y-71872D01*
X57539Y-71699D01*
X57539Y-68806D01*
X57556Y-68633D01*
X57605Y-68472D01*
X57683Y-68324D01*
X57790Y-68194D01*
X57919Y-68087D01*
X58066Y-68007D01*
X58227Y-67957D01*
X58400Y-67939D01*
X63393Y-67939D01*
X63566Y-67956D01*
X63727Y-68005D01*
X63875Y-68083D01*
X64005Y-68190D01*
X64112Y-68319D01*
X64192Y-68466D01*
X64242Y-68627D01*
X64260Y-68800D01*
X64260Y-71097D01*
X64235Y-71071D01*
X64235Y-69757D01*
X64218Y-69673D01*
X64186Y-69594D01*
X64138Y-69523D01*
X64078Y-69462D01*
X64008Y-69415D01*
X63929Y-69382D01*
X63845Y-69365D01*
X63760Y-69364D01*
X63676Y-69380D01*
X63597Y-69412D01*
X63525Y-69459D01*
X63464Y-69518D01*
X63416Y-69589D01*
X63383Y-69667D01*
X63365Y-69751D01*
X63364Y-69836D01*
X63379Y-69920D01*
X63410Y-69999D01*
X63457Y-70071D01*
X63516Y-70133D01*
X63586Y-70181D01*
X63664Y-70215D01*
X63748Y-70234D01*
X63833Y-70236D01*
X63917Y-70221D01*
X63997Y-70190D01*
X64069Y-70144D01*
X64131Y-70085D01*
X64180Y-70016D01*
X64215Y-69938D01*
X64233Y-69854D01*
X64235Y-69757D01*
X64235Y-71071D01*
X64206Y-71040D01*
X64120Y-70979D01*
X64025Y-70936D01*
X63996Y-70927D01*
X63913Y-70972D01*
X63913Y-71386D01*
X64260Y-71386D01*
X64260Y-71506D01*
M02*
