G04 (created by PCBNEW (2013-june-11)-stable) date Mon 18 Aug 2014 05:00:04 PM PDT*
%MOIN*%
G04 Gerber Fmt 3.4, Leading zero omitted, Abs format*
%FSLAX34Y34*%
G01*
G70*
G90*
G04 APERTURE LIST*
%ADD10C,0.00590551*%
%ADD11R,0.0394X0.0276*%
%ADD12C,0.0590551*%
%ADD13R,0.045X0.025*%
%ADD14R,0.0472X0.0472*%
%ADD15C,0.035*%
%ADD16C,0.006*%
%ADD17C,0.01*%
G04 APERTURE END LIST*
G54D10*
G54D11*
X63000Y-68600D03*
X62000Y-68975D03*
X62000Y-68225D03*
G54D12*
X63853Y-71446D03*
X63146Y-72153D03*
G54D11*
X59900Y-68600D03*
X58900Y-68975D03*
X58900Y-68225D03*
X59900Y-71200D03*
X58900Y-71575D03*
X58900Y-70825D03*
X59900Y-69900D03*
X58900Y-70275D03*
X58900Y-69525D03*
X63000Y-69900D03*
X62000Y-70275D03*
X62000Y-69525D03*
X63000Y-71200D03*
X62000Y-71575D03*
X62000Y-70825D03*
G54D13*
X60500Y-70500D03*
X60500Y-71100D03*
X60500Y-69400D03*
X60500Y-70000D03*
X60500Y-68900D03*
X60500Y-68300D03*
X61300Y-70500D03*
X61300Y-71100D03*
X61300Y-70000D03*
X61300Y-69400D03*
X61300Y-68900D03*
X61300Y-68300D03*
G54D12*
X63800Y-69800D03*
X58000Y-69800D03*
G54D14*
X60413Y-72200D03*
X59587Y-72200D03*
X61187Y-72200D03*
X62013Y-72200D03*
G54D15*
X60000Y-69400D03*
X62575Y-71575D03*
X60000Y-70500D03*
G54D16*
X61300Y-68300D02*
X61000Y-68300D01*
X61000Y-69400D02*
X61300Y-69400D01*
X60900Y-69300D02*
X61000Y-69400D01*
X60900Y-68400D02*
X60900Y-69300D01*
X61000Y-68300D02*
X60900Y-68400D01*
X61300Y-68300D02*
X61300Y-68000D01*
G54D17*
X58450Y-68225D02*
X58900Y-68225D01*
X58000Y-68675D02*
X58450Y-68225D01*
X58000Y-69800D02*
X58000Y-68675D01*
X60413Y-72200D02*
X60413Y-71787D01*
X60600Y-71600D02*
X60600Y-71100D01*
X60413Y-71787D02*
X60600Y-71600D01*
X62000Y-68225D02*
X63425Y-68225D01*
X63800Y-68600D02*
X63800Y-69800D01*
X63425Y-68225D02*
X63800Y-68600D01*
X61300Y-68900D02*
X61300Y-68700D01*
X61400Y-68600D02*
X63000Y-68600D01*
X61300Y-68700D02*
X61400Y-68600D01*
X61300Y-70000D02*
X61600Y-70000D01*
X61700Y-69900D02*
X63000Y-69900D01*
X61600Y-70000D02*
X61700Y-69900D01*
G54D16*
X61300Y-70500D02*
X61580Y-70500D01*
X61790Y-71200D02*
X63000Y-71200D01*
X61670Y-71080D02*
X61790Y-71200D01*
X61670Y-70590D02*
X61670Y-71080D01*
X61580Y-70500D02*
X61670Y-70590D01*
G54D17*
X62000Y-68975D02*
X62000Y-69525D01*
X62000Y-70275D02*
X62000Y-70825D01*
X59900Y-69900D02*
X60200Y-69900D01*
X60300Y-70000D02*
X60500Y-70000D01*
X60200Y-69900D02*
X60300Y-70000D01*
X58900Y-70275D02*
X58900Y-70825D01*
X58900Y-68975D02*
X58900Y-69525D01*
X59900Y-68600D02*
X60400Y-68600D01*
X60500Y-68500D02*
X60500Y-68300D01*
X60400Y-68600D02*
X60500Y-68500D01*
X61187Y-72200D02*
X61187Y-71613D01*
X61300Y-71500D02*
X61300Y-71100D01*
X61187Y-71613D02*
X61300Y-71500D01*
X59587Y-72200D02*
X59587Y-71913D01*
X59900Y-71600D02*
X59900Y-71200D01*
X59587Y-71913D02*
X59900Y-71600D01*
X60500Y-69400D02*
X60000Y-69400D01*
X60500Y-68900D02*
X60500Y-69400D01*
X62000Y-71575D02*
X62575Y-71575D01*
X60600Y-70500D02*
X60000Y-70500D01*
G54D10*
G36*
X61377Y-69462D02*
X61370Y-69462D01*
X61370Y-69477D01*
X61230Y-69477D01*
X61230Y-69462D01*
X61222Y-69462D01*
X61222Y-69337D01*
X61230Y-69337D01*
X61230Y-69322D01*
X61370Y-69322D01*
X61370Y-69337D01*
X61377Y-69337D01*
X61377Y-69462D01*
X61377Y-69462D01*
G37*
G54D16*
X61377Y-69462D02*
X61370Y-69462D01*
X61370Y-69477D01*
X61230Y-69477D01*
X61230Y-69462D01*
X61222Y-69462D01*
X61222Y-69337D01*
X61230Y-69337D01*
X61230Y-69322D01*
X61370Y-69322D01*
X61370Y-69337D01*
X61377Y-69337D01*
X61377Y-69462D01*
G54D10*
G36*
X64290Y-71694D02*
X64278Y-71811D01*
X64278Y-71404D01*
X64262Y-71322D01*
X64230Y-71245D01*
X64184Y-71176D01*
X64125Y-71117D01*
X64056Y-71070D01*
X63979Y-71038D01*
X63898Y-71021D01*
X63814Y-71020D01*
X63732Y-71036D01*
X63655Y-71067D01*
X63585Y-71113D01*
X63526Y-71171D01*
X63479Y-71240D01*
X63446Y-71317D01*
X63428Y-71398D01*
X63427Y-71482D01*
X63442Y-71564D01*
X63473Y-71641D01*
X63518Y-71711D01*
X63576Y-71771D01*
X63645Y-71819D01*
X63721Y-71852D01*
X63802Y-71870D01*
X63886Y-71872D01*
X63968Y-71858D01*
X64046Y-71827D01*
X64116Y-71783D01*
X64177Y-71725D01*
X64225Y-71657D01*
X64259Y-71581D01*
X64277Y-71500D01*
X64278Y-71404D01*
X64278Y-71811D01*
X64272Y-71872D01*
X64222Y-72039D01*
X64141Y-72192D01*
X64031Y-72326D01*
X63897Y-72437D01*
X63744Y-72520D01*
X63578Y-72571D01*
X63445Y-72585D01*
X63478Y-72563D01*
X63552Y-72491D01*
X63609Y-72406D01*
X63650Y-72311D01*
X63652Y-72304D01*
X63652Y-72002D01*
X63613Y-71907D01*
X63556Y-71821D01*
X63484Y-71747D01*
X63398Y-71690D01*
X63304Y-71649D01*
X63297Y-71647D01*
X63216Y-71688D01*
X63216Y-72083D01*
X63611Y-72083D01*
X63652Y-72002D01*
X63652Y-72304D01*
X63611Y-72223D01*
X63216Y-72223D01*
X63216Y-72590D01*
X63076Y-72590D01*
X63076Y-72223D01*
X62681Y-72223D01*
X62640Y-72304D01*
X62679Y-72399D01*
X62736Y-72485D01*
X62808Y-72559D01*
X62854Y-72590D01*
X62420Y-72590D01*
X62427Y-72583D01*
X62452Y-72545D01*
X62469Y-72504D01*
X62478Y-72460D01*
X62479Y-72415D01*
X62479Y-72327D01*
X62421Y-72270D01*
X62083Y-72270D01*
X62083Y-72277D01*
X61943Y-72277D01*
X61943Y-72270D01*
X61935Y-72270D01*
X61935Y-72130D01*
X61943Y-72130D01*
X61943Y-72122D01*
X62083Y-72122D01*
X62083Y-72130D01*
X62421Y-72130D01*
X62479Y-72072D01*
X62479Y-71984D01*
X62478Y-71939D01*
X62469Y-71895D01*
X62452Y-71854D01*
X62480Y-71866D01*
X62538Y-71879D01*
X62598Y-71880D01*
X62657Y-71870D01*
X62713Y-71848D01*
X62722Y-71842D01*
X62682Y-71901D01*
X62642Y-71995D01*
X62640Y-72002D01*
X62681Y-72083D01*
X62977Y-72083D01*
X63041Y-72147D01*
X63140Y-72048D01*
X63076Y-71984D01*
X63076Y-71688D01*
X62995Y-71647D01*
X62900Y-71686D01*
X62842Y-71725D01*
X62865Y-71671D01*
X62879Y-71613D01*
X62880Y-71545D01*
X62868Y-71486D01*
X62845Y-71431D01*
X62843Y-71428D01*
X63205Y-71428D01*
X63223Y-71424D01*
X63239Y-71417D01*
X63254Y-71408D01*
X63266Y-71395D01*
X63276Y-71381D01*
X63283Y-71364D01*
X63286Y-71347D01*
X63287Y-71329D01*
X63287Y-71053D01*
X63283Y-71035D01*
X63276Y-71019D01*
X63267Y-71004D01*
X63254Y-70992D01*
X63240Y-70982D01*
X63223Y-70975D01*
X63206Y-70972D01*
X63188Y-70971D01*
X62794Y-70971D01*
X62776Y-70975D01*
X62760Y-70982D01*
X62745Y-70991D01*
X62733Y-71004D01*
X62723Y-71018D01*
X62716Y-71035D01*
X62713Y-71052D01*
X62712Y-71070D01*
X62712Y-71080D01*
X62254Y-71080D01*
X62258Y-71078D01*
X62279Y-71064D01*
X62297Y-71046D01*
X62311Y-71025D01*
X62321Y-71001D01*
X62326Y-70976D01*
X62327Y-70951D01*
X62327Y-70674D01*
X62322Y-70649D01*
X62312Y-70625D01*
X62298Y-70604D01*
X62280Y-70586D01*
X62259Y-70572D01*
X62235Y-70562D01*
X62210Y-70557D01*
X62185Y-70556D01*
X62180Y-70556D01*
X62180Y-70543D01*
X62209Y-70543D01*
X62234Y-70538D01*
X62258Y-70528D01*
X62279Y-70514D01*
X62297Y-70496D01*
X62311Y-70475D01*
X62321Y-70451D01*
X62326Y-70426D01*
X62327Y-70401D01*
X62327Y-70124D01*
X62322Y-70099D01*
X62314Y-70080D01*
X62679Y-70080D01*
X62687Y-70099D01*
X62701Y-70120D01*
X62719Y-70138D01*
X62740Y-70152D01*
X62764Y-70162D01*
X62789Y-70167D01*
X62814Y-70168D01*
X63209Y-70168D01*
X63234Y-70163D01*
X63258Y-70153D01*
X63279Y-70139D01*
X63297Y-70121D01*
X63311Y-70100D01*
X63321Y-70076D01*
X63326Y-70051D01*
X63327Y-70026D01*
X63327Y-69749D01*
X63322Y-69724D01*
X63312Y-69700D01*
X63298Y-69679D01*
X63280Y-69661D01*
X63259Y-69647D01*
X63235Y-69637D01*
X63210Y-69632D01*
X63185Y-69631D01*
X62790Y-69631D01*
X62765Y-69636D01*
X62741Y-69646D01*
X62720Y-69660D01*
X62702Y-69678D01*
X62688Y-69699D01*
X62679Y-69720D01*
X62314Y-69720D01*
X62321Y-69701D01*
X62326Y-69676D01*
X62327Y-69651D01*
X62327Y-69374D01*
X62322Y-69349D01*
X62312Y-69325D01*
X62298Y-69304D01*
X62280Y-69286D01*
X62259Y-69272D01*
X62235Y-69262D01*
X62210Y-69257D01*
X62185Y-69256D01*
X62180Y-69256D01*
X62180Y-69243D01*
X62209Y-69243D01*
X62234Y-69238D01*
X62258Y-69228D01*
X62279Y-69214D01*
X62297Y-69196D01*
X62311Y-69175D01*
X62321Y-69151D01*
X62326Y-69126D01*
X62327Y-69101D01*
X62327Y-68824D01*
X62322Y-68799D01*
X62314Y-68780D01*
X62679Y-68780D01*
X62687Y-68799D01*
X62701Y-68820D01*
X62719Y-68838D01*
X62740Y-68852D01*
X62764Y-68862D01*
X62789Y-68867D01*
X62814Y-68868D01*
X63209Y-68868D01*
X63234Y-68863D01*
X63258Y-68853D01*
X63279Y-68839D01*
X63297Y-68821D01*
X63311Y-68800D01*
X63321Y-68776D01*
X63326Y-68751D01*
X63327Y-68726D01*
X63327Y-68449D01*
X63322Y-68424D01*
X63314Y-68405D01*
X63350Y-68405D01*
X63620Y-68674D01*
X63620Y-69414D01*
X63602Y-69421D01*
X63532Y-69466D01*
X63472Y-69525D01*
X63425Y-69594D01*
X63392Y-69670D01*
X63375Y-69752D01*
X63374Y-69835D01*
X63389Y-69917D01*
X63419Y-69995D01*
X63465Y-70065D01*
X63523Y-70125D01*
X63591Y-70173D01*
X63667Y-70206D01*
X63749Y-70224D01*
X63832Y-70226D01*
X63914Y-70211D01*
X63992Y-70181D01*
X64063Y-70136D01*
X64123Y-70079D01*
X64171Y-70011D01*
X64205Y-69934D01*
X64223Y-69853D01*
X64225Y-69758D01*
X64209Y-69676D01*
X64177Y-69599D01*
X64131Y-69529D01*
X64072Y-69470D01*
X64003Y-69424D01*
X63980Y-69414D01*
X63980Y-68600D01*
X63978Y-68583D01*
X63976Y-68566D01*
X63976Y-68565D01*
X63976Y-68565D01*
X63971Y-68549D01*
X63967Y-68533D01*
X63966Y-68532D01*
X63966Y-68531D01*
X63958Y-68516D01*
X63950Y-68501D01*
X63950Y-68501D01*
X63949Y-68500D01*
X63939Y-68487D01*
X63929Y-68474D01*
X63927Y-68473D01*
X63927Y-68473D01*
X63927Y-68473D01*
X63927Y-68472D01*
X63552Y-68097D01*
X63539Y-68087D01*
X63526Y-68076D01*
X63525Y-68076D01*
X63525Y-68075D01*
X63510Y-68067D01*
X63495Y-68059D01*
X63495Y-68059D01*
X63494Y-68058D01*
X63478Y-68053D01*
X63462Y-68048D01*
X63461Y-68048D01*
X63460Y-68048D01*
X63443Y-68046D01*
X63427Y-68045D01*
X63425Y-68045D01*
X63425Y-68045D01*
X63425Y-68045D01*
X63425Y-68045D01*
X62320Y-68045D01*
X62312Y-68025D01*
X62298Y-68004D01*
X62280Y-67986D01*
X62259Y-67972D01*
X62235Y-67962D01*
X62210Y-67957D01*
X62185Y-67956D01*
X61790Y-67956D01*
X61765Y-67961D01*
X61741Y-67971D01*
X61720Y-67985D01*
X61702Y-68003D01*
X61692Y-68017D01*
X61672Y-67996D01*
X61634Y-67971D01*
X61593Y-67954D01*
X61549Y-67945D01*
X61504Y-67944D01*
X61427Y-67945D01*
X61370Y-68002D01*
X61370Y-68237D01*
X61377Y-68237D01*
X61377Y-68362D01*
X61370Y-68362D01*
X61370Y-68377D01*
X61230Y-68377D01*
X61230Y-68362D01*
X61222Y-68362D01*
X61222Y-68237D01*
X61230Y-68237D01*
X61230Y-68002D01*
X61172Y-67945D01*
X61095Y-67944D01*
X61050Y-67945D01*
X61006Y-67954D01*
X60965Y-67971D01*
X60927Y-67996D01*
X60895Y-68028D01*
X60870Y-68066D01*
X60853Y-68108D01*
X60848Y-68133D01*
X60840Y-68113D01*
X60826Y-68092D01*
X60808Y-68074D01*
X60787Y-68060D01*
X60763Y-68050D01*
X60738Y-68045D01*
X60713Y-68044D01*
X60262Y-68044D01*
X60237Y-68049D01*
X60213Y-68059D01*
X60192Y-68073D01*
X60174Y-68091D01*
X60160Y-68112D01*
X60150Y-68136D01*
X60145Y-68161D01*
X60144Y-68186D01*
X60144Y-68341D01*
X60135Y-68337D01*
X60110Y-68332D01*
X60085Y-68331D01*
X59690Y-68331D01*
X59665Y-68336D01*
X59641Y-68346D01*
X59620Y-68360D01*
X59602Y-68378D01*
X59588Y-68399D01*
X59578Y-68423D01*
X59573Y-68448D01*
X59572Y-68473D01*
X59572Y-68750D01*
X59577Y-68775D01*
X59587Y-68799D01*
X59601Y-68820D01*
X59619Y-68838D01*
X59640Y-68852D01*
X59664Y-68862D01*
X59689Y-68867D01*
X59714Y-68868D01*
X60109Y-68868D01*
X60134Y-68863D01*
X60144Y-68858D01*
X60144Y-69037D01*
X60149Y-69062D01*
X60159Y-69086D01*
X60173Y-69107D01*
X60191Y-69125D01*
X60212Y-69139D01*
X60236Y-69149D01*
X60237Y-69149D01*
X60213Y-69159D01*
X60200Y-69168D01*
X60195Y-69163D01*
X60145Y-69130D01*
X60090Y-69107D01*
X60032Y-69095D01*
X59972Y-69094D01*
X59913Y-69105D01*
X59858Y-69128D01*
X59807Y-69161D01*
X59765Y-69203D01*
X59731Y-69252D01*
X59707Y-69307D01*
X59695Y-69365D01*
X59694Y-69425D01*
X59705Y-69484D01*
X59727Y-69540D01*
X59759Y-69590D01*
X59799Y-69631D01*
X59690Y-69631D01*
X59665Y-69636D01*
X59641Y-69646D01*
X59620Y-69660D01*
X59602Y-69678D01*
X59588Y-69699D01*
X59578Y-69723D01*
X59573Y-69748D01*
X59572Y-69773D01*
X59572Y-70050D01*
X59577Y-70075D01*
X59587Y-70099D01*
X59601Y-70120D01*
X59619Y-70138D01*
X59640Y-70152D01*
X59664Y-70162D01*
X59689Y-70167D01*
X59714Y-70168D01*
X60109Y-70168D01*
X60134Y-70163D01*
X60148Y-70157D01*
X60149Y-70162D01*
X60159Y-70186D01*
X60173Y-70207D01*
X60191Y-70225D01*
X60212Y-70239D01*
X60236Y-70249D01*
X60237Y-70249D01*
X60213Y-70259D01*
X60200Y-70268D01*
X60195Y-70263D01*
X60145Y-70230D01*
X60090Y-70207D01*
X60032Y-70195D01*
X59972Y-70194D01*
X59913Y-70205D01*
X59858Y-70228D01*
X59807Y-70261D01*
X59765Y-70303D01*
X59731Y-70352D01*
X59707Y-70407D01*
X59695Y-70465D01*
X59694Y-70525D01*
X59705Y-70584D01*
X59727Y-70640D01*
X59759Y-70690D01*
X59801Y-70733D01*
X59850Y-70767D01*
X59905Y-70791D01*
X59963Y-70804D01*
X60023Y-70805D01*
X60082Y-70795D01*
X60138Y-70773D01*
X60188Y-70741D01*
X60199Y-70731D01*
X60212Y-70739D01*
X60236Y-70749D01*
X60261Y-70754D01*
X60286Y-70755D01*
X60737Y-70755D01*
X60762Y-70750D01*
X60786Y-70740D01*
X60807Y-70726D01*
X60825Y-70708D01*
X60839Y-70687D01*
X60849Y-70663D01*
X60854Y-70638D01*
X60855Y-70613D01*
X60855Y-70362D01*
X60850Y-70337D01*
X60840Y-70313D01*
X60826Y-70292D01*
X60808Y-70274D01*
X60787Y-70260D01*
X60763Y-70250D01*
X60762Y-70250D01*
X60786Y-70240D01*
X60807Y-70226D01*
X60825Y-70208D01*
X60839Y-70187D01*
X60849Y-70163D01*
X60854Y-70138D01*
X60855Y-70113D01*
X60855Y-69862D01*
X60850Y-69837D01*
X60840Y-69813D01*
X60826Y-69792D01*
X60808Y-69774D01*
X60787Y-69760D01*
X60763Y-69750D01*
X60738Y-69745D01*
X60713Y-69744D01*
X60290Y-69744D01*
X60285Y-69742D01*
X60270Y-69734D01*
X60270Y-69734D01*
X60269Y-69733D01*
X60253Y-69728D01*
X60237Y-69723D01*
X60236Y-69723D01*
X60235Y-69723D01*
X60221Y-69722D01*
X60212Y-69700D01*
X60198Y-69679D01*
X60180Y-69661D01*
X60169Y-69653D01*
X60188Y-69641D01*
X60199Y-69631D01*
X60212Y-69639D01*
X60236Y-69649D01*
X60261Y-69654D01*
X60286Y-69655D01*
X60737Y-69655D01*
X60762Y-69650D01*
X60786Y-69640D01*
X60807Y-69626D01*
X60825Y-69608D01*
X60839Y-69587D01*
X60848Y-69566D01*
X60853Y-69591D01*
X60870Y-69633D01*
X60895Y-69671D01*
X60927Y-69703D01*
X60965Y-69728D01*
X61006Y-69745D01*
X61033Y-69751D01*
X61013Y-69759D01*
X60992Y-69773D01*
X60974Y-69791D01*
X60960Y-69812D01*
X60950Y-69836D01*
X60945Y-69861D01*
X60944Y-69886D01*
X60944Y-70137D01*
X60949Y-70162D01*
X60959Y-70186D01*
X60973Y-70207D01*
X60991Y-70225D01*
X61012Y-70239D01*
X61036Y-70249D01*
X61061Y-70254D01*
X61086Y-70255D01*
X61537Y-70255D01*
X61562Y-70250D01*
X61586Y-70240D01*
X61607Y-70226D01*
X61625Y-70208D01*
X61639Y-70187D01*
X61645Y-70173D01*
X61650Y-70171D01*
X61666Y-70167D01*
X61667Y-70166D01*
X61668Y-70166D01*
X61672Y-70164D01*
X61672Y-70423D01*
X61664Y-70415D01*
X61656Y-70408D01*
X61647Y-70400D01*
X61647Y-70400D01*
X61646Y-70400D01*
X61636Y-70395D01*
X61627Y-70389D01*
X61626Y-70389D01*
X61626Y-70389D01*
X61615Y-70385D01*
X61615Y-70385D01*
X61615Y-70366D01*
X61611Y-70348D01*
X61604Y-70332D01*
X61595Y-70317D01*
X61582Y-70305D01*
X61568Y-70295D01*
X61551Y-70288D01*
X61534Y-70285D01*
X61516Y-70284D01*
X61066Y-70284D01*
X61048Y-70288D01*
X61032Y-70295D01*
X61017Y-70304D01*
X61005Y-70317D01*
X60995Y-70331D01*
X60988Y-70348D01*
X60985Y-70365D01*
X60984Y-70383D01*
X60984Y-70633D01*
X60988Y-70651D01*
X60995Y-70667D01*
X61004Y-70682D01*
X61017Y-70694D01*
X61031Y-70704D01*
X61048Y-70711D01*
X61065Y-70714D01*
X61083Y-70715D01*
X61533Y-70715D01*
X61550Y-70711D01*
X61550Y-70847D01*
X61538Y-70845D01*
X61513Y-70844D01*
X61062Y-70844D01*
X61037Y-70849D01*
X61013Y-70859D01*
X60992Y-70873D01*
X60974Y-70891D01*
X60960Y-70912D01*
X60950Y-70936D01*
X60945Y-70961D01*
X60944Y-70986D01*
X60944Y-71237D01*
X60949Y-71262D01*
X60959Y-71286D01*
X60973Y-71307D01*
X60991Y-71325D01*
X61012Y-71339D01*
X61036Y-71349D01*
X61061Y-71354D01*
X61086Y-71355D01*
X61120Y-71355D01*
X61120Y-71425D01*
X61059Y-71485D01*
X61049Y-71498D01*
X61038Y-71511D01*
X61038Y-71512D01*
X61037Y-71512D01*
X61029Y-71527D01*
X61021Y-71542D01*
X61021Y-71542D01*
X61020Y-71543D01*
X61015Y-71559D01*
X61010Y-71575D01*
X61010Y-71576D01*
X61010Y-71577D01*
X61008Y-71594D01*
X61007Y-71610D01*
X61007Y-71612D01*
X61007Y-71612D01*
X61007Y-71612D01*
X61007Y-71613D01*
X61007Y-71833D01*
X60938Y-71833D01*
X60913Y-71838D01*
X60889Y-71848D01*
X60868Y-71862D01*
X60855Y-71876D01*
X60855Y-71213D01*
X60855Y-70962D01*
X60850Y-70937D01*
X60840Y-70913D01*
X60826Y-70892D01*
X60808Y-70874D01*
X60787Y-70860D01*
X60763Y-70850D01*
X60738Y-70845D01*
X60713Y-70844D01*
X60262Y-70844D01*
X60237Y-70849D01*
X60213Y-70859D01*
X60192Y-70873D01*
X60174Y-70891D01*
X60160Y-70912D01*
X60150Y-70936D01*
X60148Y-70942D01*
X60135Y-70937D01*
X60110Y-70932D01*
X60085Y-70931D01*
X59690Y-70931D01*
X59665Y-70936D01*
X59641Y-70946D01*
X59620Y-70960D01*
X59602Y-70978D01*
X59588Y-70999D01*
X59578Y-71023D01*
X59573Y-71048D01*
X59572Y-71073D01*
X59572Y-71350D01*
X59577Y-71375D01*
X59587Y-71399D01*
X59601Y-71420D01*
X59619Y-71438D01*
X59640Y-71452D01*
X59664Y-71462D01*
X59689Y-71467D01*
X59714Y-71468D01*
X59720Y-71468D01*
X59720Y-71525D01*
X59459Y-71785D01*
X59449Y-71798D01*
X59438Y-71811D01*
X59438Y-71812D01*
X59437Y-71812D01*
X59429Y-71827D01*
X59426Y-71833D01*
X59338Y-71833D01*
X59313Y-71838D01*
X59289Y-71848D01*
X59277Y-71856D01*
X59301Y-71821D01*
X59318Y-71779D01*
X59327Y-71735D01*
X59327Y-71414D01*
X59318Y-71370D01*
X59301Y-71328D01*
X59276Y-71290D01*
X59244Y-71258D01*
X59227Y-71247D01*
X59227Y-70951D01*
X59227Y-70674D01*
X59222Y-70649D01*
X59212Y-70625D01*
X59198Y-70604D01*
X59180Y-70586D01*
X59159Y-70572D01*
X59135Y-70562D01*
X59110Y-70557D01*
X59085Y-70556D01*
X59080Y-70556D01*
X59080Y-70543D01*
X59109Y-70543D01*
X59134Y-70538D01*
X59158Y-70528D01*
X59179Y-70514D01*
X59197Y-70496D01*
X59211Y-70475D01*
X59221Y-70451D01*
X59226Y-70426D01*
X59227Y-70401D01*
X59227Y-69651D01*
X59227Y-69374D01*
X59222Y-69349D01*
X59212Y-69325D01*
X59198Y-69304D01*
X59180Y-69286D01*
X59159Y-69272D01*
X59135Y-69262D01*
X59110Y-69257D01*
X59085Y-69256D01*
X59080Y-69256D01*
X59080Y-69243D01*
X59109Y-69243D01*
X59134Y-69238D01*
X59158Y-69228D01*
X59179Y-69214D01*
X59197Y-69196D01*
X59211Y-69175D01*
X59221Y-69151D01*
X59226Y-69126D01*
X59227Y-69101D01*
X59227Y-68351D01*
X59227Y-68074D01*
X59222Y-68049D01*
X59212Y-68025D01*
X59198Y-68004D01*
X59180Y-67986D01*
X59159Y-67972D01*
X59135Y-67962D01*
X59110Y-67957D01*
X59085Y-67956D01*
X58690Y-67956D01*
X58665Y-67961D01*
X58641Y-67971D01*
X58620Y-67985D01*
X58602Y-68003D01*
X58588Y-68024D01*
X58579Y-68045D01*
X58450Y-68045D01*
X58433Y-68046D01*
X58416Y-68048D01*
X58415Y-68048D01*
X58415Y-68048D01*
X58399Y-68053D01*
X58383Y-68057D01*
X58382Y-68058D01*
X58381Y-68058D01*
X58366Y-68066D01*
X58351Y-68074D01*
X58351Y-68074D01*
X58350Y-68075D01*
X58337Y-68085D01*
X58324Y-68095D01*
X58323Y-68097D01*
X58323Y-68097D01*
X58323Y-68097D01*
X58322Y-68097D01*
X57872Y-68547D01*
X57862Y-68560D01*
X57851Y-68573D01*
X57851Y-68574D01*
X57850Y-68574D01*
X57842Y-68589D01*
X57834Y-68604D01*
X57834Y-68604D01*
X57833Y-68605D01*
X57828Y-68621D01*
X57823Y-68637D01*
X57823Y-68638D01*
X57823Y-68639D01*
X57821Y-68656D01*
X57820Y-68672D01*
X57820Y-68674D01*
X57820Y-68674D01*
X57820Y-68674D01*
X57820Y-68675D01*
X57820Y-69414D01*
X57802Y-69421D01*
X57732Y-69466D01*
X57672Y-69525D01*
X57625Y-69594D01*
X57592Y-69670D01*
X57575Y-69752D01*
X57574Y-69835D01*
X57589Y-69917D01*
X57619Y-69995D01*
X57665Y-70065D01*
X57723Y-70125D01*
X57791Y-70173D01*
X57867Y-70206D01*
X57949Y-70224D01*
X58032Y-70226D01*
X58114Y-70211D01*
X58192Y-70181D01*
X58263Y-70136D01*
X58323Y-70079D01*
X58371Y-70011D01*
X58405Y-69934D01*
X58423Y-69853D01*
X58425Y-69758D01*
X58409Y-69676D01*
X58377Y-69599D01*
X58331Y-69529D01*
X58272Y-69470D01*
X58203Y-69424D01*
X58180Y-69414D01*
X58180Y-68749D01*
X58524Y-68405D01*
X58579Y-68405D01*
X58587Y-68424D01*
X58601Y-68445D01*
X58619Y-68463D01*
X58640Y-68477D01*
X58664Y-68487D01*
X58689Y-68492D01*
X58714Y-68493D01*
X59109Y-68493D01*
X59134Y-68488D01*
X59158Y-68478D01*
X59179Y-68464D01*
X59197Y-68446D01*
X59211Y-68425D01*
X59221Y-68401D01*
X59226Y-68376D01*
X59227Y-68351D01*
X59227Y-69101D01*
X59227Y-68824D01*
X59222Y-68799D01*
X59212Y-68775D01*
X59198Y-68754D01*
X59180Y-68736D01*
X59159Y-68722D01*
X59135Y-68712D01*
X59110Y-68707D01*
X59085Y-68706D01*
X58690Y-68706D01*
X58665Y-68711D01*
X58641Y-68721D01*
X58620Y-68735D01*
X58602Y-68753D01*
X58588Y-68774D01*
X58578Y-68798D01*
X58573Y-68823D01*
X58572Y-68848D01*
X58572Y-69125D01*
X58577Y-69150D01*
X58587Y-69174D01*
X58601Y-69195D01*
X58619Y-69213D01*
X58640Y-69227D01*
X58664Y-69237D01*
X58689Y-69242D01*
X58714Y-69243D01*
X58720Y-69243D01*
X58720Y-69256D01*
X58690Y-69256D01*
X58665Y-69261D01*
X58641Y-69271D01*
X58620Y-69285D01*
X58602Y-69303D01*
X58588Y-69324D01*
X58578Y-69348D01*
X58573Y-69373D01*
X58572Y-69398D01*
X58572Y-69675D01*
X58577Y-69700D01*
X58587Y-69724D01*
X58601Y-69745D01*
X58619Y-69763D01*
X58640Y-69777D01*
X58664Y-69787D01*
X58689Y-69792D01*
X58714Y-69793D01*
X59109Y-69793D01*
X59134Y-69788D01*
X59158Y-69778D01*
X59179Y-69764D01*
X59197Y-69746D01*
X59211Y-69725D01*
X59221Y-69701D01*
X59226Y-69676D01*
X59227Y-69651D01*
X59227Y-70401D01*
X59227Y-70124D01*
X59222Y-70099D01*
X59212Y-70075D01*
X59198Y-70054D01*
X59180Y-70036D01*
X59159Y-70022D01*
X59135Y-70012D01*
X59110Y-70007D01*
X59085Y-70006D01*
X58690Y-70006D01*
X58665Y-70011D01*
X58641Y-70021D01*
X58620Y-70035D01*
X58602Y-70053D01*
X58588Y-70074D01*
X58578Y-70098D01*
X58573Y-70123D01*
X58572Y-70148D01*
X58572Y-70425D01*
X58577Y-70450D01*
X58587Y-70474D01*
X58601Y-70495D01*
X58619Y-70513D01*
X58640Y-70527D01*
X58664Y-70537D01*
X58689Y-70542D01*
X58714Y-70543D01*
X58720Y-70543D01*
X58720Y-70556D01*
X58690Y-70556D01*
X58665Y-70561D01*
X58641Y-70571D01*
X58620Y-70585D01*
X58602Y-70603D01*
X58588Y-70624D01*
X58578Y-70648D01*
X58573Y-70673D01*
X58572Y-70698D01*
X58572Y-70975D01*
X58577Y-71000D01*
X58587Y-71024D01*
X58601Y-71045D01*
X58619Y-71063D01*
X58640Y-71077D01*
X58664Y-71087D01*
X58689Y-71092D01*
X58714Y-71093D01*
X59109Y-71093D01*
X59134Y-71088D01*
X59158Y-71078D01*
X59179Y-71064D01*
X59197Y-71046D01*
X59211Y-71025D01*
X59221Y-71001D01*
X59226Y-70976D01*
X59227Y-70951D01*
X59227Y-71247D01*
X59206Y-71233D01*
X59165Y-71216D01*
X59121Y-71207D01*
X59076Y-71206D01*
X59027Y-71207D01*
X58970Y-71264D01*
X58970Y-71506D01*
X59269Y-71506D01*
X59327Y-71448D01*
X59327Y-71414D01*
X59327Y-71735D01*
X59327Y-71701D01*
X59269Y-71644D01*
X58970Y-71644D01*
X58970Y-71885D01*
X59027Y-71943D01*
X59076Y-71943D01*
X59121Y-71942D01*
X59165Y-71933D01*
X59206Y-71916D01*
X59242Y-71892D01*
X59236Y-71901D01*
X59226Y-71925D01*
X59221Y-71950D01*
X59220Y-71975D01*
X59220Y-72448D01*
X59225Y-72473D01*
X59235Y-72497D01*
X59249Y-72518D01*
X59267Y-72536D01*
X59288Y-72550D01*
X59312Y-72560D01*
X59337Y-72565D01*
X59362Y-72566D01*
X59835Y-72566D01*
X59860Y-72561D01*
X59884Y-72551D01*
X59905Y-72537D01*
X59923Y-72519D01*
X59937Y-72498D01*
X59947Y-72474D01*
X59952Y-72449D01*
X59953Y-72424D01*
X59953Y-71951D01*
X59948Y-71926D01*
X59938Y-71902D01*
X59924Y-71881D01*
X59906Y-71863D01*
X59897Y-71857D01*
X60027Y-71727D01*
X60037Y-71714D01*
X60048Y-71701D01*
X60048Y-71700D01*
X60049Y-71700D01*
X60057Y-71685D01*
X60065Y-71670D01*
X60065Y-71670D01*
X60066Y-71669D01*
X60071Y-71653D01*
X60076Y-71637D01*
X60076Y-71636D01*
X60076Y-71635D01*
X60078Y-71619D01*
X60079Y-71602D01*
X60079Y-71600D01*
X60079Y-71600D01*
X60079Y-71600D01*
X60080Y-71600D01*
X60080Y-71468D01*
X60109Y-71468D01*
X60134Y-71463D01*
X60158Y-71453D01*
X60179Y-71439D01*
X60197Y-71421D01*
X60211Y-71400D01*
X60221Y-71376D01*
X60226Y-71351D01*
X60226Y-71345D01*
X60236Y-71349D01*
X60261Y-71354D01*
X60286Y-71355D01*
X60420Y-71355D01*
X60420Y-71525D01*
X60285Y-71659D01*
X60275Y-71672D01*
X60264Y-71685D01*
X60264Y-71686D01*
X60263Y-71686D01*
X60255Y-71701D01*
X60247Y-71716D01*
X60247Y-71716D01*
X60246Y-71717D01*
X60241Y-71733D01*
X60236Y-71749D01*
X60236Y-71750D01*
X60236Y-71751D01*
X60234Y-71768D01*
X60233Y-71784D01*
X60233Y-71786D01*
X60233Y-71786D01*
X60233Y-71786D01*
X60233Y-71787D01*
X60233Y-71833D01*
X60164Y-71833D01*
X60139Y-71838D01*
X60115Y-71848D01*
X60094Y-71862D01*
X60076Y-71880D01*
X60062Y-71901D01*
X60052Y-71925D01*
X60047Y-71950D01*
X60046Y-71975D01*
X60046Y-72448D01*
X60051Y-72473D01*
X60061Y-72497D01*
X60075Y-72518D01*
X60093Y-72536D01*
X60114Y-72550D01*
X60138Y-72560D01*
X60163Y-72565D01*
X60188Y-72566D01*
X60661Y-72566D01*
X60686Y-72561D01*
X60710Y-72551D01*
X60731Y-72537D01*
X60749Y-72519D01*
X60763Y-72498D01*
X60773Y-72474D01*
X60778Y-72449D01*
X60779Y-72424D01*
X60779Y-71951D01*
X60774Y-71926D01*
X60764Y-71902D01*
X60750Y-71881D01*
X60732Y-71863D01*
X60711Y-71849D01*
X60687Y-71839D01*
X60662Y-71834D01*
X60637Y-71833D01*
X60620Y-71833D01*
X60727Y-71727D01*
X60737Y-71714D01*
X60748Y-71701D01*
X60748Y-71700D01*
X60749Y-71700D01*
X60757Y-71685D01*
X60765Y-71670D01*
X60765Y-71670D01*
X60766Y-71669D01*
X60771Y-71653D01*
X60776Y-71637D01*
X60776Y-71636D01*
X60776Y-71635D01*
X60778Y-71619D01*
X60779Y-71602D01*
X60779Y-71600D01*
X60779Y-71600D01*
X60779Y-71600D01*
X60780Y-71600D01*
X60780Y-71342D01*
X60786Y-71340D01*
X60807Y-71326D01*
X60825Y-71308D01*
X60839Y-71287D01*
X60849Y-71263D01*
X60854Y-71238D01*
X60855Y-71213D01*
X60855Y-71876D01*
X60850Y-71880D01*
X60836Y-71901D01*
X60826Y-71925D01*
X60821Y-71950D01*
X60820Y-71975D01*
X60820Y-72448D01*
X60825Y-72473D01*
X60835Y-72497D01*
X60849Y-72518D01*
X60867Y-72536D01*
X60888Y-72550D01*
X60912Y-72560D01*
X60937Y-72565D01*
X60962Y-72566D01*
X61435Y-72566D01*
X61460Y-72561D01*
X61484Y-72551D01*
X61505Y-72537D01*
X61523Y-72519D01*
X61537Y-72498D01*
X61547Y-72474D01*
X61548Y-72468D01*
X61556Y-72504D01*
X61573Y-72545D01*
X61598Y-72583D01*
X61605Y-72590D01*
X58830Y-72590D01*
X58830Y-71885D01*
X58830Y-71644D01*
X58830Y-71506D01*
X58830Y-71264D01*
X58772Y-71207D01*
X58723Y-71206D01*
X58678Y-71207D01*
X58634Y-71216D01*
X58593Y-71233D01*
X58555Y-71258D01*
X58523Y-71290D01*
X58498Y-71328D01*
X58481Y-71370D01*
X58472Y-71414D01*
X58473Y-71448D01*
X58530Y-71506D01*
X58830Y-71506D01*
X58830Y-71644D01*
X58530Y-71644D01*
X58473Y-71701D01*
X58472Y-71735D01*
X58481Y-71779D01*
X58498Y-71821D01*
X58523Y-71859D01*
X58555Y-71891D01*
X58593Y-71916D01*
X58634Y-71933D01*
X58678Y-71942D01*
X58723Y-71943D01*
X58772Y-71943D01*
X58830Y-71885D01*
X58830Y-72590D01*
X58405Y-72590D01*
X58227Y-72572D01*
X58060Y-72522D01*
X57907Y-72441D01*
X57773Y-72331D01*
X57662Y-72197D01*
X57579Y-72044D01*
X57528Y-71878D01*
X57509Y-71701D01*
X57509Y-71699D01*
X57509Y-68805D01*
X57527Y-68627D01*
X57577Y-68460D01*
X57658Y-68307D01*
X57768Y-68173D01*
X57902Y-68062D01*
X58055Y-67979D01*
X58221Y-67928D01*
X58398Y-67909D01*
X58400Y-67909D01*
X63394Y-67909D01*
X63572Y-67927D01*
X63739Y-67977D01*
X63892Y-68058D01*
X64026Y-68168D01*
X64137Y-68302D01*
X64220Y-68455D01*
X64271Y-68621D01*
X64290Y-68798D01*
X64290Y-68800D01*
X64290Y-71694D01*
X64290Y-71694D01*
G37*
G54D16*
X64290Y-71694D02*
X64278Y-71811D01*
X64278Y-71404D01*
X64262Y-71322D01*
X64230Y-71245D01*
X64184Y-71176D01*
X64125Y-71117D01*
X64056Y-71070D01*
X63979Y-71038D01*
X63898Y-71021D01*
X63814Y-71020D01*
X63732Y-71036D01*
X63655Y-71067D01*
X63585Y-71113D01*
X63526Y-71171D01*
X63479Y-71240D01*
X63446Y-71317D01*
X63428Y-71398D01*
X63427Y-71482D01*
X63442Y-71564D01*
X63473Y-71641D01*
X63518Y-71711D01*
X63576Y-71771D01*
X63645Y-71819D01*
X63721Y-71852D01*
X63802Y-71870D01*
X63886Y-71872D01*
X63968Y-71858D01*
X64046Y-71827D01*
X64116Y-71783D01*
X64177Y-71725D01*
X64225Y-71657D01*
X64259Y-71581D01*
X64277Y-71500D01*
X64278Y-71404D01*
X64278Y-71811D01*
X64272Y-71872D01*
X64222Y-72039D01*
X64141Y-72192D01*
X64031Y-72326D01*
X63897Y-72437D01*
X63744Y-72520D01*
X63578Y-72571D01*
X63445Y-72585D01*
X63478Y-72563D01*
X63552Y-72491D01*
X63609Y-72406D01*
X63650Y-72311D01*
X63652Y-72304D01*
X63652Y-72002D01*
X63613Y-71907D01*
X63556Y-71821D01*
X63484Y-71747D01*
X63398Y-71690D01*
X63304Y-71649D01*
X63297Y-71647D01*
X63216Y-71688D01*
X63216Y-72083D01*
X63611Y-72083D01*
X63652Y-72002D01*
X63652Y-72304D01*
X63611Y-72223D01*
X63216Y-72223D01*
X63216Y-72590D01*
X63076Y-72590D01*
X63076Y-72223D01*
X62681Y-72223D01*
X62640Y-72304D01*
X62679Y-72399D01*
X62736Y-72485D01*
X62808Y-72559D01*
X62854Y-72590D01*
X62420Y-72590D01*
X62427Y-72583D01*
X62452Y-72545D01*
X62469Y-72504D01*
X62478Y-72460D01*
X62479Y-72415D01*
X62479Y-72327D01*
X62421Y-72270D01*
X62083Y-72270D01*
X62083Y-72277D01*
X61943Y-72277D01*
X61943Y-72270D01*
X61935Y-72270D01*
X61935Y-72130D01*
X61943Y-72130D01*
X61943Y-72122D01*
X62083Y-72122D01*
X62083Y-72130D01*
X62421Y-72130D01*
X62479Y-72072D01*
X62479Y-71984D01*
X62478Y-71939D01*
X62469Y-71895D01*
X62452Y-71854D01*
X62480Y-71866D01*
X62538Y-71879D01*
X62598Y-71880D01*
X62657Y-71870D01*
X62713Y-71848D01*
X62722Y-71842D01*
X62682Y-71901D01*
X62642Y-71995D01*
X62640Y-72002D01*
X62681Y-72083D01*
X62977Y-72083D01*
X63041Y-72147D01*
X63140Y-72048D01*
X63076Y-71984D01*
X63076Y-71688D01*
X62995Y-71647D01*
X62900Y-71686D01*
X62842Y-71725D01*
X62865Y-71671D01*
X62879Y-71613D01*
X62880Y-71545D01*
X62868Y-71486D01*
X62845Y-71431D01*
X62843Y-71428D01*
X63205Y-71428D01*
X63223Y-71424D01*
X63239Y-71417D01*
X63254Y-71408D01*
X63266Y-71395D01*
X63276Y-71381D01*
X63283Y-71364D01*
X63286Y-71347D01*
X63287Y-71329D01*
X63287Y-71053D01*
X63283Y-71035D01*
X63276Y-71019D01*
X63267Y-71004D01*
X63254Y-70992D01*
X63240Y-70982D01*
X63223Y-70975D01*
X63206Y-70972D01*
X63188Y-70971D01*
X62794Y-70971D01*
X62776Y-70975D01*
X62760Y-70982D01*
X62745Y-70991D01*
X62733Y-71004D01*
X62723Y-71018D01*
X62716Y-71035D01*
X62713Y-71052D01*
X62712Y-71070D01*
X62712Y-71080D01*
X62254Y-71080D01*
X62258Y-71078D01*
X62279Y-71064D01*
X62297Y-71046D01*
X62311Y-71025D01*
X62321Y-71001D01*
X62326Y-70976D01*
X62327Y-70951D01*
X62327Y-70674D01*
X62322Y-70649D01*
X62312Y-70625D01*
X62298Y-70604D01*
X62280Y-70586D01*
X62259Y-70572D01*
X62235Y-70562D01*
X62210Y-70557D01*
X62185Y-70556D01*
X62180Y-70556D01*
X62180Y-70543D01*
X62209Y-70543D01*
X62234Y-70538D01*
X62258Y-70528D01*
X62279Y-70514D01*
X62297Y-70496D01*
X62311Y-70475D01*
X62321Y-70451D01*
X62326Y-70426D01*
X62327Y-70401D01*
X62327Y-70124D01*
X62322Y-70099D01*
X62314Y-70080D01*
X62679Y-70080D01*
X62687Y-70099D01*
X62701Y-70120D01*
X62719Y-70138D01*
X62740Y-70152D01*
X62764Y-70162D01*
X62789Y-70167D01*
X62814Y-70168D01*
X63209Y-70168D01*
X63234Y-70163D01*
X63258Y-70153D01*
X63279Y-70139D01*
X63297Y-70121D01*
X63311Y-70100D01*
X63321Y-70076D01*
X63326Y-70051D01*
X63327Y-70026D01*
X63327Y-69749D01*
X63322Y-69724D01*
X63312Y-69700D01*
X63298Y-69679D01*
X63280Y-69661D01*
X63259Y-69647D01*
X63235Y-69637D01*
X63210Y-69632D01*
X63185Y-69631D01*
X62790Y-69631D01*
X62765Y-69636D01*
X62741Y-69646D01*
X62720Y-69660D01*
X62702Y-69678D01*
X62688Y-69699D01*
X62679Y-69720D01*
X62314Y-69720D01*
X62321Y-69701D01*
X62326Y-69676D01*
X62327Y-69651D01*
X62327Y-69374D01*
X62322Y-69349D01*
X62312Y-69325D01*
X62298Y-69304D01*
X62280Y-69286D01*
X62259Y-69272D01*
X62235Y-69262D01*
X62210Y-69257D01*
X62185Y-69256D01*
X62180Y-69256D01*
X62180Y-69243D01*
X62209Y-69243D01*
X62234Y-69238D01*
X62258Y-69228D01*
X62279Y-69214D01*
X62297Y-69196D01*
X62311Y-69175D01*
X62321Y-69151D01*
X62326Y-69126D01*
X62327Y-69101D01*
X62327Y-68824D01*
X62322Y-68799D01*
X62314Y-68780D01*
X62679Y-68780D01*
X62687Y-68799D01*
X62701Y-68820D01*
X62719Y-68838D01*
X62740Y-68852D01*
X62764Y-68862D01*
X62789Y-68867D01*
X62814Y-68868D01*
X63209Y-68868D01*
X63234Y-68863D01*
X63258Y-68853D01*
X63279Y-68839D01*
X63297Y-68821D01*
X63311Y-68800D01*
X63321Y-68776D01*
X63326Y-68751D01*
X63327Y-68726D01*
X63327Y-68449D01*
X63322Y-68424D01*
X63314Y-68405D01*
X63350Y-68405D01*
X63620Y-68674D01*
X63620Y-69414D01*
X63602Y-69421D01*
X63532Y-69466D01*
X63472Y-69525D01*
X63425Y-69594D01*
X63392Y-69670D01*
X63375Y-69752D01*
X63374Y-69835D01*
X63389Y-69917D01*
X63419Y-69995D01*
X63465Y-70065D01*
X63523Y-70125D01*
X63591Y-70173D01*
X63667Y-70206D01*
X63749Y-70224D01*
X63832Y-70226D01*
X63914Y-70211D01*
X63992Y-70181D01*
X64063Y-70136D01*
X64123Y-70079D01*
X64171Y-70011D01*
X64205Y-69934D01*
X64223Y-69853D01*
X64225Y-69758D01*
X64209Y-69676D01*
X64177Y-69599D01*
X64131Y-69529D01*
X64072Y-69470D01*
X64003Y-69424D01*
X63980Y-69414D01*
X63980Y-68600D01*
X63978Y-68583D01*
X63976Y-68566D01*
X63976Y-68565D01*
X63976Y-68565D01*
X63971Y-68549D01*
X63967Y-68533D01*
X63966Y-68532D01*
X63966Y-68531D01*
X63958Y-68516D01*
X63950Y-68501D01*
X63950Y-68501D01*
X63949Y-68500D01*
X63939Y-68487D01*
X63929Y-68474D01*
X63927Y-68473D01*
X63927Y-68473D01*
X63927Y-68473D01*
X63927Y-68472D01*
X63552Y-68097D01*
X63539Y-68087D01*
X63526Y-68076D01*
X63525Y-68076D01*
X63525Y-68075D01*
X63510Y-68067D01*
X63495Y-68059D01*
X63495Y-68059D01*
X63494Y-68058D01*
X63478Y-68053D01*
X63462Y-68048D01*
X63461Y-68048D01*
X63460Y-68048D01*
X63443Y-68046D01*
X63427Y-68045D01*
X63425Y-68045D01*
X63425Y-68045D01*
X63425Y-68045D01*
X63425Y-68045D01*
X62320Y-68045D01*
X62312Y-68025D01*
X62298Y-68004D01*
X62280Y-67986D01*
X62259Y-67972D01*
X62235Y-67962D01*
X62210Y-67957D01*
X62185Y-67956D01*
X61790Y-67956D01*
X61765Y-67961D01*
X61741Y-67971D01*
X61720Y-67985D01*
X61702Y-68003D01*
X61692Y-68017D01*
X61672Y-67996D01*
X61634Y-67971D01*
X61593Y-67954D01*
X61549Y-67945D01*
X61504Y-67944D01*
X61427Y-67945D01*
X61370Y-68002D01*
X61370Y-68237D01*
X61377Y-68237D01*
X61377Y-68362D01*
X61370Y-68362D01*
X61370Y-68377D01*
X61230Y-68377D01*
X61230Y-68362D01*
X61222Y-68362D01*
X61222Y-68237D01*
X61230Y-68237D01*
X61230Y-68002D01*
X61172Y-67945D01*
X61095Y-67944D01*
X61050Y-67945D01*
X61006Y-67954D01*
X60965Y-67971D01*
X60927Y-67996D01*
X60895Y-68028D01*
X60870Y-68066D01*
X60853Y-68108D01*
X60848Y-68133D01*
X60840Y-68113D01*
X60826Y-68092D01*
X60808Y-68074D01*
X60787Y-68060D01*
X60763Y-68050D01*
X60738Y-68045D01*
X60713Y-68044D01*
X60262Y-68044D01*
X60237Y-68049D01*
X60213Y-68059D01*
X60192Y-68073D01*
X60174Y-68091D01*
X60160Y-68112D01*
X60150Y-68136D01*
X60145Y-68161D01*
X60144Y-68186D01*
X60144Y-68341D01*
X60135Y-68337D01*
X60110Y-68332D01*
X60085Y-68331D01*
X59690Y-68331D01*
X59665Y-68336D01*
X59641Y-68346D01*
X59620Y-68360D01*
X59602Y-68378D01*
X59588Y-68399D01*
X59578Y-68423D01*
X59573Y-68448D01*
X59572Y-68473D01*
X59572Y-68750D01*
X59577Y-68775D01*
X59587Y-68799D01*
X59601Y-68820D01*
X59619Y-68838D01*
X59640Y-68852D01*
X59664Y-68862D01*
X59689Y-68867D01*
X59714Y-68868D01*
X60109Y-68868D01*
X60134Y-68863D01*
X60144Y-68858D01*
X60144Y-69037D01*
X60149Y-69062D01*
X60159Y-69086D01*
X60173Y-69107D01*
X60191Y-69125D01*
X60212Y-69139D01*
X60236Y-69149D01*
X60237Y-69149D01*
X60213Y-69159D01*
X60200Y-69168D01*
X60195Y-69163D01*
X60145Y-69130D01*
X60090Y-69107D01*
X60032Y-69095D01*
X59972Y-69094D01*
X59913Y-69105D01*
X59858Y-69128D01*
X59807Y-69161D01*
X59765Y-69203D01*
X59731Y-69252D01*
X59707Y-69307D01*
X59695Y-69365D01*
X59694Y-69425D01*
X59705Y-69484D01*
X59727Y-69540D01*
X59759Y-69590D01*
X59799Y-69631D01*
X59690Y-69631D01*
X59665Y-69636D01*
X59641Y-69646D01*
X59620Y-69660D01*
X59602Y-69678D01*
X59588Y-69699D01*
X59578Y-69723D01*
X59573Y-69748D01*
X59572Y-69773D01*
X59572Y-70050D01*
X59577Y-70075D01*
X59587Y-70099D01*
X59601Y-70120D01*
X59619Y-70138D01*
X59640Y-70152D01*
X59664Y-70162D01*
X59689Y-70167D01*
X59714Y-70168D01*
X60109Y-70168D01*
X60134Y-70163D01*
X60148Y-70157D01*
X60149Y-70162D01*
X60159Y-70186D01*
X60173Y-70207D01*
X60191Y-70225D01*
X60212Y-70239D01*
X60236Y-70249D01*
X60237Y-70249D01*
X60213Y-70259D01*
X60200Y-70268D01*
X60195Y-70263D01*
X60145Y-70230D01*
X60090Y-70207D01*
X60032Y-70195D01*
X59972Y-70194D01*
X59913Y-70205D01*
X59858Y-70228D01*
X59807Y-70261D01*
X59765Y-70303D01*
X59731Y-70352D01*
X59707Y-70407D01*
X59695Y-70465D01*
X59694Y-70525D01*
X59705Y-70584D01*
X59727Y-70640D01*
X59759Y-70690D01*
X59801Y-70733D01*
X59850Y-70767D01*
X59905Y-70791D01*
X59963Y-70804D01*
X60023Y-70805D01*
X60082Y-70795D01*
X60138Y-70773D01*
X60188Y-70741D01*
X60199Y-70731D01*
X60212Y-70739D01*
X60236Y-70749D01*
X60261Y-70754D01*
X60286Y-70755D01*
X60737Y-70755D01*
X60762Y-70750D01*
X60786Y-70740D01*
X60807Y-70726D01*
X60825Y-70708D01*
X60839Y-70687D01*
X60849Y-70663D01*
X60854Y-70638D01*
X60855Y-70613D01*
X60855Y-70362D01*
X60850Y-70337D01*
X60840Y-70313D01*
X60826Y-70292D01*
X60808Y-70274D01*
X60787Y-70260D01*
X60763Y-70250D01*
X60762Y-70250D01*
X60786Y-70240D01*
X60807Y-70226D01*
X60825Y-70208D01*
X60839Y-70187D01*
X60849Y-70163D01*
X60854Y-70138D01*
X60855Y-70113D01*
X60855Y-69862D01*
X60850Y-69837D01*
X60840Y-69813D01*
X60826Y-69792D01*
X60808Y-69774D01*
X60787Y-69760D01*
X60763Y-69750D01*
X60738Y-69745D01*
X60713Y-69744D01*
X60290Y-69744D01*
X60285Y-69742D01*
X60270Y-69734D01*
X60270Y-69734D01*
X60269Y-69733D01*
X60253Y-69728D01*
X60237Y-69723D01*
X60236Y-69723D01*
X60235Y-69723D01*
X60221Y-69722D01*
X60212Y-69700D01*
X60198Y-69679D01*
X60180Y-69661D01*
X60169Y-69653D01*
X60188Y-69641D01*
X60199Y-69631D01*
X60212Y-69639D01*
X60236Y-69649D01*
X60261Y-69654D01*
X60286Y-69655D01*
X60737Y-69655D01*
X60762Y-69650D01*
X60786Y-69640D01*
X60807Y-69626D01*
X60825Y-69608D01*
X60839Y-69587D01*
X60848Y-69566D01*
X60853Y-69591D01*
X60870Y-69633D01*
X60895Y-69671D01*
X60927Y-69703D01*
X60965Y-69728D01*
X61006Y-69745D01*
X61033Y-69751D01*
X61013Y-69759D01*
X60992Y-69773D01*
X60974Y-69791D01*
X60960Y-69812D01*
X60950Y-69836D01*
X60945Y-69861D01*
X60944Y-69886D01*
X60944Y-70137D01*
X60949Y-70162D01*
X60959Y-70186D01*
X60973Y-70207D01*
X60991Y-70225D01*
X61012Y-70239D01*
X61036Y-70249D01*
X61061Y-70254D01*
X61086Y-70255D01*
X61537Y-70255D01*
X61562Y-70250D01*
X61586Y-70240D01*
X61607Y-70226D01*
X61625Y-70208D01*
X61639Y-70187D01*
X61645Y-70173D01*
X61650Y-70171D01*
X61666Y-70167D01*
X61667Y-70166D01*
X61668Y-70166D01*
X61672Y-70164D01*
X61672Y-70423D01*
X61664Y-70415D01*
X61656Y-70408D01*
X61647Y-70400D01*
X61647Y-70400D01*
X61646Y-70400D01*
X61636Y-70395D01*
X61627Y-70389D01*
X61626Y-70389D01*
X61626Y-70389D01*
X61615Y-70385D01*
X61615Y-70385D01*
X61615Y-70366D01*
X61611Y-70348D01*
X61604Y-70332D01*
X61595Y-70317D01*
X61582Y-70305D01*
X61568Y-70295D01*
X61551Y-70288D01*
X61534Y-70285D01*
X61516Y-70284D01*
X61066Y-70284D01*
X61048Y-70288D01*
X61032Y-70295D01*
X61017Y-70304D01*
X61005Y-70317D01*
X60995Y-70331D01*
X60988Y-70348D01*
X60985Y-70365D01*
X60984Y-70383D01*
X60984Y-70633D01*
X60988Y-70651D01*
X60995Y-70667D01*
X61004Y-70682D01*
X61017Y-70694D01*
X61031Y-70704D01*
X61048Y-70711D01*
X61065Y-70714D01*
X61083Y-70715D01*
X61533Y-70715D01*
X61550Y-70711D01*
X61550Y-70847D01*
X61538Y-70845D01*
X61513Y-70844D01*
X61062Y-70844D01*
X61037Y-70849D01*
X61013Y-70859D01*
X60992Y-70873D01*
X60974Y-70891D01*
X60960Y-70912D01*
X60950Y-70936D01*
X60945Y-70961D01*
X60944Y-70986D01*
X60944Y-71237D01*
X60949Y-71262D01*
X60959Y-71286D01*
X60973Y-71307D01*
X60991Y-71325D01*
X61012Y-71339D01*
X61036Y-71349D01*
X61061Y-71354D01*
X61086Y-71355D01*
X61120Y-71355D01*
X61120Y-71425D01*
X61059Y-71485D01*
X61049Y-71498D01*
X61038Y-71511D01*
X61038Y-71512D01*
X61037Y-71512D01*
X61029Y-71527D01*
X61021Y-71542D01*
X61021Y-71542D01*
X61020Y-71543D01*
X61015Y-71559D01*
X61010Y-71575D01*
X61010Y-71576D01*
X61010Y-71577D01*
X61008Y-71594D01*
X61007Y-71610D01*
X61007Y-71612D01*
X61007Y-71612D01*
X61007Y-71612D01*
X61007Y-71613D01*
X61007Y-71833D01*
X60938Y-71833D01*
X60913Y-71838D01*
X60889Y-71848D01*
X60868Y-71862D01*
X60855Y-71876D01*
X60855Y-71213D01*
X60855Y-70962D01*
X60850Y-70937D01*
X60840Y-70913D01*
X60826Y-70892D01*
X60808Y-70874D01*
X60787Y-70860D01*
X60763Y-70850D01*
X60738Y-70845D01*
X60713Y-70844D01*
X60262Y-70844D01*
X60237Y-70849D01*
X60213Y-70859D01*
X60192Y-70873D01*
X60174Y-70891D01*
X60160Y-70912D01*
X60150Y-70936D01*
X60148Y-70942D01*
X60135Y-70937D01*
X60110Y-70932D01*
X60085Y-70931D01*
X59690Y-70931D01*
X59665Y-70936D01*
X59641Y-70946D01*
X59620Y-70960D01*
X59602Y-70978D01*
X59588Y-70999D01*
X59578Y-71023D01*
X59573Y-71048D01*
X59572Y-71073D01*
X59572Y-71350D01*
X59577Y-71375D01*
X59587Y-71399D01*
X59601Y-71420D01*
X59619Y-71438D01*
X59640Y-71452D01*
X59664Y-71462D01*
X59689Y-71467D01*
X59714Y-71468D01*
X59720Y-71468D01*
X59720Y-71525D01*
X59459Y-71785D01*
X59449Y-71798D01*
X59438Y-71811D01*
X59438Y-71812D01*
X59437Y-71812D01*
X59429Y-71827D01*
X59426Y-71833D01*
X59338Y-71833D01*
X59313Y-71838D01*
X59289Y-71848D01*
X59277Y-71856D01*
X59301Y-71821D01*
X59318Y-71779D01*
X59327Y-71735D01*
X59327Y-71414D01*
X59318Y-71370D01*
X59301Y-71328D01*
X59276Y-71290D01*
X59244Y-71258D01*
X59227Y-71247D01*
X59227Y-70951D01*
X59227Y-70674D01*
X59222Y-70649D01*
X59212Y-70625D01*
X59198Y-70604D01*
X59180Y-70586D01*
X59159Y-70572D01*
X59135Y-70562D01*
X59110Y-70557D01*
X59085Y-70556D01*
X59080Y-70556D01*
X59080Y-70543D01*
X59109Y-70543D01*
X59134Y-70538D01*
X59158Y-70528D01*
X59179Y-70514D01*
X59197Y-70496D01*
X59211Y-70475D01*
X59221Y-70451D01*
X59226Y-70426D01*
X59227Y-70401D01*
X59227Y-69651D01*
X59227Y-69374D01*
X59222Y-69349D01*
X59212Y-69325D01*
X59198Y-69304D01*
X59180Y-69286D01*
X59159Y-69272D01*
X59135Y-69262D01*
X59110Y-69257D01*
X59085Y-69256D01*
X59080Y-69256D01*
X59080Y-69243D01*
X59109Y-69243D01*
X59134Y-69238D01*
X59158Y-69228D01*
X59179Y-69214D01*
X59197Y-69196D01*
X59211Y-69175D01*
X59221Y-69151D01*
X59226Y-69126D01*
X59227Y-69101D01*
X59227Y-68351D01*
X59227Y-68074D01*
X59222Y-68049D01*
X59212Y-68025D01*
X59198Y-68004D01*
X59180Y-67986D01*
X59159Y-67972D01*
X59135Y-67962D01*
X59110Y-67957D01*
X59085Y-67956D01*
X58690Y-67956D01*
X58665Y-67961D01*
X58641Y-67971D01*
X58620Y-67985D01*
X58602Y-68003D01*
X58588Y-68024D01*
X58579Y-68045D01*
X58450Y-68045D01*
X58433Y-68046D01*
X58416Y-68048D01*
X58415Y-68048D01*
X58415Y-68048D01*
X58399Y-68053D01*
X58383Y-68057D01*
X58382Y-68058D01*
X58381Y-68058D01*
X58366Y-68066D01*
X58351Y-68074D01*
X58351Y-68074D01*
X58350Y-68075D01*
X58337Y-68085D01*
X58324Y-68095D01*
X58323Y-68097D01*
X58323Y-68097D01*
X58323Y-68097D01*
X58322Y-68097D01*
X57872Y-68547D01*
X57862Y-68560D01*
X57851Y-68573D01*
X57851Y-68574D01*
X57850Y-68574D01*
X57842Y-68589D01*
X57834Y-68604D01*
X57834Y-68604D01*
X57833Y-68605D01*
X57828Y-68621D01*
X57823Y-68637D01*
X57823Y-68638D01*
X57823Y-68639D01*
X57821Y-68656D01*
X57820Y-68672D01*
X57820Y-68674D01*
X57820Y-68674D01*
X57820Y-68674D01*
X57820Y-68675D01*
X57820Y-69414D01*
X57802Y-69421D01*
X57732Y-69466D01*
X57672Y-69525D01*
X57625Y-69594D01*
X57592Y-69670D01*
X57575Y-69752D01*
X57574Y-69835D01*
X57589Y-69917D01*
X57619Y-69995D01*
X57665Y-70065D01*
X57723Y-70125D01*
X57791Y-70173D01*
X57867Y-70206D01*
X57949Y-70224D01*
X58032Y-70226D01*
X58114Y-70211D01*
X58192Y-70181D01*
X58263Y-70136D01*
X58323Y-70079D01*
X58371Y-70011D01*
X58405Y-69934D01*
X58423Y-69853D01*
X58425Y-69758D01*
X58409Y-69676D01*
X58377Y-69599D01*
X58331Y-69529D01*
X58272Y-69470D01*
X58203Y-69424D01*
X58180Y-69414D01*
X58180Y-68749D01*
X58524Y-68405D01*
X58579Y-68405D01*
X58587Y-68424D01*
X58601Y-68445D01*
X58619Y-68463D01*
X58640Y-68477D01*
X58664Y-68487D01*
X58689Y-68492D01*
X58714Y-68493D01*
X59109Y-68493D01*
X59134Y-68488D01*
X59158Y-68478D01*
X59179Y-68464D01*
X59197Y-68446D01*
X59211Y-68425D01*
X59221Y-68401D01*
X59226Y-68376D01*
X59227Y-68351D01*
X59227Y-69101D01*
X59227Y-68824D01*
X59222Y-68799D01*
X59212Y-68775D01*
X59198Y-68754D01*
X59180Y-68736D01*
X59159Y-68722D01*
X59135Y-68712D01*
X59110Y-68707D01*
X59085Y-68706D01*
X58690Y-68706D01*
X58665Y-68711D01*
X58641Y-68721D01*
X58620Y-68735D01*
X58602Y-68753D01*
X58588Y-68774D01*
X58578Y-68798D01*
X58573Y-68823D01*
X58572Y-68848D01*
X58572Y-69125D01*
X58577Y-69150D01*
X58587Y-69174D01*
X58601Y-69195D01*
X58619Y-69213D01*
X58640Y-69227D01*
X58664Y-69237D01*
X58689Y-69242D01*
X58714Y-69243D01*
X58720Y-69243D01*
X58720Y-69256D01*
X58690Y-69256D01*
X58665Y-69261D01*
X58641Y-69271D01*
X58620Y-69285D01*
X58602Y-69303D01*
X58588Y-69324D01*
X58578Y-69348D01*
X58573Y-69373D01*
X58572Y-69398D01*
X58572Y-69675D01*
X58577Y-69700D01*
X58587Y-69724D01*
X58601Y-69745D01*
X58619Y-69763D01*
X58640Y-69777D01*
X58664Y-69787D01*
X58689Y-69792D01*
X58714Y-69793D01*
X59109Y-69793D01*
X59134Y-69788D01*
X59158Y-69778D01*
X59179Y-69764D01*
X59197Y-69746D01*
X59211Y-69725D01*
X59221Y-69701D01*
X59226Y-69676D01*
X59227Y-69651D01*
X59227Y-70401D01*
X59227Y-70124D01*
X59222Y-70099D01*
X59212Y-70075D01*
X59198Y-70054D01*
X59180Y-70036D01*
X59159Y-70022D01*
X59135Y-70012D01*
X59110Y-70007D01*
X59085Y-70006D01*
X58690Y-70006D01*
X58665Y-70011D01*
X58641Y-70021D01*
X58620Y-70035D01*
X58602Y-70053D01*
X58588Y-70074D01*
X58578Y-70098D01*
X58573Y-70123D01*
X58572Y-70148D01*
X58572Y-70425D01*
X58577Y-70450D01*
X58587Y-70474D01*
X58601Y-70495D01*
X58619Y-70513D01*
X58640Y-70527D01*
X58664Y-70537D01*
X58689Y-70542D01*
X58714Y-70543D01*
X58720Y-70543D01*
X58720Y-70556D01*
X58690Y-70556D01*
X58665Y-70561D01*
X58641Y-70571D01*
X58620Y-70585D01*
X58602Y-70603D01*
X58588Y-70624D01*
X58578Y-70648D01*
X58573Y-70673D01*
X58572Y-70698D01*
X58572Y-70975D01*
X58577Y-71000D01*
X58587Y-71024D01*
X58601Y-71045D01*
X58619Y-71063D01*
X58640Y-71077D01*
X58664Y-71087D01*
X58689Y-71092D01*
X58714Y-71093D01*
X59109Y-71093D01*
X59134Y-71088D01*
X59158Y-71078D01*
X59179Y-71064D01*
X59197Y-71046D01*
X59211Y-71025D01*
X59221Y-71001D01*
X59226Y-70976D01*
X59227Y-70951D01*
X59227Y-71247D01*
X59206Y-71233D01*
X59165Y-71216D01*
X59121Y-71207D01*
X59076Y-71206D01*
X59027Y-71207D01*
X58970Y-71264D01*
X58970Y-71506D01*
X59269Y-71506D01*
X59327Y-71448D01*
X59327Y-71414D01*
X59327Y-71735D01*
X59327Y-71701D01*
X59269Y-71644D01*
X58970Y-71644D01*
X58970Y-71885D01*
X59027Y-71943D01*
X59076Y-71943D01*
X59121Y-71942D01*
X59165Y-71933D01*
X59206Y-71916D01*
X59242Y-71892D01*
X59236Y-71901D01*
X59226Y-71925D01*
X59221Y-71950D01*
X59220Y-71975D01*
X59220Y-72448D01*
X59225Y-72473D01*
X59235Y-72497D01*
X59249Y-72518D01*
X59267Y-72536D01*
X59288Y-72550D01*
X59312Y-72560D01*
X59337Y-72565D01*
X59362Y-72566D01*
X59835Y-72566D01*
X59860Y-72561D01*
X59884Y-72551D01*
X59905Y-72537D01*
X59923Y-72519D01*
X59937Y-72498D01*
X59947Y-72474D01*
X59952Y-72449D01*
X59953Y-72424D01*
X59953Y-71951D01*
X59948Y-71926D01*
X59938Y-71902D01*
X59924Y-71881D01*
X59906Y-71863D01*
X59897Y-71857D01*
X60027Y-71727D01*
X60037Y-71714D01*
X60048Y-71701D01*
X60048Y-71700D01*
X60049Y-71700D01*
X60057Y-71685D01*
X60065Y-71670D01*
X60065Y-71670D01*
X60066Y-71669D01*
X60071Y-71653D01*
X60076Y-71637D01*
X60076Y-71636D01*
X60076Y-71635D01*
X60078Y-71619D01*
X60079Y-71602D01*
X60079Y-71600D01*
X60079Y-71600D01*
X60079Y-71600D01*
X60080Y-71600D01*
X60080Y-71468D01*
X60109Y-71468D01*
X60134Y-71463D01*
X60158Y-71453D01*
X60179Y-71439D01*
X60197Y-71421D01*
X60211Y-71400D01*
X60221Y-71376D01*
X60226Y-71351D01*
X60226Y-71345D01*
X60236Y-71349D01*
X60261Y-71354D01*
X60286Y-71355D01*
X60420Y-71355D01*
X60420Y-71525D01*
X60285Y-71659D01*
X60275Y-71672D01*
X60264Y-71685D01*
X60264Y-71686D01*
X60263Y-71686D01*
X60255Y-71701D01*
X60247Y-71716D01*
X60247Y-71716D01*
X60246Y-71717D01*
X60241Y-71733D01*
X60236Y-71749D01*
X60236Y-71750D01*
X60236Y-71751D01*
X60234Y-71768D01*
X60233Y-71784D01*
X60233Y-71786D01*
X60233Y-71786D01*
X60233Y-71786D01*
X60233Y-71787D01*
X60233Y-71833D01*
X60164Y-71833D01*
X60139Y-71838D01*
X60115Y-71848D01*
X60094Y-71862D01*
X60076Y-71880D01*
X60062Y-71901D01*
X60052Y-71925D01*
X60047Y-71950D01*
X60046Y-71975D01*
X60046Y-72448D01*
X60051Y-72473D01*
X60061Y-72497D01*
X60075Y-72518D01*
X60093Y-72536D01*
X60114Y-72550D01*
X60138Y-72560D01*
X60163Y-72565D01*
X60188Y-72566D01*
X60661Y-72566D01*
X60686Y-72561D01*
X60710Y-72551D01*
X60731Y-72537D01*
X60749Y-72519D01*
X60763Y-72498D01*
X60773Y-72474D01*
X60778Y-72449D01*
X60779Y-72424D01*
X60779Y-71951D01*
X60774Y-71926D01*
X60764Y-71902D01*
X60750Y-71881D01*
X60732Y-71863D01*
X60711Y-71849D01*
X60687Y-71839D01*
X60662Y-71834D01*
X60637Y-71833D01*
X60620Y-71833D01*
X60727Y-71727D01*
X60737Y-71714D01*
X60748Y-71701D01*
X60748Y-71700D01*
X60749Y-71700D01*
X60757Y-71685D01*
X60765Y-71670D01*
X60765Y-71670D01*
X60766Y-71669D01*
X60771Y-71653D01*
X60776Y-71637D01*
X60776Y-71636D01*
X60776Y-71635D01*
X60778Y-71619D01*
X60779Y-71602D01*
X60779Y-71600D01*
X60779Y-71600D01*
X60779Y-71600D01*
X60780Y-71600D01*
X60780Y-71342D01*
X60786Y-71340D01*
X60807Y-71326D01*
X60825Y-71308D01*
X60839Y-71287D01*
X60849Y-71263D01*
X60854Y-71238D01*
X60855Y-71213D01*
X60855Y-71876D01*
X60850Y-71880D01*
X60836Y-71901D01*
X60826Y-71925D01*
X60821Y-71950D01*
X60820Y-71975D01*
X60820Y-72448D01*
X60825Y-72473D01*
X60835Y-72497D01*
X60849Y-72518D01*
X60867Y-72536D01*
X60888Y-72550D01*
X60912Y-72560D01*
X60937Y-72565D01*
X60962Y-72566D01*
X61435Y-72566D01*
X61460Y-72561D01*
X61484Y-72551D01*
X61505Y-72537D01*
X61523Y-72519D01*
X61537Y-72498D01*
X61547Y-72474D01*
X61548Y-72468D01*
X61556Y-72504D01*
X61573Y-72545D01*
X61598Y-72583D01*
X61605Y-72590D01*
X58830Y-72590D01*
X58830Y-71885D01*
X58830Y-71644D01*
X58830Y-71506D01*
X58830Y-71264D01*
X58772Y-71207D01*
X58723Y-71206D01*
X58678Y-71207D01*
X58634Y-71216D01*
X58593Y-71233D01*
X58555Y-71258D01*
X58523Y-71290D01*
X58498Y-71328D01*
X58481Y-71370D01*
X58472Y-71414D01*
X58473Y-71448D01*
X58530Y-71506D01*
X58830Y-71506D01*
X58830Y-71644D01*
X58530Y-71644D01*
X58473Y-71701D01*
X58472Y-71735D01*
X58481Y-71779D01*
X58498Y-71821D01*
X58523Y-71859D01*
X58555Y-71891D01*
X58593Y-71916D01*
X58634Y-71933D01*
X58678Y-71942D01*
X58723Y-71943D01*
X58772Y-71943D01*
X58830Y-71885D01*
X58830Y-72590D01*
X58405Y-72590D01*
X58227Y-72572D01*
X58060Y-72522D01*
X57907Y-72441D01*
X57773Y-72331D01*
X57662Y-72197D01*
X57579Y-72044D01*
X57528Y-71878D01*
X57509Y-71701D01*
X57509Y-71699D01*
X57509Y-68805D01*
X57527Y-68627D01*
X57577Y-68460D01*
X57658Y-68307D01*
X57768Y-68173D01*
X57902Y-68062D01*
X58055Y-67979D01*
X58221Y-67928D01*
X58398Y-67909D01*
X58400Y-67909D01*
X63394Y-67909D01*
X63572Y-67927D01*
X63739Y-67977D01*
X63892Y-68058D01*
X64026Y-68168D01*
X64137Y-68302D01*
X64220Y-68455D01*
X64271Y-68621D01*
X64290Y-68798D01*
X64290Y-68800D01*
X64290Y-71694D01*
M02*
