M48
INCH,TZ
T1C0.025
T2C0.032
T3C0.120
%
G90
G05
T1
X57000Y-67500
X57000Y-68400
X57000Y-69280
X57000Y-70160
X57000Y-71040
X57000Y-71920
X57000Y-72800
X58000Y-67500
X58000Y-72800
X58900Y-67500
X58900Y-72800
X59400Y-68325
X59900Y-72200
X60100Y-67500
X60700Y-72200
X60900Y-73300
X61100Y-67500
X61300Y-72200
X61750Y-73850
X62200Y-69200
X62200Y-72200
X62300Y-67500
X63300Y-67500
X64000Y-68325
X64200Y-72200
X64300Y-67500
X64300Y-72800
X65200Y-67500
X65200Y-72800
X66200Y-67500
X66200Y-68400
X66200Y-69280
X66200Y-70160
X66200Y-71040
X66200Y-71920
X66200Y-72800
T2
X58800Y-73550
X58800Y-74550
X60100Y-66200
X63300Y-66200
X64600Y-73550
X64600Y-74550
T3
X57200Y-75400
X59100Y-76900
X60900Y-75400
X62300Y-75400
X64100Y-76900
X66000Y-75400
T0
M30
