G04 (created by PCBNEW (2013-07-07 BZR 4022)-stable) date 8/24/2014 7:03:50 PM*
%MOIN*%
G04 Gerber Fmt 3.4, Leading zero omitted, Abs format*
%FSLAX34Y34*%
G01*
G70*
G90*
G04 APERTURE LIST*
%ADD10C,0.00590551*%
%ADD11R,0.0394X0.0276*%
%ADD12R,0.025X0.045*%
%ADD13C,0.0590551*%
%ADD14C,0.066*%
%ADD15R,0.0472X0.0472*%
%ADD16C,0.15*%
%ADD17C,0.12*%
%ADD18C,0.035*%
%ADD19C,0.01*%
G04 APERTURE END LIST*
G54D10*
G54D11*
X59900Y-68700D03*
X58900Y-69075D03*
X58900Y-68325D03*
X59900Y-71700D03*
X58900Y-72075D03*
X58900Y-71325D03*
X59900Y-70200D03*
X58900Y-70575D03*
X58900Y-69825D03*
X64500Y-68700D03*
X63500Y-69075D03*
X63500Y-68325D03*
X64500Y-70200D03*
X63500Y-70575D03*
X63500Y-69825D03*
X64500Y-71700D03*
X63500Y-72075D03*
X63500Y-71325D03*
G54D12*
X61300Y-71700D03*
X60700Y-71700D03*
X61300Y-70200D03*
X60700Y-70200D03*
X61300Y-68700D03*
X60700Y-68700D03*
X62800Y-71700D03*
X62200Y-71700D03*
X62800Y-70200D03*
X62200Y-70200D03*
X62800Y-68700D03*
X62200Y-68700D03*
G54D13*
X63300Y-67300D03*
X60100Y-67300D03*
G54D14*
X58800Y-74550D03*
X58800Y-73550D03*
X64600Y-74550D03*
X64600Y-73550D03*
G54D15*
X61213Y-73850D03*
X60387Y-73850D03*
X63013Y-73850D03*
X62187Y-73850D03*
G54D16*
X57200Y-75400D03*
G54D17*
X60900Y-75400D03*
G54D16*
X59100Y-76900D03*
X64100Y-76900D03*
G54D17*
X62300Y-75400D03*
G54D16*
X66000Y-75400D03*
G54D18*
X64075Y-72075D03*
X61300Y-72200D03*
G54D19*
X62200Y-70300D02*
X62200Y-69300D01*
X62200Y-69300D02*
X62200Y-69200D01*
X62200Y-69200D02*
X62200Y-68700D01*
X58900Y-68325D02*
X59675Y-68325D01*
X60100Y-67900D02*
X60100Y-67300D01*
X59675Y-68325D02*
X60100Y-67900D01*
X60700Y-71700D02*
X60700Y-72500D01*
X61213Y-73013D02*
X61213Y-73850D01*
X60700Y-72500D02*
X61213Y-73013D01*
X58800Y-74550D02*
X60950Y-74550D01*
X61213Y-74287D02*
X61213Y-73850D01*
X60950Y-74550D02*
X61213Y-74287D01*
X63500Y-68325D02*
X63500Y-68100D01*
X63300Y-67900D02*
X63300Y-67300D01*
X63500Y-68100D02*
X63300Y-67900D01*
X62800Y-68700D02*
X64500Y-68700D01*
X62800Y-70200D02*
X64500Y-70200D01*
X64500Y-71700D02*
X62800Y-71700D01*
X63500Y-69825D02*
X63500Y-69075D01*
X63500Y-70575D02*
X63500Y-71325D01*
X59900Y-70200D02*
X60700Y-70200D01*
X58900Y-70575D02*
X58900Y-71325D01*
X58900Y-69075D02*
X58900Y-69825D01*
X60700Y-68700D02*
X59900Y-68700D01*
X62200Y-71700D02*
X62200Y-72500D01*
X63013Y-73313D02*
X63013Y-73850D01*
X62200Y-72500D02*
X63013Y-73313D01*
X64600Y-74550D02*
X63200Y-74550D01*
X63013Y-74363D02*
X63013Y-73850D01*
X63200Y-74550D02*
X63013Y-74363D01*
X59900Y-71700D02*
X59900Y-73050D01*
X59900Y-73050D02*
X59400Y-73550D01*
X59400Y-73550D02*
X58800Y-73550D01*
X58800Y-73550D02*
X59400Y-73550D01*
X59700Y-73850D02*
X60387Y-73850D01*
X59400Y-73550D02*
X59700Y-73850D01*
X64075Y-72075D02*
X63500Y-72075D01*
X61300Y-71700D02*
X61300Y-70200D01*
X61300Y-68700D02*
X61300Y-70200D01*
X61300Y-71800D02*
X61300Y-72200D01*
G54D10*
G36*
X66630Y-77564D02*
X66630Y-77565D01*
X66615Y-77619D01*
X66586Y-77678D01*
X66546Y-77730D01*
X66496Y-77773D01*
X66439Y-77806D01*
X66377Y-77828D01*
X66312Y-77837D01*
X66220Y-77831D01*
X66215Y-77831D01*
X66203Y-77830D01*
X66200Y-77830D01*
X65104Y-77830D01*
X65104Y-76892D01*
X65084Y-76697D01*
X65025Y-76509D01*
X64941Y-76350D01*
X64800Y-76269D01*
X64730Y-76340D01*
X64730Y-76199D01*
X64649Y-76058D01*
X64475Y-75967D01*
X64287Y-75912D01*
X64092Y-75895D01*
X63897Y-75915D01*
X63709Y-75974D01*
X63550Y-76058D01*
X63469Y-76199D01*
X64100Y-76829D01*
X64730Y-76199D01*
X64730Y-76340D01*
X64170Y-76900D01*
X64800Y-77530D01*
X64941Y-77449D01*
X65032Y-77275D01*
X65087Y-77087D01*
X65104Y-76892D01*
X65104Y-77830D01*
X64476Y-77830D01*
X64490Y-77825D01*
X64649Y-77741D01*
X64730Y-77600D01*
X64100Y-76970D01*
X64029Y-77041D01*
X64029Y-76900D01*
X63399Y-76269D01*
X63258Y-76350D01*
X63167Y-76524D01*
X63153Y-76572D01*
X63153Y-75385D01*
X63134Y-75220D01*
X63084Y-75061D01*
X63019Y-74939D01*
X62893Y-74876D01*
X62823Y-74947D01*
X62823Y-74806D01*
X62760Y-74680D01*
X62612Y-74605D01*
X62451Y-74559D01*
X62285Y-74546D01*
X62137Y-74563D01*
X62137Y-74273D01*
X62137Y-73900D01*
X62137Y-73800D01*
X62137Y-73426D01*
X62074Y-73364D01*
X61926Y-73363D01*
X61878Y-73373D01*
X61833Y-73392D01*
X61792Y-73419D01*
X61757Y-73453D01*
X61730Y-73494D01*
X61711Y-73539D01*
X61701Y-73587D01*
X61700Y-73636D01*
X61701Y-73737D01*
X61763Y-73800D01*
X62137Y-73800D01*
X62137Y-73900D01*
X61763Y-73900D01*
X61701Y-73962D01*
X61700Y-74063D01*
X61701Y-74112D01*
X61711Y-74160D01*
X61730Y-74205D01*
X61757Y-74246D01*
X61792Y-74280D01*
X61833Y-74307D01*
X61878Y-74326D01*
X61926Y-74336D01*
X62074Y-74336D01*
X62137Y-74273D01*
X62137Y-74563D01*
X62120Y-74565D01*
X61961Y-74615D01*
X61839Y-74680D01*
X61776Y-74806D01*
X62300Y-75329D01*
X62823Y-74806D01*
X62823Y-74947D01*
X62370Y-75400D01*
X62893Y-75923D01*
X63019Y-75860D01*
X63094Y-75712D01*
X63140Y-75551D01*
X63153Y-75385D01*
X63153Y-76572D01*
X63112Y-76712D01*
X63095Y-76907D01*
X63115Y-77102D01*
X63174Y-77290D01*
X63258Y-77449D01*
X63399Y-77530D01*
X64029Y-76900D01*
X64029Y-77041D01*
X63469Y-77600D01*
X63550Y-77741D01*
X63721Y-77830D01*
X62823Y-77830D01*
X62823Y-75993D01*
X62300Y-75470D01*
X61776Y-75993D01*
X61839Y-76119D01*
X61987Y-76194D01*
X62148Y-76240D01*
X62314Y-76253D01*
X62479Y-76234D01*
X62638Y-76184D01*
X62760Y-76119D01*
X62823Y-75993D01*
X62823Y-77830D01*
X59466Y-77830D01*
X59553Y-77796D01*
X59718Y-77691D01*
X59860Y-77556D01*
X59973Y-77396D01*
X60053Y-77217D01*
X60096Y-77025D01*
X60100Y-76801D01*
X60061Y-76609D01*
X59987Y-76428D01*
X59878Y-76264D01*
X59740Y-76125D01*
X59577Y-76016D01*
X59397Y-75940D01*
X59205Y-75900D01*
X59008Y-75899D01*
X58816Y-75936D01*
X58634Y-76009D01*
X58470Y-76116D01*
X58330Y-76254D01*
X58219Y-76415D01*
X58142Y-76596D01*
X58101Y-76787D01*
X58098Y-76984D01*
X58134Y-77176D01*
X58206Y-77359D01*
X58312Y-77524D01*
X58448Y-77665D01*
X58609Y-77777D01*
X58731Y-77830D01*
X56913Y-77830D01*
X56836Y-77822D01*
X56774Y-77804D01*
X56717Y-77774D01*
X56668Y-77733D01*
X56627Y-77683D01*
X56596Y-77627D01*
X56577Y-77566D01*
X56569Y-77489D01*
X56569Y-76179D01*
X56709Y-76277D01*
X56889Y-76355D01*
X57081Y-76397D01*
X57277Y-76401D01*
X57470Y-76367D01*
X57653Y-76296D01*
X57818Y-76191D01*
X57960Y-76056D01*
X58073Y-75896D01*
X58153Y-75717D01*
X58196Y-75525D01*
X58200Y-75301D01*
X58161Y-75109D01*
X58087Y-74928D01*
X57978Y-74764D01*
X57840Y-74625D01*
X57677Y-74516D01*
X57497Y-74440D01*
X57305Y-74400D01*
X57108Y-74399D01*
X56916Y-74436D01*
X56734Y-74509D01*
X56570Y-74616D01*
X56569Y-74617D01*
X56569Y-69550D01*
X58493Y-69550D01*
X58482Y-69567D01*
X58463Y-69612D01*
X58453Y-69660D01*
X58452Y-69709D01*
X58452Y-69987D01*
X58462Y-70035D01*
X58481Y-70080D01*
X58508Y-70121D01*
X58542Y-70156D01*
X58583Y-70183D01*
X58621Y-70200D01*
X58585Y-70215D01*
X58544Y-70242D01*
X58509Y-70276D01*
X58482Y-70317D01*
X58463Y-70362D01*
X58453Y-70410D01*
X58452Y-70459D01*
X58452Y-70737D01*
X58462Y-70785D01*
X58481Y-70830D01*
X58508Y-70871D01*
X58542Y-70906D01*
X58583Y-70933D01*
X58600Y-70940D01*
X58600Y-70959D01*
X58585Y-70965D01*
X58544Y-70992D01*
X58509Y-71026D01*
X58482Y-71067D01*
X58463Y-71112D01*
X58453Y-71160D01*
X58452Y-71209D01*
X58452Y-71487D01*
X58462Y-71535D01*
X58481Y-71580D01*
X58508Y-71621D01*
X58542Y-71656D01*
X58583Y-71683D01*
X58621Y-71700D01*
X58583Y-71716D01*
X58542Y-71743D01*
X58508Y-71778D01*
X58481Y-71819D01*
X58462Y-71864D01*
X58452Y-71912D01*
X58453Y-71962D01*
X58515Y-72025D01*
X58850Y-72025D01*
X58850Y-72017D01*
X58950Y-72017D01*
X58950Y-72025D01*
X59284Y-72025D01*
X59347Y-71962D01*
X59347Y-71912D01*
X59337Y-71864D01*
X59318Y-71819D01*
X59291Y-71778D01*
X59257Y-71743D01*
X59216Y-71716D01*
X59178Y-71699D01*
X59214Y-71684D01*
X59255Y-71657D01*
X59290Y-71623D01*
X59317Y-71582D01*
X59336Y-71537D01*
X59346Y-71489D01*
X59347Y-71440D01*
X59347Y-71162D01*
X59337Y-71114D01*
X59318Y-71069D01*
X59291Y-71028D01*
X59257Y-70993D01*
X59216Y-70966D01*
X59200Y-70959D01*
X59200Y-70940D01*
X59214Y-70934D01*
X59255Y-70907D01*
X59290Y-70873D01*
X59317Y-70832D01*
X59336Y-70787D01*
X59346Y-70739D01*
X59347Y-70690D01*
X59347Y-70412D01*
X59337Y-70364D01*
X59318Y-70319D01*
X59291Y-70278D01*
X59257Y-70243D01*
X59216Y-70216D01*
X59178Y-70199D01*
X59214Y-70184D01*
X59255Y-70157D01*
X59290Y-70123D01*
X59317Y-70082D01*
X59336Y-70037D01*
X59346Y-69989D01*
X59347Y-69940D01*
X59347Y-69662D01*
X59337Y-69614D01*
X59318Y-69569D01*
X59306Y-69550D01*
X61000Y-69550D01*
X61000Y-69796D01*
X60985Y-69781D01*
X60944Y-69754D01*
X60899Y-69735D01*
X60851Y-69725D01*
X60802Y-69724D01*
X60550Y-69724D01*
X60502Y-69734D01*
X60457Y-69753D01*
X60416Y-69780D01*
X60381Y-69814D01*
X60354Y-69855D01*
X60335Y-69900D01*
X60288Y-69900D01*
X60257Y-69868D01*
X60216Y-69841D01*
X60171Y-69822D01*
X60123Y-69812D01*
X60074Y-69811D01*
X59678Y-69811D01*
X59630Y-69821D01*
X59585Y-69840D01*
X59544Y-69867D01*
X59509Y-69901D01*
X59482Y-69942D01*
X59463Y-69987D01*
X59453Y-70035D01*
X59452Y-70084D01*
X59452Y-70362D01*
X59462Y-70410D01*
X59481Y-70455D01*
X59508Y-70496D01*
X59542Y-70531D01*
X59583Y-70558D01*
X59628Y-70577D01*
X59676Y-70587D01*
X59725Y-70588D01*
X60121Y-70588D01*
X60169Y-70578D01*
X60214Y-70559D01*
X60255Y-70532D01*
X60288Y-70500D01*
X60335Y-70500D01*
X60353Y-70542D01*
X60380Y-70583D01*
X60414Y-70618D01*
X60455Y-70645D01*
X60500Y-70664D01*
X60548Y-70674D01*
X60597Y-70675D01*
X60849Y-70675D01*
X60897Y-70665D01*
X60942Y-70646D01*
X60983Y-70619D01*
X60999Y-70603D01*
X61000Y-70603D01*
X61000Y-71296D01*
X60985Y-71281D01*
X60944Y-71254D01*
X60899Y-71235D01*
X60851Y-71225D01*
X60802Y-71224D01*
X60550Y-71224D01*
X60502Y-71234D01*
X60457Y-71253D01*
X60416Y-71280D01*
X60381Y-71314D01*
X60354Y-71355D01*
X60335Y-71400D01*
X60325Y-71448D01*
X60325Y-71459D01*
X60318Y-71444D01*
X60291Y-71403D01*
X60257Y-71368D01*
X60216Y-71341D01*
X60171Y-71322D01*
X60123Y-71312D01*
X60074Y-71311D01*
X59678Y-71311D01*
X59630Y-71321D01*
X59585Y-71340D01*
X59544Y-71367D01*
X59509Y-71401D01*
X59482Y-71442D01*
X59463Y-71487D01*
X59453Y-71535D01*
X59452Y-71584D01*
X59452Y-71862D01*
X59462Y-71910D01*
X59481Y-71955D01*
X59508Y-71996D01*
X59542Y-72031D01*
X59583Y-72058D01*
X59600Y-72065D01*
X59600Y-72925D01*
X59347Y-73178D01*
X59347Y-72237D01*
X59347Y-72187D01*
X59284Y-72125D01*
X58950Y-72125D01*
X58950Y-72400D01*
X59012Y-72463D01*
X59074Y-72463D01*
X59123Y-72462D01*
X59171Y-72452D01*
X59216Y-72433D01*
X59257Y-72406D01*
X59291Y-72371D01*
X59318Y-72330D01*
X59337Y-72285D01*
X59347Y-72237D01*
X59347Y-73178D01*
X59288Y-73237D01*
X59251Y-73181D01*
X59171Y-73100D01*
X59077Y-73037D01*
X58972Y-72993D01*
X58860Y-72970D01*
X58850Y-72970D01*
X58850Y-72400D01*
X58850Y-72125D01*
X58515Y-72125D01*
X58453Y-72187D01*
X58452Y-72237D01*
X58462Y-72285D01*
X58481Y-72330D01*
X58508Y-72371D01*
X58542Y-72406D01*
X58583Y-72433D01*
X58628Y-72452D01*
X58676Y-72462D01*
X58725Y-72463D01*
X58787Y-72463D01*
X58850Y-72400D01*
X58850Y-72970D01*
X58747Y-72969D01*
X58635Y-72990D01*
X58529Y-73033D01*
X58434Y-73095D01*
X58353Y-73175D01*
X58289Y-73269D01*
X58244Y-73373D01*
X58220Y-73485D01*
X58219Y-73598D01*
X58239Y-73710D01*
X58281Y-73816D01*
X58343Y-73912D01*
X58422Y-73993D01*
X58503Y-74050D01*
X58434Y-74095D01*
X58353Y-74175D01*
X58289Y-74269D01*
X58244Y-74373D01*
X58220Y-74485D01*
X58219Y-74598D01*
X58239Y-74710D01*
X58281Y-74816D01*
X58343Y-74912D01*
X58422Y-74993D01*
X58515Y-75058D01*
X58619Y-75104D01*
X58730Y-75128D01*
X58844Y-75131D01*
X58956Y-75111D01*
X59062Y-75070D01*
X59158Y-75009D01*
X59241Y-74930D01*
X59298Y-74850D01*
X60246Y-74850D01*
X60245Y-74850D01*
X60151Y-74988D01*
X60085Y-75141D01*
X60051Y-75304D01*
X60048Y-75471D01*
X60078Y-75635D01*
X60140Y-75790D01*
X60230Y-75930D01*
X60346Y-76050D01*
X60483Y-76145D01*
X60636Y-76212D01*
X60798Y-76248D01*
X60965Y-76251D01*
X61129Y-76222D01*
X61285Y-76162D01*
X61425Y-76073D01*
X61546Y-75958D01*
X61606Y-75873D01*
X61706Y-75923D01*
X62229Y-75400D01*
X61706Y-74876D01*
X61606Y-74926D01*
X61561Y-74860D01*
X61444Y-74741D01*
X61306Y-74648D01*
X61284Y-74639D01*
X61425Y-74499D01*
X61442Y-74477D01*
X61460Y-74456D01*
X61461Y-74455D01*
X61462Y-74453D01*
X61475Y-74429D01*
X61488Y-74405D01*
X61489Y-74403D01*
X61489Y-74402D01*
X61498Y-74375D01*
X61506Y-74349D01*
X61506Y-74347D01*
X61507Y-74346D01*
X61508Y-74329D01*
X61521Y-74326D01*
X61566Y-74307D01*
X61607Y-74280D01*
X61642Y-74246D01*
X61669Y-74205D01*
X61688Y-74160D01*
X61698Y-74112D01*
X61699Y-74063D01*
X61699Y-73589D01*
X61689Y-73541D01*
X61670Y-73496D01*
X61643Y-73455D01*
X61609Y-73420D01*
X61568Y-73393D01*
X61523Y-73374D01*
X61513Y-73371D01*
X61513Y-73013D01*
X61510Y-72985D01*
X61507Y-72957D01*
X61507Y-72956D01*
X61507Y-72954D01*
X61499Y-72928D01*
X61491Y-72901D01*
X61490Y-72900D01*
X61490Y-72898D01*
X61477Y-72874D01*
X61464Y-72849D01*
X61463Y-72848D01*
X61462Y-72846D01*
X61445Y-72825D01*
X61428Y-72803D01*
X61425Y-72801D01*
X61425Y-72801D01*
X61425Y-72801D01*
X61425Y-72800D01*
X61248Y-72623D01*
X61249Y-72624D01*
X61332Y-72625D01*
X61414Y-72611D01*
X61492Y-72581D01*
X61562Y-72536D01*
X61623Y-72479D01*
X61671Y-72410D01*
X61705Y-72334D01*
X61723Y-72253D01*
X61725Y-72158D01*
X61708Y-72076D01*
X61677Y-71999D01*
X61667Y-71985D01*
X61674Y-71951D01*
X61675Y-71902D01*
X61675Y-71450D01*
X61665Y-71402D01*
X61646Y-71357D01*
X61619Y-71316D01*
X61600Y-71296D01*
X61600Y-70603D01*
X61618Y-70585D01*
X61645Y-70544D01*
X61664Y-70499D01*
X61674Y-70451D01*
X61675Y-70402D01*
X61675Y-69950D01*
X61665Y-69902D01*
X61646Y-69857D01*
X61619Y-69816D01*
X61600Y-69796D01*
X61600Y-69550D01*
X63093Y-69550D01*
X63082Y-69567D01*
X63063Y-69612D01*
X63053Y-69660D01*
X63052Y-69709D01*
X63052Y-69759D01*
X63044Y-69754D01*
X62999Y-69735D01*
X62951Y-69725D01*
X62902Y-69724D01*
X62650Y-69724D01*
X62602Y-69734D01*
X62557Y-69753D01*
X62516Y-69780D01*
X62500Y-69796D01*
X62483Y-69780D01*
X62442Y-69753D01*
X62397Y-69734D01*
X62349Y-69724D01*
X62312Y-69725D01*
X62250Y-69787D01*
X62250Y-70150D01*
X62257Y-70150D01*
X62257Y-70250D01*
X62250Y-70250D01*
X62250Y-70612D01*
X62312Y-70675D01*
X62349Y-70675D01*
X62397Y-70665D01*
X62442Y-70646D01*
X62483Y-70619D01*
X62499Y-70603D01*
X62514Y-70618D01*
X62555Y-70645D01*
X62600Y-70664D01*
X62648Y-70674D01*
X62697Y-70675D01*
X62949Y-70675D01*
X62997Y-70665D01*
X63042Y-70646D01*
X63052Y-70640D01*
X63052Y-70737D01*
X63062Y-70785D01*
X63081Y-70830D01*
X63108Y-70871D01*
X63142Y-70906D01*
X63183Y-70933D01*
X63200Y-70940D01*
X63200Y-70959D01*
X63185Y-70965D01*
X63144Y-70992D01*
X63109Y-71026D01*
X63082Y-71067D01*
X63063Y-71112D01*
X63053Y-71160D01*
X63052Y-71209D01*
X63052Y-71259D01*
X63044Y-71254D01*
X62999Y-71235D01*
X62951Y-71225D01*
X62902Y-71224D01*
X62650Y-71224D01*
X62602Y-71234D01*
X62557Y-71253D01*
X62516Y-71280D01*
X62500Y-71296D01*
X62485Y-71281D01*
X62444Y-71254D01*
X62399Y-71235D01*
X62351Y-71225D01*
X62302Y-71224D01*
X62150Y-71224D01*
X62150Y-70612D01*
X62150Y-70250D01*
X62150Y-70150D01*
X62150Y-69787D01*
X62087Y-69725D01*
X62050Y-69724D01*
X62002Y-69734D01*
X61957Y-69753D01*
X61916Y-69780D01*
X61881Y-69814D01*
X61854Y-69855D01*
X61835Y-69900D01*
X61825Y-69948D01*
X61824Y-69997D01*
X61825Y-70087D01*
X61887Y-70150D01*
X62150Y-70150D01*
X62150Y-70250D01*
X61887Y-70250D01*
X61825Y-70312D01*
X61824Y-70402D01*
X61825Y-70451D01*
X61835Y-70499D01*
X61854Y-70544D01*
X61881Y-70585D01*
X61916Y-70619D01*
X61957Y-70646D01*
X62002Y-70665D01*
X62050Y-70675D01*
X62087Y-70675D01*
X62150Y-70612D01*
X62150Y-71224D01*
X62050Y-71224D01*
X62002Y-71234D01*
X61957Y-71253D01*
X61916Y-71280D01*
X61881Y-71314D01*
X61854Y-71355D01*
X61835Y-71400D01*
X61825Y-71448D01*
X61824Y-71497D01*
X61824Y-71949D01*
X61834Y-71997D01*
X61853Y-72042D01*
X61880Y-72083D01*
X61900Y-72103D01*
X61900Y-72500D01*
X61902Y-72527D01*
X61905Y-72555D01*
X61905Y-72556D01*
X61905Y-72558D01*
X61913Y-72584D01*
X61921Y-72611D01*
X61922Y-72612D01*
X61922Y-72614D01*
X61935Y-72638D01*
X61948Y-72663D01*
X61949Y-72664D01*
X61950Y-72666D01*
X61967Y-72687D01*
X61984Y-72709D01*
X61987Y-72711D01*
X61987Y-72711D01*
X61987Y-72711D01*
X61987Y-72712D01*
X62665Y-73389D01*
X62659Y-73392D01*
X62618Y-73419D01*
X62600Y-73437D01*
X62581Y-73419D01*
X62540Y-73392D01*
X62495Y-73373D01*
X62447Y-73363D01*
X62299Y-73364D01*
X62237Y-73426D01*
X62237Y-73800D01*
X62244Y-73800D01*
X62244Y-73900D01*
X62237Y-73900D01*
X62237Y-74273D01*
X62299Y-74336D01*
X62447Y-74336D01*
X62495Y-74326D01*
X62540Y-74307D01*
X62581Y-74280D01*
X62600Y-74262D01*
X62616Y-74279D01*
X62657Y-74306D01*
X62702Y-74325D01*
X62713Y-74328D01*
X62713Y-74363D01*
X62715Y-74390D01*
X62718Y-74418D01*
X62718Y-74419D01*
X62718Y-74421D01*
X62726Y-74447D01*
X62734Y-74474D01*
X62735Y-74475D01*
X62735Y-74477D01*
X62748Y-74501D01*
X62761Y-74526D01*
X62762Y-74527D01*
X62763Y-74529D01*
X62780Y-74550D01*
X62797Y-74572D01*
X62800Y-74574D01*
X62800Y-74574D01*
X62800Y-74574D01*
X62800Y-74575D01*
X62987Y-74762D01*
X63009Y-74779D01*
X63030Y-74797D01*
X63031Y-74798D01*
X63033Y-74799D01*
X63057Y-74812D01*
X63081Y-74825D01*
X63083Y-74826D01*
X63084Y-74826D01*
X63111Y-74835D01*
X63137Y-74843D01*
X63139Y-74843D01*
X63140Y-74844D01*
X63168Y-74846D01*
X63195Y-74849D01*
X63198Y-74849D01*
X63198Y-74849D01*
X63199Y-74849D01*
X63200Y-74850D01*
X64103Y-74850D01*
X64143Y-74912D01*
X64222Y-74993D01*
X64315Y-75058D01*
X64419Y-75104D01*
X64530Y-75128D01*
X64644Y-75131D01*
X64756Y-75111D01*
X64862Y-75070D01*
X64958Y-75009D01*
X65041Y-74930D01*
X65106Y-74837D01*
X65153Y-74733D01*
X65178Y-74623D01*
X65180Y-74493D01*
X65157Y-74381D01*
X65114Y-74276D01*
X65051Y-74181D01*
X64971Y-74100D01*
X64897Y-74050D01*
X64900Y-74049D01*
X64930Y-73951D01*
X64600Y-73620D01*
X64529Y-73691D01*
X64529Y-73550D01*
X64198Y-73219D01*
X64100Y-73249D01*
X64051Y-73351D01*
X64023Y-73462D01*
X64017Y-73575D01*
X64033Y-73688D01*
X64071Y-73795D01*
X64100Y-73850D01*
X64198Y-73880D01*
X64529Y-73550D01*
X64529Y-73691D01*
X64269Y-73951D01*
X64299Y-74049D01*
X64303Y-74051D01*
X64234Y-74095D01*
X64153Y-74175D01*
X64102Y-74250D01*
X63438Y-74250D01*
X63442Y-74246D01*
X63469Y-74205D01*
X63488Y-74160D01*
X63498Y-74112D01*
X63499Y-74063D01*
X63499Y-73589D01*
X63489Y-73541D01*
X63470Y-73496D01*
X63443Y-73455D01*
X63409Y-73420D01*
X63368Y-73393D01*
X63323Y-73374D01*
X63313Y-73371D01*
X63313Y-73313D01*
X63310Y-73285D01*
X63307Y-73257D01*
X63307Y-73256D01*
X63307Y-73254D01*
X63299Y-73228D01*
X63291Y-73201D01*
X63290Y-73200D01*
X63290Y-73198D01*
X63277Y-73174D01*
X63264Y-73149D01*
X63263Y-73148D01*
X63262Y-73146D01*
X63245Y-73125D01*
X63228Y-73103D01*
X63225Y-73101D01*
X63225Y-73101D01*
X63225Y-73101D01*
X63225Y-73100D01*
X62500Y-72375D01*
X62500Y-72103D01*
X62514Y-72118D01*
X62555Y-72145D01*
X62600Y-72164D01*
X62648Y-72174D01*
X62697Y-72175D01*
X62949Y-72175D01*
X62997Y-72165D01*
X63042Y-72146D01*
X63052Y-72140D01*
X63052Y-72237D01*
X63062Y-72285D01*
X63081Y-72330D01*
X63108Y-72371D01*
X63142Y-72406D01*
X63183Y-72433D01*
X63228Y-72452D01*
X63276Y-72462D01*
X63325Y-72463D01*
X63721Y-72463D01*
X63769Y-72453D01*
X63814Y-72434D01*
X63831Y-72423D01*
X63866Y-72447D01*
X63943Y-72481D01*
X64024Y-72499D01*
X64107Y-72500D01*
X64189Y-72486D01*
X64267Y-72456D01*
X64337Y-72411D01*
X64398Y-72354D01*
X64446Y-72285D01*
X64480Y-72209D01*
X64498Y-72128D01*
X64499Y-72088D01*
X64721Y-72088D01*
X64769Y-72078D01*
X64814Y-72059D01*
X64855Y-72032D01*
X64890Y-71998D01*
X64917Y-71957D01*
X64936Y-71912D01*
X64946Y-71864D01*
X64947Y-71815D01*
X64947Y-71537D01*
X64937Y-71489D01*
X64918Y-71444D01*
X64891Y-71403D01*
X64857Y-71368D01*
X64816Y-71341D01*
X64771Y-71322D01*
X64723Y-71312D01*
X64674Y-71311D01*
X64278Y-71311D01*
X64230Y-71321D01*
X64185Y-71340D01*
X64144Y-71367D01*
X64111Y-71400D01*
X63947Y-71400D01*
X63947Y-71162D01*
X63937Y-71114D01*
X63918Y-71069D01*
X63891Y-71028D01*
X63857Y-70993D01*
X63816Y-70966D01*
X63800Y-70959D01*
X63800Y-70940D01*
X63814Y-70934D01*
X63855Y-70907D01*
X63890Y-70873D01*
X63917Y-70832D01*
X63936Y-70787D01*
X63946Y-70739D01*
X63947Y-70690D01*
X63947Y-70500D01*
X64111Y-70500D01*
X64142Y-70531D01*
X64183Y-70558D01*
X64228Y-70577D01*
X64276Y-70587D01*
X64325Y-70588D01*
X64721Y-70588D01*
X64769Y-70578D01*
X64814Y-70559D01*
X64855Y-70532D01*
X64890Y-70498D01*
X64917Y-70457D01*
X64936Y-70412D01*
X64946Y-70364D01*
X64947Y-70315D01*
X64947Y-70037D01*
X64937Y-69989D01*
X64918Y-69944D01*
X64891Y-69903D01*
X64857Y-69868D01*
X64816Y-69841D01*
X64771Y-69822D01*
X64723Y-69812D01*
X64674Y-69811D01*
X64278Y-69811D01*
X64230Y-69821D01*
X64185Y-69840D01*
X64144Y-69867D01*
X64111Y-69900D01*
X63947Y-69900D01*
X63947Y-69662D01*
X63937Y-69614D01*
X63918Y-69569D01*
X63906Y-69550D01*
X66630Y-69550D01*
X66630Y-74698D01*
X66630Y-74699D01*
X66549Y-74558D01*
X66375Y-74467D01*
X66187Y-74412D01*
X65992Y-74395D01*
X65797Y-74415D01*
X65609Y-74474D01*
X65450Y-74558D01*
X65369Y-74699D01*
X66000Y-75329D01*
X66005Y-75323D01*
X66076Y-75394D01*
X66070Y-75400D01*
X66076Y-75405D01*
X66005Y-75476D01*
X66000Y-75470D01*
X65929Y-75541D01*
X65929Y-75400D01*
X65299Y-74769D01*
X65182Y-74837D01*
X65182Y-73524D01*
X65166Y-73411D01*
X65128Y-73304D01*
X65099Y-73249D01*
X65001Y-73219D01*
X64930Y-73289D01*
X64930Y-73148D01*
X64900Y-73050D01*
X64798Y-73001D01*
X64687Y-72973D01*
X64574Y-72967D01*
X64461Y-72983D01*
X64354Y-73021D01*
X64299Y-73050D01*
X64269Y-73148D01*
X64600Y-73479D01*
X64930Y-73148D01*
X64930Y-73289D01*
X64670Y-73550D01*
X65001Y-73880D01*
X65099Y-73850D01*
X65148Y-73748D01*
X65176Y-73637D01*
X65182Y-73524D01*
X65182Y-74837D01*
X65158Y-74850D01*
X65067Y-75024D01*
X65012Y-75212D01*
X64995Y-75407D01*
X65015Y-75602D01*
X65074Y-75790D01*
X65158Y-75949D01*
X65299Y-76030D01*
X65929Y-75400D01*
X65929Y-75541D01*
X65369Y-76100D01*
X65450Y-76241D01*
X65624Y-76332D01*
X65812Y-76387D01*
X66007Y-76404D01*
X66202Y-76384D01*
X66390Y-76325D01*
X66549Y-76241D01*
X66630Y-76100D01*
X66630Y-76100D01*
X66630Y-76101D01*
X66630Y-77564D01*
X66630Y-77564D01*
G37*
G54D19*
X66630Y-77564D02*
X66630Y-77565D01*
X66615Y-77619D01*
X66586Y-77678D01*
X66546Y-77730D01*
X66496Y-77773D01*
X66439Y-77806D01*
X66377Y-77828D01*
X66312Y-77837D01*
X66220Y-77831D01*
X66215Y-77831D01*
X66203Y-77830D01*
X66200Y-77830D01*
X65104Y-77830D01*
X65104Y-76892D01*
X65084Y-76697D01*
X65025Y-76509D01*
X64941Y-76350D01*
X64800Y-76269D01*
X64730Y-76340D01*
X64730Y-76199D01*
X64649Y-76058D01*
X64475Y-75967D01*
X64287Y-75912D01*
X64092Y-75895D01*
X63897Y-75915D01*
X63709Y-75974D01*
X63550Y-76058D01*
X63469Y-76199D01*
X64100Y-76829D01*
X64730Y-76199D01*
X64730Y-76340D01*
X64170Y-76900D01*
X64800Y-77530D01*
X64941Y-77449D01*
X65032Y-77275D01*
X65087Y-77087D01*
X65104Y-76892D01*
X65104Y-77830D01*
X64476Y-77830D01*
X64490Y-77825D01*
X64649Y-77741D01*
X64730Y-77600D01*
X64100Y-76970D01*
X64029Y-77041D01*
X64029Y-76900D01*
X63399Y-76269D01*
X63258Y-76350D01*
X63167Y-76524D01*
X63153Y-76572D01*
X63153Y-75385D01*
X63134Y-75220D01*
X63084Y-75061D01*
X63019Y-74939D01*
X62893Y-74876D01*
X62823Y-74947D01*
X62823Y-74806D01*
X62760Y-74680D01*
X62612Y-74605D01*
X62451Y-74559D01*
X62285Y-74546D01*
X62137Y-74563D01*
X62137Y-74273D01*
X62137Y-73900D01*
X62137Y-73800D01*
X62137Y-73426D01*
X62074Y-73364D01*
X61926Y-73363D01*
X61878Y-73373D01*
X61833Y-73392D01*
X61792Y-73419D01*
X61757Y-73453D01*
X61730Y-73494D01*
X61711Y-73539D01*
X61701Y-73587D01*
X61700Y-73636D01*
X61701Y-73737D01*
X61763Y-73800D01*
X62137Y-73800D01*
X62137Y-73900D01*
X61763Y-73900D01*
X61701Y-73962D01*
X61700Y-74063D01*
X61701Y-74112D01*
X61711Y-74160D01*
X61730Y-74205D01*
X61757Y-74246D01*
X61792Y-74280D01*
X61833Y-74307D01*
X61878Y-74326D01*
X61926Y-74336D01*
X62074Y-74336D01*
X62137Y-74273D01*
X62137Y-74563D01*
X62120Y-74565D01*
X61961Y-74615D01*
X61839Y-74680D01*
X61776Y-74806D01*
X62300Y-75329D01*
X62823Y-74806D01*
X62823Y-74947D01*
X62370Y-75400D01*
X62893Y-75923D01*
X63019Y-75860D01*
X63094Y-75712D01*
X63140Y-75551D01*
X63153Y-75385D01*
X63153Y-76572D01*
X63112Y-76712D01*
X63095Y-76907D01*
X63115Y-77102D01*
X63174Y-77290D01*
X63258Y-77449D01*
X63399Y-77530D01*
X64029Y-76900D01*
X64029Y-77041D01*
X63469Y-77600D01*
X63550Y-77741D01*
X63721Y-77830D01*
X62823Y-77830D01*
X62823Y-75993D01*
X62300Y-75470D01*
X61776Y-75993D01*
X61839Y-76119D01*
X61987Y-76194D01*
X62148Y-76240D01*
X62314Y-76253D01*
X62479Y-76234D01*
X62638Y-76184D01*
X62760Y-76119D01*
X62823Y-75993D01*
X62823Y-77830D01*
X59466Y-77830D01*
X59553Y-77796D01*
X59718Y-77691D01*
X59860Y-77556D01*
X59973Y-77396D01*
X60053Y-77217D01*
X60096Y-77025D01*
X60100Y-76801D01*
X60061Y-76609D01*
X59987Y-76428D01*
X59878Y-76264D01*
X59740Y-76125D01*
X59577Y-76016D01*
X59397Y-75940D01*
X59205Y-75900D01*
X59008Y-75899D01*
X58816Y-75936D01*
X58634Y-76009D01*
X58470Y-76116D01*
X58330Y-76254D01*
X58219Y-76415D01*
X58142Y-76596D01*
X58101Y-76787D01*
X58098Y-76984D01*
X58134Y-77176D01*
X58206Y-77359D01*
X58312Y-77524D01*
X58448Y-77665D01*
X58609Y-77777D01*
X58731Y-77830D01*
X56913Y-77830D01*
X56836Y-77822D01*
X56774Y-77804D01*
X56717Y-77774D01*
X56668Y-77733D01*
X56627Y-77683D01*
X56596Y-77627D01*
X56577Y-77566D01*
X56569Y-77489D01*
X56569Y-76179D01*
X56709Y-76277D01*
X56889Y-76355D01*
X57081Y-76397D01*
X57277Y-76401D01*
X57470Y-76367D01*
X57653Y-76296D01*
X57818Y-76191D01*
X57960Y-76056D01*
X58073Y-75896D01*
X58153Y-75717D01*
X58196Y-75525D01*
X58200Y-75301D01*
X58161Y-75109D01*
X58087Y-74928D01*
X57978Y-74764D01*
X57840Y-74625D01*
X57677Y-74516D01*
X57497Y-74440D01*
X57305Y-74400D01*
X57108Y-74399D01*
X56916Y-74436D01*
X56734Y-74509D01*
X56570Y-74616D01*
X56569Y-74617D01*
X56569Y-69550D01*
X58493Y-69550D01*
X58482Y-69567D01*
X58463Y-69612D01*
X58453Y-69660D01*
X58452Y-69709D01*
X58452Y-69987D01*
X58462Y-70035D01*
X58481Y-70080D01*
X58508Y-70121D01*
X58542Y-70156D01*
X58583Y-70183D01*
X58621Y-70200D01*
X58585Y-70215D01*
X58544Y-70242D01*
X58509Y-70276D01*
X58482Y-70317D01*
X58463Y-70362D01*
X58453Y-70410D01*
X58452Y-70459D01*
X58452Y-70737D01*
X58462Y-70785D01*
X58481Y-70830D01*
X58508Y-70871D01*
X58542Y-70906D01*
X58583Y-70933D01*
X58600Y-70940D01*
X58600Y-70959D01*
X58585Y-70965D01*
X58544Y-70992D01*
X58509Y-71026D01*
X58482Y-71067D01*
X58463Y-71112D01*
X58453Y-71160D01*
X58452Y-71209D01*
X58452Y-71487D01*
X58462Y-71535D01*
X58481Y-71580D01*
X58508Y-71621D01*
X58542Y-71656D01*
X58583Y-71683D01*
X58621Y-71700D01*
X58583Y-71716D01*
X58542Y-71743D01*
X58508Y-71778D01*
X58481Y-71819D01*
X58462Y-71864D01*
X58452Y-71912D01*
X58453Y-71962D01*
X58515Y-72025D01*
X58850Y-72025D01*
X58850Y-72017D01*
X58950Y-72017D01*
X58950Y-72025D01*
X59284Y-72025D01*
X59347Y-71962D01*
X59347Y-71912D01*
X59337Y-71864D01*
X59318Y-71819D01*
X59291Y-71778D01*
X59257Y-71743D01*
X59216Y-71716D01*
X59178Y-71699D01*
X59214Y-71684D01*
X59255Y-71657D01*
X59290Y-71623D01*
X59317Y-71582D01*
X59336Y-71537D01*
X59346Y-71489D01*
X59347Y-71440D01*
X59347Y-71162D01*
X59337Y-71114D01*
X59318Y-71069D01*
X59291Y-71028D01*
X59257Y-70993D01*
X59216Y-70966D01*
X59200Y-70959D01*
X59200Y-70940D01*
X59214Y-70934D01*
X59255Y-70907D01*
X59290Y-70873D01*
X59317Y-70832D01*
X59336Y-70787D01*
X59346Y-70739D01*
X59347Y-70690D01*
X59347Y-70412D01*
X59337Y-70364D01*
X59318Y-70319D01*
X59291Y-70278D01*
X59257Y-70243D01*
X59216Y-70216D01*
X59178Y-70199D01*
X59214Y-70184D01*
X59255Y-70157D01*
X59290Y-70123D01*
X59317Y-70082D01*
X59336Y-70037D01*
X59346Y-69989D01*
X59347Y-69940D01*
X59347Y-69662D01*
X59337Y-69614D01*
X59318Y-69569D01*
X59306Y-69550D01*
X61000Y-69550D01*
X61000Y-69796D01*
X60985Y-69781D01*
X60944Y-69754D01*
X60899Y-69735D01*
X60851Y-69725D01*
X60802Y-69724D01*
X60550Y-69724D01*
X60502Y-69734D01*
X60457Y-69753D01*
X60416Y-69780D01*
X60381Y-69814D01*
X60354Y-69855D01*
X60335Y-69900D01*
X60288Y-69900D01*
X60257Y-69868D01*
X60216Y-69841D01*
X60171Y-69822D01*
X60123Y-69812D01*
X60074Y-69811D01*
X59678Y-69811D01*
X59630Y-69821D01*
X59585Y-69840D01*
X59544Y-69867D01*
X59509Y-69901D01*
X59482Y-69942D01*
X59463Y-69987D01*
X59453Y-70035D01*
X59452Y-70084D01*
X59452Y-70362D01*
X59462Y-70410D01*
X59481Y-70455D01*
X59508Y-70496D01*
X59542Y-70531D01*
X59583Y-70558D01*
X59628Y-70577D01*
X59676Y-70587D01*
X59725Y-70588D01*
X60121Y-70588D01*
X60169Y-70578D01*
X60214Y-70559D01*
X60255Y-70532D01*
X60288Y-70500D01*
X60335Y-70500D01*
X60353Y-70542D01*
X60380Y-70583D01*
X60414Y-70618D01*
X60455Y-70645D01*
X60500Y-70664D01*
X60548Y-70674D01*
X60597Y-70675D01*
X60849Y-70675D01*
X60897Y-70665D01*
X60942Y-70646D01*
X60983Y-70619D01*
X60999Y-70603D01*
X61000Y-70603D01*
X61000Y-71296D01*
X60985Y-71281D01*
X60944Y-71254D01*
X60899Y-71235D01*
X60851Y-71225D01*
X60802Y-71224D01*
X60550Y-71224D01*
X60502Y-71234D01*
X60457Y-71253D01*
X60416Y-71280D01*
X60381Y-71314D01*
X60354Y-71355D01*
X60335Y-71400D01*
X60325Y-71448D01*
X60325Y-71459D01*
X60318Y-71444D01*
X60291Y-71403D01*
X60257Y-71368D01*
X60216Y-71341D01*
X60171Y-71322D01*
X60123Y-71312D01*
X60074Y-71311D01*
X59678Y-71311D01*
X59630Y-71321D01*
X59585Y-71340D01*
X59544Y-71367D01*
X59509Y-71401D01*
X59482Y-71442D01*
X59463Y-71487D01*
X59453Y-71535D01*
X59452Y-71584D01*
X59452Y-71862D01*
X59462Y-71910D01*
X59481Y-71955D01*
X59508Y-71996D01*
X59542Y-72031D01*
X59583Y-72058D01*
X59600Y-72065D01*
X59600Y-72925D01*
X59347Y-73178D01*
X59347Y-72237D01*
X59347Y-72187D01*
X59284Y-72125D01*
X58950Y-72125D01*
X58950Y-72400D01*
X59012Y-72463D01*
X59074Y-72463D01*
X59123Y-72462D01*
X59171Y-72452D01*
X59216Y-72433D01*
X59257Y-72406D01*
X59291Y-72371D01*
X59318Y-72330D01*
X59337Y-72285D01*
X59347Y-72237D01*
X59347Y-73178D01*
X59288Y-73237D01*
X59251Y-73181D01*
X59171Y-73100D01*
X59077Y-73037D01*
X58972Y-72993D01*
X58860Y-72970D01*
X58850Y-72970D01*
X58850Y-72400D01*
X58850Y-72125D01*
X58515Y-72125D01*
X58453Y-72187D01*
X58452Y-72237D01*
X58462Y-72285D01*
X58481Y-72330D01*
X58508Y-72371D01*
X58542Y-72406D01*
X58583Y-72433D01*
X58628Y-72452D01*
X58676Y-72462D01*
X58725Y-72463D01*
X58787Y-72463D01*
X58850Y-72400D01*
X58850Y-72970D01*
X58747Y-72969D01*
X58635Y-72990D01*
X58529Y-73033D01*
X58434Y-73095D01*
X58353Y-73175D01*
X58289Y-73269D01*
X58244Y-73373D01*
X58220Y-73485D01*
X58219Y-73598D01*
X58239Y-73710D01*
X58281Y-73816D01*
X58343Y-73912D01*
X58422Y-73993D01*
X58503Y-74050D01*
X58434Y-74095D01*
X58353Y-74175D01*
X58289Y-74269D01*
X58244Y-74373D01*
X58220Y-74485D01*
X58219Y-74598D01*
X58239Y-74710D01*
X58281Y-74816D01*
X58343Y-74912D01*
X58422Y-74993D01*
X58515Y-75058D01*
X58619Y-75104D01*
X58730Y-75128D01*
X58844Y-75131D01*
X58956Y-75111D01*
X59062Y-75070D01*
X59158Y-75009D01*
X59241Y-74930D01*
X59298Y-74850D01*
X60246Y-74850D01*
X60245Y-74850D01*
X60151Y-74988D01*
X60085Y-75141D01*
X60051Y-75304D01*
X60048Y-75471D01*
X60078Y-75635D01*
X60140Y-75790D01*
X60230Y-75930D01*
X60346Y-76050D01*
X60483Y-76145D01*
X60636Y-76212D01*
X60798Y-76248D01*
X60965Y-76251D01*
X61129Y-76222D01*
X61285Y-76162D01*
X61425Y-76073D01*
X61546Y-75958D01*
X61606Y-75873D01*
X61706Y-75923D01*
X62229Y-75400D01*
X61706Y-74876D01*
X61606Y-74926D01*
X61561Y-74860D01*
X61444Y-74741D01*
X61306Y-74648D01*
X61284Y-74639D01*
X61425Y-74499D01*
X61442Y-74477D01*
X61460Y-74456D01*
X61461Y-74455D01*
X61462Y-74453D01*
X61475Y-74429D01*
X61488Y-74405D01*
X61489Y-74403D01*
X61489Y-74402D01*
X61498Y-74375D01*
X61506Y-74349D01*
X61506Y-74347D01*
X61507Y-74346D01*
X61508Y-74329D01*
X61521Y-74326D01*
X61566Y-74307D01*
X61607Y-74280D01*
X61642Y-74246D01*
X61669Y-74205D01*
X61688Y-74160D01*
X61698Y-74112D01*
X61699Y-74063D01*
X61699Y-73589D01*
X61689Y-73541D01*
X61670Y-73496D01*
X61643Y-73455D01*
X61609Y-73420D01*
X61568Y-73393D01*
X61523Y-73374D01*
X61513Y-73371D01*
X61513Y-73013D01*
X61510Y-72985D01*
X61507Y-72957D01*
X61507Y-72956D01*
X61507Y-72954D01*
X61499Y-72928D01*
X61491Y-72901D01*
X61490Y-72900D01*
X61490Y-72898D01*
X61477Y-72874D01*
X61464Y-72849D01*
X61463Y-72848D01*
X61462Y-72846D01*
X61445Y-72825D01*
X61428Y-72803D01*
X61425Y-72801D01*
X61425Y-72801D01*
X61425Y-72801D01*
X61425Y-72800D01*
X61248Y-72623D01*
X61249Y-72624D01*
X61332Y-72625D01*
X61414Y-72611D01*
X61492Y-72581D01*
X61562Y-72536D01*
X61623Y-72479D01*
X61671Y-72410D01*
X61705Y-72334D01*
X61723Y-72253D01*
X61725Y-72158D01*
X61708Y-72076D01*
X61677Y-71999D01*
X61667Y-71985D01*
X61674Y-71951D01*
X61675Y-71902D01*
X61675Y-71450D01*
X61665Y-71402D01*
X61646Y-71357D01*
X61619Y-71316D01*
X61600Y-71296D01*
X61600Y-70603D01*
X61618Y-70585D01*
X61645Y-70544D01*
X61664Y-70499D01*
X61674Y-70451D01*
X61675Y-70402D01*
X61675Y-69950D01*
X61665Y-69902D01*
X61646Y-69857D01*
X61619Y-69816D01*
X61600Y-69796D01*
X61600Y-69550D01*
X63093Y-69550D01*
X63082Y-69567D01*
X63063Y-69612D01*
X63053Y-69660D01*
X63052Y-69709D01*
X63052Y-69759D01*
X63044Y-69754D01*
X62999Y-69735D01*
X62951Y-69725D01*
X62902Y-69724D01*
X62650Y-69724D01*
X62602Y-69734D01*
X62557Y-69753D01*
X62516Y-69780D01*
X62500Y-69796D01*
X62483Y-69780D01*
X62442Y-69753D01*
X62397Y-69734D01*
X62349Y-69724D01*
X62312Y-69725D01*
X62250Y-69787D01*
X62250Y-70150D01*
X62257Y-70150D01*
X62257Y-70250D01*
X62250Y-70250D01*
X62250Y-70612D01*
X62312Y-70675D01*
X62349Y-70675D01*
X62397Y-70665D01*
X62442Y-70646D01*
X62483Y-70619D01*
X62499Y-70603D01*
X62514Y-70618D01*
X62555Y-70645D01*
X62600Y-70664D01*
X62648Y-70674D01*
X62697Y-70675D01*
X62949Y-70675D01*
X62997Y-70665D01*
X63042Y-70646D01*
X63052Y-70640D01*
X63052Y-70737D01*
X63062Y-70785D01*
X63081Y-70830D01*
X63108Y-70871D01*
X63142Y-70906D01*
X63183Y-70933D01*
X63200Y-70940D01*
X63200Y-70959D01*
X63185Y-70965D01*
X63144Y-70992D01*
X63109Y-71026D01*
X63082Y-71067D01*
X63063Y-71112D01*
X63053Y-71160D01*
X63052Y-71209D01*
X63052Y-71259D01*
X63044Y-71254D01*
X62999Y-71235D01*
X62951Y-71225D01*
X62902Y-71224D01*
X62650Y-71224D01*
X62602Y-71234D01*
X62557Y-71253D01*
X62516Y-71280D01*
X62500Y-71296D01*
X62485Y-71281D01*
X62444Y-71254D01*
X62399Y-71235D01*
X62351Y-71225D01*
X62302Y-71224D01*
X62150Y-71224D01*
X62150Y-70612D01*
X62150Y-70250D01*
X62150Y-70150D01*
X62150Y-69787D01*
X62087Y-69725D01*
X62050Y-69724D01*
X62002Y-69734D01*
X61957Y-69753D01*
X61916Y-69780D01*
X61881Y-69814D01*
X61854Y-69855D01*
X61835Y-69900D01*
X61825Y-69948D01*
X61824Y-69997D01*
X61825Y-70087D01*
X61887Y-70150D01*
X62150Y-70150D01*
X62150Y-70250D01*
X61887Y-70250D01*
X61825Y-70312D01*
X61824Y-70402D01*
X61825Y-70451D01*
X61835Y-70499D01*
X61854Y-70544D01*
X61881Y-70585D01*
X61916Y-70619D01*
X61957Y-70646D01*
X62002Y-70665D01*
X62050Y-70675D01*
X62087Y-70675D01*
X62150Y-70612D01*
X62150Y-71224D01*
X62050Y-71224D01*
X62002Y-71234D01*
X61957Y-71253D01*
X61916Y-71280D01*
X61881Y-71314D01*
X61854Y-71355D01*
X61835Y-71400D01*
X61825Y-71448D01*
X61824Y-71497D01*
X61824Y-71949D01*
X61834Y-71997D01*
X61853Y-72042D01*
X61880Y-72083D01*
X61900Y-72103D01*
X61900Y-72500D01*
X61902Y-72527D01*
X61905Y-72555D01*
X61905Y-72556D01*
X61905Y-72558D01*
X61913Y-72584D01*
X61921Y-72611D01*
X61922Y-72612D01*
X61922Y-72614D01*
X61935Y-72638D01*
X61948Y-72663D01*
X61949Y-72664D01*
X61950Y-72666D01*
X61967Y-72687D01*
X61984Y-72709D01*
X61987Y-72711D01*
X61987Y-72711D01*
X61987Y-72711D01*
X61987Y-72712D01*
X62665Y-73389D01*
X62659Y-73392D01*
X62618Y-73419D01*
X62600Y-73437D01*
X62581Y-73419D01*
X62540Y-73392D01*
X62495Y-73373D01*
X62447Y-73363D01*
X62299Y-73364D01*
X62237Y-73426D01*
X62237Y-73800D01*
X62244Y-73800D01*
X62244Y-73900D01*
X62237Y-73900D01*
X62237Y-74273D01*
X62299Y-74336D01*
X62447Y-74336D01*
X62495Y-74326D01*
X62540Y-74307D01*
X62581Y-74280D01*
X62600Y-74262D01*
X62616Y-74279D01*
X62657Y-74306D01*
X62702Y-74325D01*
X62713Y-74328D01*
X62713Y-74363D01*
X62715Y-74390D01*
X62718Y-74418D01*
X62718Y-74419D01*
X62718Y-74421D01*
X62726Y-74447D01*
X62734Y-74474D01*
X62735Y-74475D01*
X62735Y-74477D01*
X62748Y-74501D01*
X62761Y-74526D01*
X62762Y-74527D01*
X62763Y-74529D01*
X62780Y-74550D01*
X62797Y-74572D01*
X62800Y-74574D01*
X62800Y-74574D01*
X62800Y-74574D01*
X62800Y-74575D01*
X62987Y-74762D01*
X63009Y-74779D01*
X63030Y-74797D01*
X63031Y-74798D01*
X63033Y-74799D01*
X63057Y-74812D01*
X63081Y-74825D01*
X63083Y-74826D01*
X63084Y-74826D01*
X63111Y-74835D01*
X63137Y-74843D01*
X63139Y-74843D01*
X63140Y-74844D01*
X63168Y-74846D01*
X63195Y-74849D01*
X63198Y-74849D01*
X63198Y-74849D01*
X63199Y-74849D01*
X63200Y-74850D01*
X64103Y-74850D01*
X64143Y-74912D01*
X64222Y-74993D01*
X64315Y-75058D01*
X64419Y-75104D01*
X64530Y-75128D01*
X64644Y-75131D01*
X64756Y-75111D01*
X64862Y-75070D01*
X64958Y-75009D01*
X65041Y-74930D01*
X65106Y-74837D01*
X65153Y-74733D01*
X65178Y-74623D01*
X65180Y-74493D01*
X65157Y-74381D01*
X65114Y-74276D01*
X65051Y-74181D01*
X64971Y-74100D01*
X64897Y-74050D01*
X64900Y-74049D01*
X64930Y-73951D01*
X64600Y-73620D01*
X64529Y-73691D01*
X64529Y-73550D01*
X64198Y-73219D01*
X64100Y-73249D01*
X64051Y-73351D01*
X64023Y-73462D01*
X64017Y-73575D01*
X64033Y-73688D01*
X64071Y-73795D01*
X64100Y-73850D01*
X64198Y-73880D01*
X64529Y-73550D01*
X64529Y-73691D01*
X64269Y-73951D01*
X64299Y-74049D01*
X64303Y-74051D01*
X64234Y-74095D01*
X64153Y-74175D01*
X64102Y-74250D01*
X63438Y-74250D01*
X63442Y-74246D01*
X63469Y-74205D01*
X63488Y-74160D01*
X63498Y-74112D01*
X63499Y-74063D01*
X63499Y-73589D01*
X63489Y-73541D01*
X63470Y-73496D01*
X63443Y-73455D01*
X63409Y-73420D01*
X63368Y-73393D01*
X63323Y-73374D01*
X63313Y-73371D01*
X63313Y-73313D01*
X63310Y-73285D01*
X63307Y-73257D01*
X63307Y-73256D01*
X63307Y-73254D01*
X63299Y-73228D01*
X63291Y-73201D01*
X63290Y-73200D01*
X63290Y-73198D01*
X63277Y-73174D01*
X63264Y-73149D01*
X63263Y-73148D01*
X63262Y-73146D01*
X63245Y-73125D01*
X63228Y-73103D01*
X63225Y-73101D01*
X63225Y-73101D01*
X63225Y-73101D01*
X63225Y-73100D01*
X62500Y-72375D01*
X62500Y-72103D01*
X62514Y-72118D01*
X62555Y-72145D01*
X62600Y-72164D01*
X62648Y-72174D01*
X62697Y-72175D01*
X62949Y-72175D01*
X62997Y-72165D01*
X63042Y-72146D01*
X63052Y-72140D01*
X63052Y-72237D01*
X63062Y-72285D01*
X63081Y-72330D01*
X63108Y-72371D01*
X63142Y-72406D01*
X63183Y-72433D01*
X63228Y-72452D01*
X63276Y-72462D01*
X63325Y-72463D01*
X63721Y-72463D01*
X63769Y-72453D01*
X63814Y-72434D01*
X63831Y-72423D01*
X63866Y-72447D01*
X63943Y-72481D01*
X64024Y-72499D01*
X64107Y-72500D01*
X64189Y-72486D01*
X64267Y-72456D01*
X64337Y-72411D01*
X64398Y-72354D01*
X64446Y-72285D01*
X64480Y-72209D01*
X64498Y-72128D01*
X64499Y-72088D01*
X64721Y-72088D01*
X64769Y-72078D01*
X64814Y-72059D01*
X64855Y-72032D01*
X64890Y-71998D01*
X64917Y-71957D01*
X64936Y-71912D01*
X64946Y-71864D01*
X64947Y-71815D01*
X64947Y-71537D01*
X64937Y-71489D01*
X64918Y-71444D01*
X64891Y-71403D01*
X64857Y-71368D01*
X64816Y-71341D01*
X64771Y-71322D01*
X64723Y-71312D01*
X64674Y-71311D01*
X64278Y-71311D01*
X64230Y-71321D01*
X64185Y-71340D01*
X64144Y-71367D01*
X64111Y-71400D01*
X63947Y-71400D01*
X63947Y-71162D01*
X63937Y-71114D01*
X63918Y-71069D01*
X63891Y-71028D01*
X63857Y-70993D01*
X63816Y-70966D01*
X63800Y-70959D01*
X63800Y-70940D01*
X63814Y-70934D01*
X63855Y-70907D01*
X63890Y-70873D01*
X63917Y-70832D01*
X63936Y-70787D01*
X63946Y-70739D01*
X63947Y-70690D01*
X63947Y-70500D01*
X64111Y-70500D01*
X64142Y-70531D01*
X64183Y-70558D01*
X64228Y-70577D01*
X64276Y-70587D01*
X64325Y-70588D01*
X64721Y-70588D01*
X64769Y-70578D01*
X64814Y-70559D01*
X64855Y-70532D01*
X64890Y-70498D01*
X64917Y-70457D01*
X64936Y-70412D01*
X64946Y-70364D01*
X64947Y-70315D01*
X64947Y-70037D01*
X64937Y-69989D01*
X64918Y-69944D01*
X64891Y-69903D01*
X64857Y-69868D01*
X64816Y-69841D01*
X64771Y-69822D01*
X64723Y-69812D01*
X64674Y-69811D01*
X64278Y-69811D01*
X64230Y-69821D01*
X64185Y-69840D01*
X64144Y-69867D01*
X64111Y-69900D01*
X63947Y-69900D01*
X63947Y-69662D01*
X63937Y-69614D01*
X63918Y-69569D01*
X63906Y-69550D01*
X66630Y-69550D01*
X66630Y-74698D01*
X66630Y-74699D01*
X66549Y-74558D01*
X66375Y-74467D01*
X66187Y-74412D01*
X65992Y-74395D01*
X65797Y-74415D01*
X65609Y-74474D01*
X65450Y-74558D01*
X65369Y-74699D01*
X66000Y-75329D01*
X66005Y-75323D01*
X66076Y-75394D01*
X66070Y-75400D01*
X66076Y-75405D01*
X66005Y-75476D01*
X66000Y-75470D01*
X65929Y-75541D01*
X65929Y-75400D01*
X65299Y-74769D01*
X65182Y-74837D01*
X65182Y-73524D01*
X65166Y-73411D01*
X65128Y-73304D01*
X65099Y-73249D01*
X65001Y-73219D01*
X64930Y-73289D01*
X64930Y-73148D01*
X64900Y-73050D01*
X64798Y-73001D01*
X64687Y-72973D01*
X64574Y-72967D01*
X64461Y-72983D01*
X64354Y-73021D01*
X64299Y-73050D01*
X64269Y-73148D01*
X64600Y-73479D01*
X64930Y-73148D01*
X64930Y-73289D01*
X64670Y-73550D01*
X65001Y-73880D01*
X65099Y-73850D01*
X65148Y-73748D01*
X65176Y-73637D01*
X65182Y-73524D01*
X65182Y-74837D01*
X65158Y-74850D01*
X65067Y-75024D01*
X65012Y-75212D01*
X64995Y-75407D01*
X65015Y-75602D01*
X65074Y-75790D01*
X65158Y-75949D01*
X65299Y-76030D01*
X65929Y-75400D01*
X65929Y-75541D01*
X65369Y-76100D01*
X65450Y-76241D01*
X65624Y-76332D01*
X65812Y-76387D01*
X66007Y-76404D01*
X66202Y-76384D01*
X66390Y-76325D01*
X66549Y-76241D01*
X66630Y-76100D01*
X66630Y-76100D01*
X66630Y-76101D01*
X66630Y-77564D01*
M02*
